G04 #@! TF.GenerationSoftware,KiCad,Pcbnew,7.0.7*
G04 #@! TF.CreationDate,2023-10-29T22:23:37+09:00*
G04 #@! TF.ProjectId,Pixy-mega128-0-sdram-hat,50697879-2d6d-4656-9761-3132382d302d,rev?*
G04 #@! TF.SameCoordinates,Original*
G04 #@! TF.FileFunction,Copper,L1,Top*
G04 #@! TF.FilePolarity,Positive*
%FSLAX46Y46*%
G04 Gerber Fmt 4.6, Leading zero omitted, Abs format (unit mm)*
G04 Created by KiCad (PCBNEW 7.0.7) date 2023-10-29 22:23:37*
%MOMM*%
%LPD*%
G01*
G04 APERTURE LIST*
G04 #@! TA.AperFunction,SMDPad,CuDef*
%ADD10R,2.200000X0.500000*%
G04 #@! TD*
G04 #@! TA.AperFunction,ComponentPad*
%ADD11R,1.700000X1.700000*%
G04 #@! TD*
G04 #@! TA.AperFunction,ComponentPad*
%ADD12O,1.700000X1.700000*%
G04 #@! TD*
G04 #@! TA.AperFunction,ComponentPad*
%ADD13C,1.600000*%
G04 #@! TD*
G04 #@! TA.AperFunction,ViaPad*
%ADD14C,0.800000*%
G04 #@! TD*
G04 #@! TA.AperFunction,Conductor*
%ADD15C,1.000000*%
G04 #@! TD*
G04 #@! TA.AperFunction,Conductor*
%ADD16C,0.400000*%
G04 #@! TD*
G04 APERTURE END LIST*
D10*
G04 #@! TO.P,U1,1,VDD*
G04 #@! TO.N,VCC*
X38520000Y-40400000D03*
G04 #@! TO.P,U1,2,DQ0*
G04 #@! TO.N,/PF0*
X38520000Y-41200000D03*
G04 #@! TO.P,U1,3,VDDQ*
G04 #@! TO.N,VCC*
X38520000Y-42000000D03*
G04 #@! TO.P,U1,4,DQ1*
G04 #@! TO.N,/PF1*
X38520000Y-42800000D03*
G04 #@! TO.P,U1,5,DQ2*
G04 #@! TO.N,/PF2*
X38520000Y-43600000D03*
G04 #@! TO.P,U1,6,VSSQ*
G04 #@! TO.N,GND*
X38520000Y-44400000D03*
G04 #@! TO.P,U1,7,DQ3*
G04 #@! TO.N,/PF3*
X38520000Y-45200000D03*
G04 #@! TO.P,U1,8,DQ4*
G04 #@! TO.N,/PF4*
X38520000Y-46000000D03*
G04 #@! TO.P,U1,9,VDDQ*
G04 #@! TO.N,VCC*
X38520000Y-46800000D03*
G04 #@! TO.P,U1,10,DQ5*
G04 #@! TO.N,/PF5*
X38520000Y-47600000D03*
G04 #@! TO.P,U1,11,DQ6*
G04 #@! TO.N,/PF6*
X38520000Y-48400000D03*
G04 #@! TO.P,U1,12,VSSQ*
G04 #@! TO.N,GND*
X38520000Y-49200000D03*
G04 #@! TO.P,U1,13,DQ7*
G04 #@! TO.N,/PF7*
X38520000Y-50000000D03*
G04 #@! TO.P,U1,14,VDD*
G04 #@! TO.N,VCC*
X38520000Y-50800000D03*
G04 #@! TO.P,U1,15,LDQM*
G04 #@! TO.N,/PE6*
X38520000Y-51600000D03*
G04 #@! TO.P,U1,16,/WE*
G04 #@! TO.N,/PB4*
X38520000Y-52400000D03*
G04 #@! TO.P,U1,17,/CAS*
G04 #@! TO.N,/PB5*
X38520000Y-53200000D03*
G04 #@! TO.P,U1,18,/RAS*
G04 #@! TO.N,/PB6*
X38520000Y-54000000D03*
G04 #@! TO.P,U1,19,/CS*
G04 #@! TO.N,/PB7*
X38520000Y-54800000D03*
G04 #@! TO.P,U1,20,BA0*
G04 #@! TO.N,/PC4*
X38520000Y-55600000D03*
G04 #@! TO.P,U1,21,BA1*
G04 #@! TO.N,/PC5*
X38520000Y-56400000D03*
G04 #@! TO.P,U1,22,A10*
G04 #@! TO.N,/PC2*
X38520000Y-57200000D03*
G04 #@! TO.P,U1,23,A0*
G04 #@! TO.N,/PD0*
X38520000Y-58000000D03*
G04 #@! TO.P,U1,24,A1*
G04 #@! TO.N,/PD1*
X38520000Y-58800000D03*
G04 #@! TO.P,U1,25,A2*
G04 #@! TO.N,/PD2*
X38520000Y-59600000D03*
G04 #@! TO.P,U1,26,A3*
G04 #@! TO.N,/PD3*
X38520000Y-60400000D03*
G04 #@! TO.P,U1,27,VDD*
G04 #@! TO.N,VCC*
X38520000Y-61200000D03*
G04 #@! TO.P,U1,28,VSS*
G04 #@! TO.N,GND*
X48680000Y-61200000D03*
G04 #@! TO.P,U1,29,A4*
G04 #@! TO.N,/PD4*
X48680000Y-60400000D03*
G04 #@! TO.P,U1,30,A5*
G04 #@! TO.N,/PD5*
X48680000Y-59600000D03*
G04 #@! TO.P,U1,31,A6*
G04 #@! TO.N,/PD6*
X48680000Y-58800000D03*
G04 #@! TO.P,U1,32,A7*
G04 #@! TO.N,/PD7*
X48680000Y-58000000D03*
G04 #@! TO.P,U1,33,A8*
G04 #@! TO.N,/PC0*
X48680000Y-57200000D03*
G04 #@! TO.P,U1,34,A9*
G04 #@! TO.N,/PC1*
X48680000Y-56400000D03*
G04 #@! TO.P,U1,35,A11*
G04 #@! TO.N,/PC3*
X48680000Y-55600000D03*
G04 #@! TO.P,U1,36,NC*
G04 #@! TO.N,unconnected-(U1-NC-Pad36)*
X48680000Y-54800000D03*
G04 #@! TO.P,U1,37,CKE*
G04 #@! TO.N,/PC6*
X48680000Y-54000000D03*
G04 #@! TO.P,U1,38,CLK*
G04 #@! TO.N,/PC7*
X48680000Y-53200000D03*
G04 #@! TO.P,U1,39,UDQM*
G04 #@! TO.N,/PE7*
X48680000Y-52400000D03*
G04 #@! TO.P,U1,40,NC*
G04 #@! TO.N,unconnected-(U1-NC-Pad40)*
X48680000Y-51600000D03*
G04 #@! TO.P,U1,41,VSS*
G04 #@! TO.N,GND*
X48680000Y-50800000D03*
G04 #@! TO.P,U1,42,DQ8*
G04 #@! TO.N,/PA0*
X48680000Y-50000000D03*
G04 #@! TO.P,U1,43,VDDQ*
G04 #@! TO.N,VCC*
X48680000Y-49200000D03*
G04 #@! TO.P,U1,44,DQ9*
G04 #@! TO.N,/PA1*
X48680000Y-48400000D03*
G04 #@! TO.P,U1,45,DQ10*
G04 #@! TO.N,/PA2*
X48680000Y-47600000D03*
G04 #@! TO.P,U1,46,VSSQ*
G04 #@! TO.N,GND*
X48680000Y-46800000D03*
G04 #@! TO.P,U1,47,DQ11*
G04 #@! TO.N,/PA3*
X48680000Y-46000000D03*
G04 #@! TO.P,U1,48,DQ12*
G04 #@! TO.N,/PA4*
X48680000Y-45200000D03*
G04 #@! TO.P,U1,49,VDDQ*
G04 #@! TO.N,VCC*
X48680000Y-44400000D03*
G04 #@! TO.P,U1,50,DQ13*
G04 #@! TO.N,/PA5*
X48680000Y-43600000D03*
G04 #@! TO.P,U1,51,DQ14*
G04 #@! TO.N,/PA6*
X48680000Y-42800000D03*
G04 #@! TO.P,U1,52,VSSQ*
G04 #@! TO.N,GND*
X48680000Y-42000000D03*
G04 #@! TO.P,U1,53,DQ15*
G04 #@! TO.N,/PA7*
X48680000Y-41200000D03*
G04 #@! TO.P,U1,54,VSS*
G04 #@! TO.N,GND*
X48680000Y-40400000D03*
G04 #@! TD*
D11*
G04 #@! TO.P,J8,1,P0*
G04 #@! TO.N,VCC*
X34320000Y-25400000D03*
D12*
G04 #@! TO.P,J8,2,P1*
X36860000Y-25400000D03*
G04 #@! TO.P,J8,3,P2*
G04 #@! TO.N,GND*
X39400000Y-25400000D03*
G04 #@! TO.P,J8,4,P3*
X41940000Y-25400000D03*
G04 #@! TO.P,J8,5,P4*
X44480000Y-25400000D03*
G04 #@! TD*
D11*
G04 #@! TO.P,J6,1,P0*
G04 #@! TO.N,/PF0*
X34290000Y-30480000D03*
D12*
G04 #@! TO.P,J6,2,P1*
G04 #@! TO.N,/PF1*
X36830000Y-30480000D03*
G04 #@! TO.P,J6,3,P2*
G04 #@! TO.N,/PF2*
X39370000Y-30480000D03*
G04 #@! TO.P,J6,4,P3*
G04 #@! TO.N,/PF3*
X41910000Y-30480000D03*
G04 #@! TO.P,J6,5,P4*
G04 #@! TO.N,/PF4*
X44450000Y-30480000D03*
G04 #@! TO.P,J6,6,P5*
G04 #@! TO.N,/PF5*
X46990000Y-30480000D03*
G04 #@! TO.P,J6,7,P6*
G04 #@! TO.N,/PF6*
X49530000Y-30480000D03*
G04 #@! TO.P,J6,8,P7*
G04 #@! TO.N,/PF7*
X52070000Y-30480000D03*
G04 #@! TD*
D11*
G04 #@! TO.P,J5,1,P0*
G04 #@! TO.N,/PE0*
X27940000Y-30495000D03*
D12*
G04 #@! TO.P,J5,2,P1*
G04 #@! TO.N,/PE1*
X27940000Y-33035000D03*
G04 #@! TO.P,J5,3,P2*
G04 #@! TO.N,/PE2*
X27940000Y-35575000D03*
G04 #@! TO.P,J5,4,P3*
G04 #@! TO.N,/PE3*
X27940000Y-38115000D03*
G04 #@! TO.P,J5,5,P4*
G04 #@! TO.N,/PE4*
X27940000Y-40655000D03*
G04 #@! TO.P,J5,6,P5*
G04 #@! TO.N,/PE5*
X27940000Y-43195000D03*
G04 #@! TO.P,J5,7,P6*
G04 #@! TO.N,/PE6*
X27940000Y-45735000D03*
G04 #@! TO.P,J5,8,P7*
G04 #@! TO.N,/PE7*
X27940000Y-48275000D03*
G04 #@! TD*
D11*
G04 #@! TO.P,J4,1,P0*
G04 #@! TO.N,/PD0*
X34290000Y-73660000D03*
D12*
G04 #@! TO.P,J4,2,P1*
G04 #@! TO.N,/PD1*
X36830000Y-73660000D03*
G04 #@! TO.P,J4,3,P2*
G04 #@! TO.N,/PD2*
X39370000Y-73660000D03*
G04 #@! TO.P,J4,4,P3*
G04 #@! TO.N,/PD3*
X41910000Y-73660000D03*
G04 #@! TO.P,J4,5,P4*
G04 #@! TO.N,/PD4*
X44450000Y-73660000D03*
G04 #@! TO.P,J4,6,P5*
G04 #@! TO.N,/PD5*
X46990000Y-73660000D03*
G04 #@! TO.P,J4,7,P6*
G04 #@! TO.N,/PD6*
X49530000Y-73660000D03*
G04 #@! TO.P,J4,8,P7*
G04 #@! TO.N,/PD7*
X52070000Y-73660000D03*
G04 #@! TD*
D11*
G04 #@! TO.P,J3,1,P0*
G04 #@! TO.N,/PC0*
X58420000Y-50815000D03*
D12*
G04 #@! TO.P,J3,2,P1*
G04 #@! TO.N,/PC1*
X58420000Y-53355000D03*
G04 #@! TO.P,J3,3,P2*
G04 #@! TO.N,/PC2*
X58420000Y-55895000D03*
G04 #@! TO.P,J3,4,P3*
G04 #@! TO.N,/PC3*
X58420000Y-58435000D03*
G04 #@! TO.P,J3,5,P4*
G04 #@! TO.N,/PC4*
X58420000Y-60975000D03*
G04 #@! TO.P,J3,6,P5*
G04 #@! TO.N,/PC5*
X58420000Y-63515000D03*
G04 #@! TO.P,J3,7,P6*
G04 #@! TO.N,/PC6*
X58420000Y-66055000D03*
G04 #@! TO.P,J3,8,P7*
G04 #@! TO.N,/PC7*
X58420000Y-68595000D03*
G04 #@! TD*
D11*
G04 #@! TO.P,J2,1,P0*
G04 #@! TO.N,/PB0*
X27940000Y-53340000D03*
D12*
G04 #@! TO.P,J2,2,P1*
G04 #@! TO.N,/PB1*
X27940000Y-55880000D03*
G04 #@! TO.P,J2,3,P2*
G04 #@! TO.N,/PB2*
X27940000Y-58420000D03*
G04 #@! TO.P,J2,4,P3*
G04 #@! TO.N,/PB3*
X27940000Y-60960000D03*
G04 #@! TO.P,J2,5,P4*
G04 #@! TO.N,/PB4*
X27940000Y-63500000D03*
G04 #@! TO.P,J2,6,P5*
G04 #@! TO.N,/PB5*
X27940000Y-66040000D03*
G04 #@! TO.P,J2,7,P6*
G04 #@! TO.N,/PB6*
X27940000Y-68580000D03*
G04 #@! TO.P,J2,8,P7*
G04 #@! TO.N,/PB7*
X27940000Y-71120000D03*
G04 #@! TD*
D11*
G04 #@! TO.P,J1,1,P0*
G04 #@! TO.N,/PA0*
X58420000Y-27940000D03*
D12*
G04 #@! TO.P,J1,2,P1*
G04 #@! TO.N,/PA1*
X58420000Y-30480000D03*
G04 #@! TO.P,J1,3,P2*
G04 #@! TO.N,/PA2*
X58420000Y-33020000D03*
G04 #@! TO.P,J1,4,P3*
G04 #@! TO.N,/PA3*
X58420000Y-35560000D03*
G04 #@! TO.P,J1,5,P4*
G04 #@! TO.N,/PA4*
X58420000Y-38100000D03*
G04 #@! TO.P,J1,6,P5*
G04 #@! TO.N,/PA5*
X58420000Y-40640000D03*
G04 #@! TO.P,J1,7,P6*
G04 #@! TO.N,/PA6*
X58420000Y-43180000D03*
G04 #@! TO.P,J1,8,P7*
G04 #@! TO.N,/PA7*
X58420000Y-45720000D03*
G04 #@! TD*
D13*
G04 #@! TO.P,C3,1*
G04 #@! TO.N,VCC*
X39823242Y-67945620D03*
G04 #@! TO.P,C3,2*
G04 #@! TO.N,GND*
X44823242Y-67945620D03*
G04 #@! TD*
G04 #@! TO.P,C2,1*
G04 #@! TO.N,VCC*
X48340000Y-25400000D03*
G04 #@! TO.P,C2,2*
G04 #@! TO.N,GND*
X53340000Y-25400000D03*
G04 #@! TD*
D14*
G04 #@! TO.N,GND*
X50720907Y-38784698D03*
X53801514Y-36454152D03*
X55712383Y-31022283D03*
G04 #@! TO.N,/PA1*
X53143109Y-38100000D03*
G04 #@! TO.N,/PA2*
X52540500Y-39370000D03*
G04 #@! TO.N,/PA3*
X51940500Y-40640000D03*
G04 #@! TO.N,GND*
X33705823Y-67368931D03*
X44072735Y-60660173D03*
X44715644Y-54033385D03*
X51144737Y-51689445D03*
X53301473Y-48977667D03*
X55381999Y-46557828D03*
G04 #@! TO.N,VCC*
X46706523Y-45979360D03*
X46990000Y-49200000D03*
G04 #@! TO.N,GND*
X53756556Y-27513913D03*
X48640070Y-28103246D03*
X46590796Y-23838079D03*
X33504914Y-27954306D03*
X36183702Y-39471490D03*
X38983036Y-37328459D03*
X36223884Y-35828337D03*
X29660852Y-39377732D03*
X34268368Y-45174095D03*
X32795035Y-43365913D03*
X29781397Y-51928929D03*
X29714428Y-59822247D03*
X26941881Y-50910989D03*
X33156671Y-54092854D03*
X34830914Y-50074671D03*
X32969156Y-48689202D03*
X41501098Y-48629733D03*
X36411399Y-44399000D03*
G04 #@! TO.N,VCC*
X36830000Y-41999500D03*
X31160973Y-46769582D03*
X38395937Y-39370000D03*
X31136420Y-38035750D03*
G04 #@! TO.N,GND*
X44441070Y-47777969D03*
X45720000Y-50800000D03*
X45465705Y-45168202D03*
X44551316Y-41428010D03*
X46329362Y-38715736D03*
X59077048Y-24327426D03*
X55942865Y-24478108D03*
X28368084Y-26708200D03*
X29814630Y-24237017D03*
X26981811Y-24297290D03*
X48348499Y-36502521D03*
X51211455Y-33850520D03*
X39277451Y-32645065D03*
G04 #@! TO.N,/PA7*
X54742109Y-41910000D03*
X51340500Y-41910000D03*
G04 #@! TO.N,/PA6*
X50706848Y-42800000D03*
X55221898Y-43235137D03*
G04 #@! TO.N,/PA5*
X55821898Y-41001135D03*
X51340500Y-44068390D03*
G04 #@! TO.N,/PA4*
X51340500Y-45067893D03*
G04 #@! TO.N,/PF2*
X34708907Y-40400500D03*
X35210898Y-43599500D03*
G04 #@! TO.N,/PF1*
X34025816Y-42257487D03*
X33680360Y-39839505D03*
G04 #@! TO.N,GND*
X42088970Y-54314715D03*
X46428608Y-54502230D03*
G04 #@! TO.N,/PE7*
X40640000Y-51599500D03*
X35560000Y-52399500D03*
G04 #@! TO.N,GND*
X55750792Y-51150529D03*
X54103337Y-53025682D03*
X59648430Y-48364589D03*
X53701519Y-66326939D03*
G04 #@! TO.N,/PC6*
X55393292Y-65599380D03*
G04 #@! TO.N,GND*
X54545337Y-62015696D03*
X55469520Y-63402773D03*
X59921760Y-71933172D03*
X58094611Y-74414895D03*
X53580973Y-68898576D03*
X42745273Y-59009560D03*
X46093759Y-60884712D03*
X44740971Y-63340090D03*
X48410911Y-63447241D03*
X47848244Y-67744711D03*
X54538519Y-72787531D03*
X44446304Y-70839091D03*
X30985391Y-71857030D03*
X33503452Y-70142606D03*
X29029875Y-73946485D03*
X26846662Y-75379637D03*
X31266664Y-75500183D03*
X38100000Y-69850000D03*
X39517333Y-71008926D03*
X40722788Y-65517409D03*
X40682606Y-62798438D03*
X37465000Y-67945000D03*
G04 #@! TO.N,VCC*
X38510863Y-62230000D03*
G04 #@! TO.N,/PD2*
X42709500Y-70319233D03*
G04 #@! TO.N,/PC5*
X44399322Y-56400500D03*
G04 #@! TO.N,/PC4*
X45529289Y-56400500D03*
G04 #@! TO.N,/PC2*
X46399896Y-57275140D03*
G04 #@! TO.N,/PC0*
X51807564Y-57207508D03*
G04 #@! TO.N,/PC1*
X51807564Y-55880000D03*
G04 #@! TO.N,/PC3*
X54139500Y-55880000D03*
X51221715Y-54892625D03*
G04 #@! TD*
D15*
G04 #@! TO.N,VCC*
X38510863Y-66633241D02*
X39823242Y-67945620D01*
X38510863Y-62230000D02*
X38510863Y-66633241D01*
D16*
G04 #@! TO.N,/PE7*
X41440500Y-52400000D02*
X48680000Y-52400000D01*
X40640000Y-51599500D02*
X41440500Y-52400000D01*
G04 #@! TO.N,/PA0*
X53942109Y-46237891D02*
X50180000Y-50000000D01*
X53942109Y-41578629D02*
X53942109Y-46237891D01*
X56962484Y-38558254D02*
X53942109Y-41578629D01*
X56962484Y-29397516D02*
X56962484Y-38558254D01*
X50180000Y-50000000D02*
X48680000Y-50000000D01*
X58420000Y-27940000D02*
X56962484Y-29397516D01*
G04 #@! TO.N,/PA1*
X53340500Y-38297391D02*
X53143109Y-38100000D01*
X50884980Y-48400000D02*
X53340500Y-45944480D01*
X48680000Y-48400000D02*
X50884980Y-48400000D01*
X53340500Y-45944480D02*
X53340500Y-38297391D01*
G04 #@! TO.N,/PA2*
X52740000Y-39569500D02*
X52540500Y-39370000D01*
X52740000Y-45696452D02*
X52740000Y-39569500D01*
X50836452Y-47600000D02*
X52740000Y-45696452D01*
X48680000Y-47600000D02*
X50836452Y-47600000D01*
G04 #@! TO.N,/PA3*
X52140000Y-40839500D02*
X51940500Y-40640000D01*
X52140000Y-45447924D02*
X52140000Y-40839500D01*
G04 #@! TO.N,GND*
X46338292Y-40400000D02*
X46329362Y-40391070D01*
X48680000Y-40400000D02*
X46338292Y-40400000D01*
X46329362Y-40391070D02*
X46329362Y-38715736D01*
X46329362Y-41149362D02*
X46329362Y-40391070D01*
X46409047Y-61200000D02*
X46093759Y-60884712D01*
X48680000Y-61200000D02*
X46409047Y-61200000D01*
G04 #@! TO.N,/PA6*
X50706848Y-42800000D02*
X48680000Y-42800000D01*
G04 #@! TO.N,/PC4*
X45529289Y-56065652D02*
X45529289Y-56400500D01*
X43718667Y-55299758D02*
X44763395Y-55299758D01*
X43418425Y-55600000D02*
X43718667Y-55299758D01*
X44763395Y-55299758D02*
X45529289Y-56065652D01*
X38520000Y-55600000D02*
X43418425Y-55600000D01*
G04 #@! TO.N,VCC*
X47180000Y-44400000D02*
X48680000Y-44400000D01*
X46706523Y-45979360D02*
X46980498Y-45705385D01*
X46980498Y-45705385D02*
X46980498Y-44599502D01*
X46980498Y-44599502D02*
X47180000Y-44400000D01*
X46990000Y-49200000D02*
X48680000Y-49200000D01*
X44920979Y-49200000D02*
X46990000Y-49200000D01*
X36668100Y-46800000D02*
X38520000Y-46800000D01*
X36654050Y-46814050D02*
X36668100Y-46800000D01*
X36639096Y-46814050D02*
X36654050Y-46814050D01*
X36767591Y-50800000D02*
X38520000Y-50800000D01*
D15*
X36639096Y-50499091D02*
X36652490Y-50512485D01*
X36639096Y-46814050D02*
X36639096Y-50499091D01*
D16*
X36652490Y-50684899D02*
X36767591Y-50800000D01*
D15*
X36594628Y-46769582D02*
X36639096Y-46814050D01*
X36652490Y-50512485D02*
X36652490Y-50684899D01*
X31160973Y-46769582D02*
X36594628Y-46769582D01*
D16*
G04 #@! TO.N,/PF2*
X38018951Y-31831049D02*
X39370000Y-30480000D01*
X36773035Y-31831049D02*
X38018951Y-31831049D01*
X33913210Y-34690874D02*
X36773035Y-31831049D01*
X33913210Y-38507710D02*
X33913210Y-34690874D01*
X34708907Y-39303407D02*
X33913210Y-38507710D01*
X34708907Y-40400500D02*
X34708907Y-39303407D01*
G04 #@! TO.N,/PF7*
X47783880Y-32929352D02*
X49620648Y-32929352D01*
X49620648Y-32929352D02*
X52070000Y-30480000D01*
X42895091Y-37818141D02*
X47783880Y-32929352D01*
X42895091Y-49218043D02*
X42895091Y-37818141D01*
X42113134Y-50000000D02*
X42895091Y-49218043D01*
X38520000Y-50000000D02*
X42113134Y-50000000D01*
G04 #@! TO.N,/PF6*
X48479342Y-32165897D02*
X49530000Y-31115239D01*
X46925645Y-32165897D02*
X48479342Y-32165897D01*
X42295091Y-46173437D02*
X42295091Y-36796451D01*
X42295091Y-36796451D02*
X46925645Y-32165897D01*
X40068528Y-48400000D02*
X42295091Y-46173437D01*
X38520000Y-48400000D02*
X40068528Y-48400000D01*
X49530000Y-31115239D02*
X49530000Y-30480000D01*
D15*
G04 #@! TO.N,VCC*
X46711342Y-27534807D02*
X48340000Y-25906149D01*
X37737400Y-27534807D02*
X46711342Y-27534807D01*
X48340000Y-25906149D02*
X48340000Y-25400000D01*
X36860000Y-25400000D02*
X36860000Y-26657407D01*
X36860000Y-26657407D02*
X37737400Y-27534807D01*
D16*
G04 #@! TO.N,GND*
X48680000Y-42000000D02*
X47180000Y-42000000D01*
X47180000Y-42000000D02*
X46329362Y-41149362D01*
X40930831Y-49200000D02*
X41501098Y-48629733D01*
X38520000Y-49200000D02*
X40930831Y-49200000D01*
X36412399Y-44400000D02*
X36411399Y-44399000D01*
X38520000Y-44400000D02*
X36412399Y-44400000D01*
G04 #@! TO.N,VCC*
X38519500Y-41999500D02*
X38520000Y-42000000D01*
X36830000Y-41999500D02*
X38519500Y-41999500D01*
D15*
X31136420Y-46745029D02*
X31160973Y-46769582D01*
X31136420Y-38035750D02*
X31136420Y-46745029D01*
D16*
X38510863Y-61209137D02*
X38520000Y-61200000D01*
X38510863Y-62230000D02*
X38510863Y-61209137D01*
X38395937Y-40275937D02*
X38520000Y-40400000D01*
X38395937Y-39370000D02*
X38395937Y-40275937D01*
D15*
X31136420Y-27761345D02*
X31136420Y-38035750D01*
X33497765Y-25400000D02*
X31136420Y-27761345D01*
X34320000Y-25400000D02*
X33497765Y-25400000D01*
X36860000Y-25400000D02*
X34320000Y-25400000D01*
D16*
G04 #@! TO.N,GND*
X45720000Y-50800000D02*
X48680000Y-50800000D01*
X45419039Y-46800000D02*
X48680000Y-46800000D01*
X44441070Y-47777969D02*
X45419039Y-46800000D01*
G04 #@! TO.N,VCC*
X43320979Y-50800000D02*
X44920979Y-49200000D01*
X38520000Y-50800000D02*
X43320979Y-50800000D01*
G04 #@! TO.N,/PA7*
X59690000Y-42682233D02*
X59690000Y-44450000D01*
X54742109Y-41910000D02*
X58917767Y-41910000D01*
X50630500Y-41200000D02*
X51340500Y-41910000D01*
X58917767Y-41910000D02*
X59690000Y-42682233D01*
X48680000Y-41200000D02*
X50630500Y-41200000D01*
X59690000Y-44450000D02*
X58420000Y-45720000D01*
G04 #@! TO.N,/PA6*
X58364863Y-43235137D02*
X58420000Y-43180000D01*
X55221898Y-43235137D02*
X58364863Y-43235137D01*
G04 #@! TO.N,/PA5*
X56183033Y-40640000D02*
X58420000Y-40640000D01*
X55821898Y-41001135D02*
X56183033Y-40640000D01*
X50872110Y-43600000D02*
X51340500Y-44068390D01*
X48680000Y-43600000D02*
X50872110Y-43600000D01*
G04 #@! TO.N,/PA4*
X51208393Y-45200000D02*
X51340500Y-45067893D01*
X48680000Y-45200000D02*
X51208393Y-45200000D01*
G04 #@! TO.N,/PA3*
X51587924Y-46000000D02*
X52140000Y-45447924D01*
X48680000Y-46000000D02*
X51587924Y-46000000D01*
G04 #@! TO.N,/PF5*
X41695091Y-45924909D02*
X40020000Y-47600000D01*
X41695091Y-35774909D02*
X41695091Y-45924909D01*
X46990000Y-30480000D02*
X41695091Y-35774909D01*
X40020000Y-47600000D02*
X38520000Y-47600000D01*
G04 #@! TO.N,/PF4*
X41095091Y-44973437D02*
X40068528Y-46000000D01*
X41095091Y-33834909D02*
X41095091Y-44973437D01*
X40068528Y-46000000D02*
X38520000Y-46000000D01*
X44450000Y-30480000D02*
X41095091Y-33834909D01*
G04 #@! TO.N,/PF3*
X40495091Y-44724909D02*
X40020000Y-45200000D01*
X40495091Y-31894909D02*
X40495091Y-44724909D01*
X41910000Y-30480000D02*
X40495091Y-31894909D01*
X40020000Y-45200000D02*
X38520000Y-45200000D01*
G04 #@! TO.N,/PF2*
X38519500Y-43599500D02*
X38520000Y-43600000D01*
X35210898Y-43599500D02*
X38519500Y-43599500D01*
G04 #@! TO.N,/PF1*
X34568329Y-42800000D02*
X38520000Y-42800000D01*
X34025816Y-42257487D02*
X34568329Y-42800000D01*
X33313210Y-36830000D02*
X33313210Y-39472355D01*
X33313210Y-39472355D02*
X33680360Y-39839505D01*
X33313210Y-33996790D02*
X33313210Y-36830000D01*
X36830000Y-30480000D02*
X33313210Y-33996790D01*
G04 #@! TO.N,/PF0*
X33910191Y-41200000D02*
X38520000Y-41200000D01*
X32713210Y-40003019D02*
X33910191Y-41200000D01*
X32722984Y-32047016D02*
X32713210Y-32047016D01*
X34290000Y-30480000D02*
X32722984Y-32047016D01*
X32713210Y-32047016D02*
X32713210Y-40003019D01*
G04 #@! TO.N,/PE7*
X32064500Y-52399500D02*
X35560000Y-52399500D01*
X27940000Y-48275000D02*
X32064500Y-52399500D01*
G04 #@! TO.N,/PE6*
X33805000Y-51600000D02*
X38520000Y-51600000D01*
X27940000Y-45735000D02*
X33805000Y-51600000D01*
G04 #@! TO.N,/PB4*
X36874416Y-52400000D02*
X38520000Y-52400000D01*
X33160000Y-56114416D02*
X36874416Y-52400000D01*
X33160000Y-58280000D02*
X33160000Y-56114416D01*
X27940000Y-63500000D02*
X33160000Y-58280000D01*
G04 #@! TO.N,/PB5*
X36922944Y-53200000D02*
X38520000Y-53200000D01*
X33760000Y-56362944D02*
X36922944Y-53200000D01*
X27940000Y-66040000D02*
X33760000Y-60220000D01*
X33760000Y-60220000D02*
X33760000Y-56362944D01*
G04 #@! TO.N,/PB6*
X36971472Y-54000000D02*
X38520000Y-54000000D01*
X34360000Y-62160000D02*
X34360000Y-56611472D01*
X27940000Y-68580000D02*
X34360000Y-62160000D01*
X34360000Y-56611472D02*
X36971472Y-54000000D01*
G04 #@! TO.N,/PB7*
X37020000Y-54800000D02*
X38520000Y-54800000D01*
X34960000Y-64100000D02*
X34960000Y-56860000D01*
X34960000Y-56860000D02*
X37020000Y-54800000D01*
X27940000Y-71120000D02*
X34960000Y-64100000D01*
G04 #@! TO.N,/PC6*
X54526449Y-64439601D02*
X55393292Y-65306444D01*
X52607064Y-62520216D02*
X54526449Y-64439601D01*
X55393292Y-65306444D02*
X55393292Y-65599380D01*
X52607064Y-54725592D02*
X52607064Y-62520216D01*
G04 #@! TO.N,/PC7*
X56192792Y-66367792D02*
X58420000Y-68595000D01*
X56192792Y-65257416D02*
X56192792Y-66367792D01*
X53340000Y-54610000D02*
X53340000Y-62404624D01*
X51930000Y-53200000D02*
X53340000Y-54610000D01*
X53340000Y-62404624D02*
X56192792Y-65257416D01*
X48680000Y-53200000D02*
X51930000Y-53200000D01*
G04 #@! TO.N,/PD2*
X42709500Y-62180972D02*
X42709500Y-70319233D01*
X40128528Y-59600000D02*
X42709500Y-62180972D01*
X38520000Y-59600000D02*
X40128528Y-59600000D01*
G04 #@! TO.N,/PD3*
X41910000Y-62230000D02*
X41910000Y-73660000D01*
X40080000Y-60400000D02*
X41910000Y-62230000D01*
X38520000Y-60400000D02*
X40080000Y-60400000D01*
G04 #@! TO.N,/PD1*
X36160000Y-72990000D02*
X36830000Y-73660000D01*
X36160000Y-59810000D02*
X36160000Y-72990000D01*
X37170000Y-58800000D02*
X36160000Y-59810000D01*
X38520000Y-58800000D02*
X37170000Y-58800000D01*
G04 #@! TO.N,/PD0*
X35560000Y-71120000D02*
X34290000Y-72390000D01*
X35560000Y-59460000D02*
X35560000Y-71120000D01*
X34290000Y-72390000D02*
X34290000Y-73660000D01*
X37020000Y-58000000D02*
X35560000Y-59460000D01*
X38520000Y-58000000D02*
X37020000Y-58000000D01*
G04 #@! TO.N,/PD4*
X50190382Y-67919618D02*
X44450000Y-73660000D01*
X50030000Y-60400000D02*
X50190382Y-60560382D01*
X48680000Y-60400000D02*
X50030000Y-60400000D01*
X50190382Y-60560382D02*
X50190382Y-67919618D01*
G04 #@! TO.N,/PD5*
X50807064Y-69842936D02*
X46990000Y-73660000D01*
X50807064Y-59959822D02*
X50807064Y-69842936D01*
X50447242Y-59600000D02*
X50807064Y-59959822D01*
X48680000Y-59600000D02*
X50447242Y-59600000D01*
G04 #@! TO.N,/PD6*
X51407064Y-59113836D02*
X51407064Y-71782936D01*
X51407064Y-71782936D02*
X49530000Y-73660000D01*
X51093228Y-58800000D02*
X51407064Y-59113836D01*
X48680000Y-58800000D02*
X51093228Y-58800000D01*
G04 #@! TO.N,/PD7*
X48680000Y-58000000D02*
X51651909Y-58000000D01*
X51651909Y-58000000D02*
X52007064Y-58355155D01*
X52007064Y-58355155D02*
X52007064Y-73597064D01*
X52007064Y-73597064D02*
X52070000Y-73660000D01*
G04 #@! TO.N,/PC5*
X44398822Y-56400000D02*
X38520000Y-56400000D01*
X44399322Y-56400500D02*
X44398822Y-56400000D01*
G04 #@! TO.N,/PC2*
X46324756Y-57200000D02*
X38520000Y-57200000D01*
X46399896Y-57275140D02*
X46324756Y-57200000D01*
G04 #@! TO.N,/PC0*
X51800056Y-57200000D02*
X51807564Y-57207508D01*
X48680000Y-57200000D02*
X51800056Y-57200000D01*
G04 #@! TO.N,/PC1*
X51287564Y-56400000D02*
X51807564Y-55880000D01*
X48680000Y-56400000D02*
X51287564Y-56400000D01*
G04 #@! TO.N,/PC3*
X56694500Y-58435000D02*
X58420000Y-58435000D01*
X54139500Y-55880000D02*
X56694500Y-58435000D01*
X50514340Y-55600000D02*
X51221715Y-54892625D01*
X48680000Y-55600000D02*
X50514340Y-55600000D01*
G04 #@! TO.N,/PC6*
X51881472Y-54000000D02*
X52607064Y-54725592D01*
X48680000Y-54000000D02*
X51881472Y-54000000D01*
G04 #@! TD*
G04 #@! TA.AperFunction,Conductor*
G04 #@! TO.N,GND*
G36*
X37058811Y-61804819D02*
G01*
X37177664Y-61893793D01*
X37177671Y-61893797D01*
X37205255Y-61904085D01*
X37312517Y-61944091D01*
X37372127Y-61950500D01*
X37394815Y-61950499D01*
X37461853Y-61970181D01*
X37507610Y-62022983D01*
X37517557Y-62092141D01*
X37516281Y-62099455D01*
X37510363Y-62128258D01*
X37510363Y-66620524D01*
X37508106Y-66709603D01*
X37508106Y-66709611D01*
X37518927Y-66769980D01*
X37519581Y-66774645D01*
X37525788Y-66835671D01*
X37525790Y-66835685D01*
X37536071Y-66868454D01*
X37537942Y-66876078D01*
X37544005Y-66909893D01*
X37544005Y-66909896D01*
X37566757Y-66966853D01*
X37568337Y-66971292D01*
X37586704Y-67029829D01*
X37586707Y-67029836D01*
X37603372Y-67059860D01*
X37606742Y-67066955D01*
X37619485Y-67098855D01*
X37619490Y-67098865D01*
X37653240Y-67150074D01*
X37655681Y-67154104D01*
X37685451Y-67207739D01*
X37685452Y-67207740D01*
X37685454Y-67207743D01*
X37707831Y-67233808D01*
X37712556Y-67240076D01*
X37725126Y-67259147D01*
X37731461Y-67268760D01*
X37774841Y-67312140D01*
X37778032Y-67315584D01*
X37817994Y-67362133D01*
X37817993Y-67362133D01*
X37845162Y-67383164D01*
X37851049Y-67388348D01*
X38181629Y-67718928D01*
X38496353Y-68033652D01*
X38529838Y-68094975D01*
X38532200Y-68110523D01*
X38537606Y-68172308D01*
X38537608Y-68172317D01*
X38596500Y-68392108D01*
X38596503Y-68392117D01*
X38692673Y-68598352D01*
X38692674Y-68598354D01*
X38823196Y-68784761D01*
X38984100Y-68945665D01*
X38984103Y-68945667D01*
X39170508Y-69076188D01*
X39376746Y-69172359D01*
X39376751Y-69172360D01*
X39376753Y-69172361D01*
X39429657Y-69186536D01*
X39596550Y-69231255D01*
X39758472Y-69245421D01*
X39823240Y-69251088D01*
X39823242Y-69251088D01*
X39823244Y-69251088D01*
X39879914Y-69246129D01*
X40049934Y-69231255D01*
X40269738Y-69172359D01*
X40475976Y-69076188D01*
X40662381Y-68945667D01*
X40823289Y-68784759D01*
X40953810Y-68598354D01*
X40973118Y-68556947D01*
X41019290Y-68504508D01*
X41086483Y-68485356D01*
X41153365Y-68505572D01*
X41198699Y-68558737D01*
X41209500Y-68609352D01*
X41209500Y-72437288D01*
X41189815Y-72504327D01*
X41156624Y-72538863D01*
X41038594Y-72621508D01*
X40871505Y-72788597D01*
X40741575Y-72974158D01*
X40686998Y-73017783D01*
X40617500Y-73024977D01*
X40555145Y-72993454D01*
X40538425Y-72974158D01*
X40408494Y-72788597D01*
X40241402Y-72621506D01*
X40241395Y-72621501D01*
X40047834Y-72485967D01*
X40047830Y-72485965D01*
X40025729Y-72475659D01*
X39833663Y-72386097D01*
X39833659Y-72386096D01*
X39833655Y-72386094D01*
X39605413Y-72324938D01*
X39605403Y-72324936D01*
X39370001Y-72304341D01*
X39369999Y-72304341D01*
X39134596Y-72324936D01*
X39134586Y-72324938D01*
X38906344Y-72386094D01*
X38906335Y-72386098D01*
X38692171Y-72485964D01*
X38692169Y-72485965D01*
X38498597Y-72621505D01*
X38331505Y-72788597D01*
X38201575Y-72974158D01*
X38146998Y-73017783D01*
X38077500Y-73024977D01*
X38015145Y-72993454D01*
X37998425Y-72974158D01*
X37868494Y-72788597D01*
X37701402Y-72621506D01*
X37701395Y-72621501D01*
X37507834Y-72485967D01*
X37507830Y-72485965D01*
X37485729Y-72475659D01*
X37293663Y-72386097D01*
X37293659Y-72386096D01*
X37293655Y-72386094D01*
X37065413Y-72324938D01*
X37065403Y-72324936D01*
X36973691Y-72316912D01*
X36908623Y-72291459D01*
X36867645Y-72234867D01*
X36860500Y-72193384D01*
X36860500Y-61904085D01*
X36880185Y-61837046D01*
X36932989Y-61791291D01*
X37002147Y-61781347D01*
X37058811Y-61804819D01*
G37*
G04 #@! TD.AperFunction*
G04 #@! TA.AperFunction,Conductor*
G36*
X45763061Y-57920185D02*
G01*
X45788170Y-57941526D01*
X45794023Y-57948026D01*
X45794031Y-57948033D01*
X45947161Y-58059288D01*
X45947166Y-58059291D01*
X46120088Y-58136282D01*
X46120093Y-58136284D01*
X46305250Y-58175640D01*
X46305251Y-58175640D01*
X46494540Y-58175640D01*
X46494542Y-58175640D01*
X46679699Y-58136284D01*
X46852626Y-58059291D01*
X46882614Y-58037503D01*
X46948418Y-58014022D01*
X47016472Y-58029846D01*
X47065168Y-58079951D01*
X47079500Y-58137819D01*
X47079500Y-58297869D01*
X47079501Y-58297876D01*
X47085908Y-58357479D01*
X47087692Y-58365026D01*
X47086229Y-58365371D01*
X47090585Y-58426371D01*
X47086173Y-58441396D01*
X47085908Y-58442517D01*
X47079501Y-58502117D01*
X47079501Y-58502123D01*
X47079500Y-58502136D01*
X47079500Y-59097870D01*
X47079501Y-59097876D01*
X47085908Y-59157479D01*
X47087692Y-59165026D01*
X47086229Y-59165371D01*
X47090585Y-59226371D01*
X47086173Y-59241396D01*
X47085908Y-59242517D01*
X47079501Y-59302117D01*
X47079500Y-59302136D01*
X47079500Y-59897870D01*
X47079501Y-59897876D01*
X47085908Y-59957479D01*
X47087692Y-59965026D01*
X47086229Y-59965371D01*
X47090585Y-60026371D01*
X47086173Y-60041396D01*
X47085908Y-60042517D01*
X47079501Y-60102117D01*
X47079500Y-60102136D01*
X47079500Y-60697870D01*
X47079501Y-60697876D01*
X47085909Y-60757487D01*
X47087692Y-60765031D01*
X47086438Y-60765327D01*
X47090856Y-60827069D01*
X47086864Y-60840664D01*
X47086401Y-60842624D01*
X47080000Y-60902155D01*
X47080000Y-61497844D01*
X47086401Y-61557372D01*
X47086403Y-61557379D01*
X47136645Y-61692086D01*
X47136649Y-61692093D01*
X47222809Y-61807187D01*
X47222812Y-61807190D01*
X47337906Y-61893350D01*
X47337913Y-61893354D01*
X47472620Y-61943596D01*
X47472627Y-61943598D01*
X47532155Y-61949999D01*
X47532172Y-61950000D01*
X47576447Y-61950000D01*
X47576447Y-61949999D01*
X48339628Y-61186818D01*
X48400951Y-61153333D01*
X48427303Y-61150499D01*
X48783693Y-61150499D01*
X48850731Y-61170184D01*
X48896486Y-61222988D01*
X48906430Y-61292146D01*
X48877405Y-61355702D01*
X48871373Y-61362180D01*
X48283553Y-61949999D01*
X48283554Y-61950000D01*
X49365882Y-61950000D01*
X49432921Y-61969685D01*
X49478676Y-62022489D01*
X49489882Y-62074000D01*
X49489882Y-67578098D01*
X49470197Y-67645137D01*
X49453563Y-67665779D01*
X44821994Y-72297347D01*
X44760671Y-72330832D01*
X44702225Y-72329442D01*
X44685410Y-72324937D01*
X44450001Y-72304341D01*
X44449999Y-72304341D01*
X44214596Y-72324936D01*
X44214586Y-72324938D01*
X43986344Y-72386094D01*
X43986335Y-72386098D01*
X43772171Y-72485964D01*
X43772169Y-72485965D01*
X43578597Y-72621505D01*
X43411505Y-72788597D01*
X43281575Y-72974158D01*
X43226998Y-73017783D01*
X43157500Y-73024977D01*
X43095145Y-72993454D01*
X43078425Y-72974158D01*
X42948494Y-72788597D01*
X42781404Y-72621508D01*
X42781402Y-72621506D01*
X42781401Y-72621505D01*
X42781396Y-72621501D01*
X42781393Y-72621499D01*
X42663376Y-72538861D01*
X42619751Y-72484284D01*
X42610500Y-72437287D01*
X42610500Y-71343733D01*
X42630185Y-71276694D01*
X42682989Y-71230939D01*
X42734500Y-71219733D01*
X42804144Y-71219733D01*
X42804146Y-71219733D01*
X42989303Y-71180377D01*
X43162230Y-71103384D01*
X43315371Y-70992121D01*
X43442033Y-70851449D01*
X43536679Y-70687517D01*
X43595174Y-70507489D01*
X43614960Y-70319233D01*
X43595174Y-70130977D01*
X43536679Y-69950949D01*
X43442033Y-69787017D01*
X43441844Y-69786807D01*
X43441773Y-69786660D01*
X43438214Y-69781761D01*
X43439110Y-69781109D01*
X43411619Y-69723813D01*
X43410000Y-69703841D01*
X43410000Y-68550303D01*
X43429685Y-68483264D01*
X43482489Y-68437509D01*
X43551647Y-68427565D01*
X43615203Y-68456590D01*
X43646382Y-68497898D01*
X43693107Y-68598101D01*
X43693108Y-68598103D01*
X43744215Y-68671091D01*
X43744215Y-68671092D01*
X44285822Y-68129485D01*
X44347145Y-68096000D01*
X44416836Y-68100984D01*
X44472770Y-68142855D01*
X44483984Y-68160866D01*
X44489769Y-68172219D01*
X44495600Y-68183664D01*
X44495605Y-68183670D01*
X44585191Y-68273256D01*
X44585193Y-68273257D01*
X44585197Y-68273261D01*
X44607989Y-68284874D01*
X44658784Y-68332848D01*
X44675579Y-68400669D01*
X44653041Y-68466804D01*
X44639374Y-68483039D01*
X44097768Y-69024645D01*
X44097768Y-69024646D01*
X44170754Y-69075751D01*
X44170758Y-69075753D01*
X44376915Y-69171885D01*
X44376924Y-69171889D01*
X44596631Y-69230759D01*
X44596642Y-69230761D01*
X44823240Y-69250586D01*
X44823244Y-69250586D01*
X45049841Y-69230761D01*
X45049852Y-69230759D01*
X45269559Y-69171889D01*
X45269573Y-69171884D01*
X45475720Y-69075756D01*
X45548714Y-69024645D01*
X45007108Y-68483039D01*
X44973623Y-68421716D01*
X44978607Y-68352024D01*
X45020479Y-68296091D01*
X45038487Y-68284878D01*
X45061287Y-68273261D01*
X45150883Y-68183665D01*
X45162496Y-68160872D01*
X45210467Y-68110078D01*
X45278288Y-68093281D01*
X45344423Y-68115817D01*
X45360661Y-68129486D01*
X45902267Y-68671092D01*
X45953378Y-68598098D01*
X46049506Y-68391951D01*
X46049511Y-68391937D01*
X46108381Y-68172230D01*
X46108383Y-68172219D01*
X46128208Y-67945622D01*
X46128208Y-67945617D01*
X46108383Y-67719020D01*
X46108381Y-67719009D01*
X46049511Y-67499302D01*
X46049507Y-67499293D01*
X45953375Y-67293136D01*
X45953373Y-67293132D01*
X45902268Y-67220146D01*
X45902267Y-67220146D01*
X45360661Y-67761752D01*
X45299338Y-67795237D01*
X45229646Y-67790253D01*
X45173713Y-67748381D01*
X45162498Y-67730371D01*
X45150883Y-67707575D01*
X45150879Y-67707571D01*
X45150878Y-67707569D01*
X45061292Y-67617983D01*
X45061286Y-67617978D01*
X45051351Y-67612916D01*
X45038492Y-67606364D01*
X44987698Y-67558393D01*
X44970902Y-67490572D01*
X44993439Y-67424437D01*
X45007107Y-67408200D01*
X45548714Y-66866593D01*
X45475725Y-66815486D01*
X45475723Y-66815485D01*
X45269568Y-66719354D01*
X45269559Y-66719350D01*
X45049852Y-66660480D01*
X45049841Y-66660478D01*
X44823244Y-66640654D01*
X44823240Y-66640654D01*
X44596642Y-66660478D01*
X44596631Y-66660480D01*
X44376924Y-66719350D01*
X44376915Y-66719354D01*
X44170755Y-66815488D01*
X44097768Y-66866593D01*
X44639375Y-67408200D01*
X44672860Y-67469523D01*
X44667876Y-67539215D01*
X44626004Y-67595148D01*
X44607990Y-67606365D01*
X44585198Y-67617978D01*
X44585191Y-67617983D01*
X44495605Y-67707569D01*
X44495600Y-67707576D01*
X44483987Y-67730368D01*
X44436012Y-67781164D01*
X44368191Y-67797958D01*
X44302056Y-67775420D01*
X44285822Y-67761753D01*
X43744215Y-67220146D01*
X43693110Y-67293133D01*
X43646382Y-67393341D01*
X43600209Y-67445780D01*
X43533016Y-67464932D01*
X43466135Y-67444716D01*
X43420800Y-67391551D01*
X43410000Y-67340936D01*
X43410000Y-62204019D01*
X43410113Y-62200274D01*
X43413858Y-62138366D01*
X43402675Y-62077343D01*
X43402113Y-62073646D01*
X43395901Y-62022489D01*
X43394640Y-62012100D01*
X43391048Y-62002628D01*
X43385021Y-61981006D01*
X43383195Y-61971043D01*
X43383195Y-61971041D01*
X43357724Y-61914448D01*
X43356317Y-61911051D01*
X43334318Y-61853042D01*
X43334316Y-61853040D01*
X43334316Y-61853038D01*
X43328562Y-61844703D01*
X43317534Y-61825149D01*
X43313381Y-61815921D01*
X43313378Y-61815917D01*
X43313378Y-61815916D01*
X43275126Y-61767092D01*
X43272916Y-61764087D01*
X43270511Y-61760603D01*
X43237683Y-61713043D01*
X43191242Y-61671900D01*
X43188548Y-61669364D01*
X40640126Y-59120941D01*
X40637592Y-59118250D01*
X40596457Y-59071817D01*
X40596456Y-59071816D01*
X40596452Y-59071812D01*
X40545424Y-59036591D01*
X40542415Y-59034377D01*
X40493588Y-58996124D01*
X40493583Y-58996120D01*
X40484341Y-58991961D01*
X40464794Y-58980936D01*
X40456459Y-58975183D01*
X40456460Y-58975183D01*
X40456458Y-58975182D01*
X40398469Y-58953189D01*
X40395018Y-58951759D01*
X40338458Y-58926304D01*
X40328474Y-58924474D01*
X40306871Y-58918451D01*
X40297402Y-58914860D01*
X40297398Y-58914859D01*
X40235842Y-58907384D01*
X40232142Y-58906821D01*
X40222153Y-58904991D01*
X40159758Y-58873547D01*
X40124268Y-58813362D01*
X40120499Y-58783021D01*
X40120499Y-58502129D01*
X40120498Y-58502123D01*
X40120498Y-58502117D01*
X40114091Y-58442517D01*
X40114090Y-58442515D01*
X40114090Y-58442512D01*
X40112308Y-58434969D01*
X40113773Y-58434622D01*
X40109409Y-58373651D01*
X40113819Y-58358633D01*
X40114089Y-58357488D01*
X40114088Y-58357488D01*
X40114091Y-58357483D01*
X40120500Y-58297873D01*
X40120499Y-58024498D01*
X40140183Y-57957461D01*
X40192987Y-57911706D01*
X40244499Y-57900500D01*
X45696022Y-57900500D01*
X45763061Y-57920185D01*
G37*
G04 #@! TD.AperFunction*
G04 #@! TA.AperFunction,Conductor*
G36*
X40258328Y-61576089D02*
G01*
X40286584Y-61597241D01*
X41173181Y-62483838D01*
X41206666Y-62545161D01*
X41209500Y-62571519D01*
X41209500Y-67281887D01*
X41189815Y-67348926D01*
X41137011Y-67394681D01*
X41067853Y-67404625D01*
X41004297Y-67375600D01*
X40973118Y-67334292D01*
X40958293Y-67302500D01*
X40953810Y-67292886D01*
X40823289Y-67106481D01*
X40823287Y-67106478D01*
X40662383Y-66945574D01*
X40475976Y-66815052D01*
X40475974Y-66815051D01*
X40269739Y-66718881D01*
X40269730Y-66718878D01*
X40049939Y-66659986D01*
X40049930Y-66659984D01*
X39988145Y-66654578D01*
X39923077Y-66629124D01*
X39911274Y-66618731D01*
X39547682Y-66255139D01*
X39514197Y-66193816D01*
X39511363Y-66167458D01*
X39511363Y-62179256D01*
X39501986Y-62087044D01*
X39514788Y-62018357D01*
X39562692Y-61967495D01*
X39625350Y-61950499D01*
X39667871Y-61950499D01*
X39667872Y-61950499D01*
X39727483Y-61944091D01*
X39862331Y-61893796D01*
X39977546Y-61807546D01*
X40063796Y-61692331D01*
X40082721Y-61641588D01*
X40124591Y-61585656D01*
X40190055Y-61561238D01*
X40258328Y-61576089D01*
G37*
G04 #@! TD.AperFunction*
G04 #@! TA.AperFunction,Conductor*
G36*
X54245702Y-56977305D02*
G01*
X54252180Y-56983337D01*
X56182899Y-58914056D01*
X56185435Y-58916750D01*
X56226571Y-58963183D01*
X56277630Y-58998427D01*
X56280612Y-59000621D01*
X56325162Y-59035523D01*
X56329447Y-59038880D01*
X56329446Y-59038880D01*
X56338677Y-59043034D01*
X56358231Y-59054062D01*
X56366566Y-59059816D01*
X56366568Y-59059816D01*
X56366570Y-59059818D01*
X56424579Y-59081817D01*
X56427976Y-59083224D01*
X56475270Y-59104509D01*
X56484564Y-59108693D01*
X56484565Y-59108693D01*
X56484569Y-59108695D01*
X56494534Y-59110521D01*
X56516156Y-59116548D01*
X56519277Y-59117731D01*
X56525628Y-59120140D01*
X56570751Y-59125618D01*
X56587174Y-59127613D01*
X56590871Y-59128175D01*
X56651894Y-59139358D01*
X56707252Y-59136009D01*
X56713803Y-59135613D01*
X56717548Y-59135500D01*
X57197289Y-59135500D01*
X57264328Y-59155185D01*
X57298864Y-59188377D01*
X57381505Y-59306402D01*
X57548597Y-59473493D01*
X57548603Y-59473498D01*
X57734158Y-59603425D01*
X57777783Y-59658002D01*
X57784977Y-59727500D01*
X57753454Y-59789855D01*
X57734158Y-59806575D01*
X57548597Y-59936505D01*
X57381505Y-60103597D01*
X57245965Y-60297169D01*
X57245964Y-60297171D01*
X57146098Y-60511335D01*
X57146094Y-60511344D01*
X57084938Y-60739586D01*
X57084936Y-60739596D01*
X57064341Y-60974999D01*
X57064341Y-60975000D01*
X57084936Y-61210403D01*
X57084938Y-61210413D01*
X57146094Y-61438655D01*
X57146096Y-61438659D01*
X57146097Y-61438663D01*
X57201504Y-61557483D01*
X57245965Y-61652830D01*
X57245967Y-61652834D01*
X57381499Y-61846393D01*
X57381506Y-61846402D01*
X57548597Y-62013493D01*
X57548603Y-62013498D01*
X57734158Y-62143425D01*
X57777783Y-62198002D01*
X57784977Y-62267500D01*
X57753454Y-62329855D01*
X57734158Y-62346575D01*
X57548597Y-62476505D01*
X57381505Y-62643597D01*
X57245965Y-62837169D01*
X57245964Y-62837171D01*
X57146098Y-63051335D01*
X57146094Y-63051344D01*
X57084938Y-63279586D01*
X57084936Y-63279596D01*
X57064341Y-63514999D01*
X57064341Y-63515000D01*
X57084936Y-63750403D01*
X57084938Y-63750413D01*
X57146094Y-63978655D01*
X57146096Y-63978659D01*
X57146097Y-63978663D01*
X57238970Y-64177830D01*
X57245965Y-64192830D01*
X57245967Y-64192834D01*
X57381501Y-64386395D01*
X57381506Y-64386402D01*
X57548597Y-64553493D01*
X57548603Y-64553498D01*
X57734158Y-64683425D01*
X57777783Y-64738002D01*
X57784977Y-64807500D01*
X57753454Y-64869855D01*
X57734158Y-64886575D01*
X57548597Y-65016505D01*
X57381505Y-65183597D01*
X57245965Y-65377169D01*
X57245964Y-65377171D01*
X57146098Y-65591335D01*
X57146095Y-65591341D01*
X57137067Y-65625037D01*
X57100702Y-65684697D01*
X57037855Y-65715226D01*
X56968479Y-65706931D01*
X56914601Y-65662446D01*
X56893327Y-65595894D01*
X56893292Y-65592943D01*
X56893292Y-65280451D01*
X56893405Y-65276706D01*
X56897149Y-65214810D01*
X56885969Y-65153802D01*
X56885407Y-65150105D01*
X56877932Y-65088545D01*
X56877931Y-65088541D01*
X56874338Y-65079067D01*
X56868311Y-65057445D01*
X56866486Y-65047486D01*
X56866486Y-65047484D01*
X56841033Y-64990930D01*
X56839599Y-64987468D01*
X56817610Y-64929487D01*
X56817610Y-64929486D01*
X56811850Y-64921142D01*
X56800827Y-64901596D01*
X56796670Y-64892359D01*
X56758409Y-64843523D01*
X56756209Y-64840533D01*
X56723055Y-64792500D01*
X56720977Y-64789489D01*
X56715910Y-64785000D01*
X56674542Y-64748351D01*
X56671848Y-64745815D01*
X54076819Y-62150786D01*
X54043334Y-62089463D01*
X54040500Y-62063105D01*
X54040500Y-59582837D01*
X54040499Y-57071014D01*
X54060184Y-57003979D01*
X54112988Y-56958224D01*
X54182146Y-56948280D01*
X54245702Y-56977305D01*
G37*
G04 #@! TD.AperFunction*
G04 #@! TA.AperFunction,Conductor*
G36*
X40294932Y-52431585D02*
G01*
X40360197Y-52460644D01*
X40515130Y-52493575D01*
X40576607Y-52526766D01*
X40577026Y-52527183D01*
X40928899Y-52879056D01*
X40931435Y-52881750D01*
X40968110Y-52923148D01*
X40972570Y-52928182D01*
X41023606Y-52963410D01*
X41026622Y-52965630D01*
X41052990Y-52986287D01*
X41075443Y-53003878D01*
X41082345Y-53006984D01*
X41084682Y-53008036D01*
X41104233Y-53019063D01*
X41112570Y-53024818D01*
X41170565Y-53046812D01*
X41173974Y-53048223D01*
X41221287Y-53069517D01*
X41230564Y-53073693D01*
X41230565Y-53073693D01*
X41230569Y-53073695D01*
X41240534Y-53075521D01*
X41262156Y-53081548D01*
X41265277Y-53082731D01*
X41271628Y-53085140D01*
X41316751Y-53090618D01*
X41333174Y-53092613D01*
X41336871Y-53093175D01*
X41397894Y-53104358D01*
X41453252Y-53101009D01*
X41459803Y-53100613D01*
X41463548Y-53100500D01*
X46955500Y-53100500D01*
X47022539Y-53120185D01*
X47068294Y-53172989D01*
X47079500Y-53224500D01*
X47079500Y-53497869D01*
X47079501Y-53497876D01*
X47085908Y-53557479D01*
X47087692Y-53565026D01*
X47086229Y-53565371D01*
X47090585Y-53626371D01*
X47086173Y-53641396D01*
X47085908Y-53642517D01*
X47079501Y-53702117D01*
X47079501Y-53702123D01*
X47079500Y-53702136D01*
X47079500Y-54297870D01*
X47079501Y-54297876D01*
X47085908Y-54357479D01*
X47087692Y-54365026D01*
X47086229Y-54365371D01*
X47090585Y-54426371D01*
X47086173Y-54441396D01*
X47085908Y-54442517D01*
X47079501Y-54502117D01*
X47079501Y-54502123D01*
X47079500Y-54502136D01*
X47079500Y-55097870D01*
X47079501Y-55097876D01*
X47085908Y-55157479D01*
X47087692Y-55165026D01*
X47086229Y-55165371D01*
X47090585Y-55226371D01*
X47086173Y-55241396D01*
X47085908Y-55242517D01*
X47079501Y-55302117D01*
X47079500Y-55302136D01*
X47079500Y-55897870D01*
X47079501Y-55897876D01*
X47085908Y-55957479D01*
X47087692Y-55965026D01*
X47086229Y-55965371D01*
X47090585Y-56026371D01*
X47086173Y-56041396D01*
X47085908Y-56042517D01*
X47079501Y-56102116D01*
X47079500Y-56102135D01*
X47079500Y-56412458D01*
X47059815Y-56479497D01*
X47007011Y-56525252D01*
X46937853Y-56535196D01*
X46882616Y-56512777D01*
X46852629Y-56490991D01*
X46852625Y-56490988D01*
X46679703Y-56413997D01*
X46679698Y-56413995D01*
X46518725Y-56379780D01*
X46457243Y-56346588D01*
X46423467Y-56285425D01*
X46421187Y-56271463D01*
X46414963Y-56212244D01*
X46356468Y-56032216D01*
X46261822Y-55868284D01*
X46176820Y-55773880D01*
X46158519Y-55743874D01*
X46157592Y-55744361D01*
X46154109Y-55737724D01*
X46148351Y-55729383D01*
X46137323Y-55709829D01*
X46133169Y-55700599D01*
X46126232Y-55691744D01*
X46094910Y-55651764D01*
X46092716Y-55648782D01*
X46057472Y-55597723D01*
X46011039Y-55556587D01*
X46008345Y-55554051D01*
X45274993Y-54820699D01*
X45272459Y-54818008D01*
X45231324Y-54771575D01*
X45231323Y-54771574D01*
X45231319Y-54771570D01*
X45180291Y-54736349D01*
X45177282Y-54734135D01*
X45141325Y-54705965D01*
X45128455Y-54695882D01*
X45128450Y-54695878D01*
X45119208Y-54691719D01*
X45099661Y-54680694D01*
X45091326Y-54674941D01*
X45091327Y-54674941D01*
X45091325Y-54674940D01*
X45033336Y-54652947D01*
X45029885Y-54651517D01*
X44973325Y-54626062D01*
X44963341Y-54624232D01*
X44941738Y-54618209D01*
X44932269Y-54614618D01*
X44932265Y-54614617D01*
X44870708Y-54607142D01*
X44867007Y-54606579D01*
X44806003Y-54595400D01*
X44805998Y-54595400D01*
X44744092Y-54599145D01*
X44740347Y-54599258D01*
X43741704Y-54599258D01*
X43737960Y-54599145D01*
X43676064Y-54595401D01*
X43676057Y-54595401D01*
X43615069Y-54606577D01*
X43611368Y-54607140D01*
X43549792Y-54614618D01*
X43540309Y-54618214D01*
X43518705Y-54624236D01*
X43517202Y-54624512D01*
X43508732Y-54626064D01*
X43508730Y-54626065D01*
X43452194Y-54651510D01*
X43448736Y-54652942D01*
X43390736Y-54674940D01*
X43382391Y-54680700D01*
X43362850Y-54691722D01*
X43353611Y-54695880D01*
X43353606Y-54695883D01*
X43304788Y-54734128D01*
X43301773Y-54736347D01*
X43250739Y-54771574D01*
X43250731Y-54771581D01*
X43209617Y-54817988D01*
X43207052Y-54820714D01*
X43164588Y-54863179D01*
X43103266Y-54896666D01*
X43076905Y-54899500D01*
X40244500Y-54899500D01*
X40177461Y-54879815D01*
X40131706Y-54827011D01*
X40120500Y-54775500D01*
X40120499Y-54502130D01*
X40120498Y-54502123D01*
X40120498Y-54502117D01*
X40114091Y-54442517D01*
X40114090Y-54442515D01*
X40114090Y-54442512D01*
X40112308Y-54434969D01*
X40113773Y-54434622D01*
X40109409Y-54373651D01*
X40113819Y-54358633D01*
X40114089Y-54357488D01*
X40114088Y-54357488D01*
X40114091Y-54357483D01*
X40120500Y-54297873D01*
X40120499Y-53702128D01*
X40114091Y-53642517D01*
X40114090Y-53642515D01*
X40114090Y-53642512D01*
X40112308Y-53634969D01*
X40113773Y-53634622D01*
X40109409Y-53573651D01*
X40113819Y-53558633D01*
X40114089Y-53557488D01*
X40114088Y-53557488D01*
X40114091Y-53557483D01*
X40120500Y-53497873D01*
X40120499Y-52902128D01*
X40114091Y-52842517D01*
X40114090Y-52842515D01*
X40114090Y-52842512D01*
X40112308Y-52834969D01*
X40113773Y-52834622D01*
X40109409Y-52773651D01*
X40113819Y-52758633D01*
X40114089Y-52757488D01*
X40114088Y-52757488D01*
X40114091Y-52757483D01*
X40120500Y-52697873D01*
X40120499Y-52544865D01*
X40140183Y-52477827D01*
X40192987Y-52432072D01*
X40262145Y-52422128D01*
X40294932Y-52431585D01*
G37*
G04 #@! TD.AperFunction*
G04 #@! TA.AperFunction,Conductor*
G36*
X46448883Y-49920185D02*
G01*
X46454729Y-49924182D01*
X46537265Y-49984148D01*
X46537270Y-49984151D01*
X46710192Y-50061142D01*
X46710197Y-50061144D01*
X46895354Y-50100500D01*
X46955501Y-50100500D01*
X47022540Y-50120185D01*
X47068295Y-50172989D01*
X47079501Y-50224500D01*
X47079501Y-50297876D01*
X47085909Y-50357487D01*
X47087692Y-50365031D01*
X47086438Y-50365327D01*
X47090856Y-50427069D01*
X47086864Y-50440664D01*
X47086401Y-50442624D01*
X47080000Y-50502155D01*
X47080000Y-51097844D01*
X47086401Y-51157372D01*
X47088187Y-51164930D01*
X47086542Y-51165318D01*
X47090851Y-51225656D01*
X47085943Y-51242371D01*
X47085908Y-51242520D01*
X47081689Y-51281768D01*
X47079500Y-51302127D01*
X47079500Y-51500500D01*
X47079501Y-51575500D01*
X47059817Y-51642539D01*
X47007013Y-51688294D01*
X46955501Y-51699500D01*
X43606843Y-51699500D01*
X43539804Y-51679815D01*
X43494049Y-51627011D01*
X43484105Y-51557853D01*
X43513130Y-51494297D01*
X43555948Y-51462426D01*
X43587491Y-51448229D01*
X43590921Y-51446809D01*
X43648909Y-51424818D01*
X43657245Y-51419062D01*
X43676800Y-51408034D01*
X43686036Y-51403878D01*
X43734875Y-51365613D01*
X43737855Y-51363421D01*
X43788908Y-51328183D01*
X43830044Y-51281748D01*
X43832578Y-51279056D01*
X45174816Y-49936819D01*
X45236140Y-49903334D01*
X45262498Y-49900500D01*
X46381844Y-49900500D01*
X46448883Y-49920185D01*
G37*
G04 #@! TD.AperFunction*
G04 #@! TA.AperFunction,Conductor*
G36*
X35581635Y-47789767D02*
G01*
X35627390Y-47842571D01*
X35638596Y-47894082D01*
X35638596Y-50486374D01*
X35636339Y-50575453D01*
X35636339Y-50575461D01*
X35643007Y-50612660D01*
X35647162Y-50635843D01*
X35647814Y-50640494D01*
X35648456Y-50646804D01*
X35651191Y-50673695D01*
X35651672Y-50678418D01*
X35651990Y-50684696D01*
X35651990Y-50735644D01*
X35654767Y-50762957D01*
X35641965Y-50831644D01*
X35594060Y-50882505D01*
X35531403Y-50899500D01*
X34146518Y-50899500D01*
X34079479Y-50879815D01*
X34058837Y-50863181D01*
X31177419Y-47981763D01*
X31143934Y-47920440D01*
X31148918Y-47850748D01*
X31190790Y-47794815D01*
X31256254Y-47770398D01*
X31265100Y-47770082D01*
X35514596Y-47770082D01*
X35581635Y-47789767D01*
G37*
G04 #@! TD.AperFunction*
G04 #@! TA.AperFunction,Conductor*
G36*
X42113925Y-47447773D02*
G01*
X42169858Y-47489645D01*
X42194275Y-47555109D01*
X42194591Y-47563955D01*
X42194591Y-48876523D01*
X42174906Y-48943562D01*
X42158272Y-48964204D01*
X41859296Y-49263181D01*
X41797973Y-49296666D01*
X41771615Y-49299500D01*
X40354392Y-49299500D01*
X40287353Y-49279815D01*
X40241598Y-49227011D01*
X40231654Y-49157853D01*
X40260679Y-49094297D01*
X40303497Y-49062426D01*
X40335040Y-49048229D01*
X40338470Y-49046809D01*
X40396458Y-49024818D01*
X40404794Y-49019062D01*
X40424349Y-49008034D01*
X40433585Y-49003878D01*
X40482424Y-48965613D01*
X40485404Y-48963421D01*
X40536457Y-48928183D01*
X40577593Y-48881748D01*
X40580127Y-48879056D01*
X41982909Y-47476274D01*
X42044233Y-47442789D01*
X42113925Y-47447773D01*
G37*
G04 #@! TD.AperFunction*
G04 #@! TA.AperFunction,Conductor*
G36*
X32342123Y-40623035D02*
G01*
X32348601Y-40629067D01*
X33282157Y-41562623D01*
X33315642Y-41623946D01*
X33310658Y-41693638D01*
X33294801Y-41723180D01*
X33293284Y-41725267D01*
X33198637Y-41889202D01*
X33198634Y-41889209D01*
X33140143Y-42069227D01*
X33140142Y-42069231D01*
X33120356Y-42257487D01*
X33140142Y-42445743D01*
X33140143Y-42445746D01*
X33198634Y-42625764D01*
X33198637Y-42625771D01*
X33293283Y-42789703D01*
X33419944Y-42930374D01*
X33419945Y-42930375D01*
X33573081Y-43041635D01*
X33573086Y-43041638D01*
X33746007Y-43118629D01*
X33746009Y-43118629D01*
X33746013Y-43118631D01*
X33900946Y-43151562D01*
X33962423Y-43184753D01*
X33962842Y-43185170D01*
X34056728Y-43279056D01*
X34059264Y-43281750D01*
X34077324Y-43302135D01*
X34100402Y-43328185D01*
X34127350Y-43346786D01*
X34151446Y-43363417D01*
X34154436Y-43365617D01*
X34203272Y-43403878D01*
X34212509Y-43408035D01*
X34232055Y-43419058D01*
X34240399Y-43424818D01*
X34240405Y-43424820D01*
X34244945Y-43427203D01*
X34295159Y-43475786D01*
X34311136Y-43543805D01*
X34310644Y-43549962D01*
X34305438Y-43599500D01*
X34325224Y-43787756D01*
X34325225Y-43787759D01*
X34383716Y-43967777D01*
X34383719Y-43967784D01*
X34478365Y-44131716D01*
X34596777Y-44263225D01*
X34605027Y-44272388D01*
X34758163Y-44383648D01*
X34758168Y-44383651D01*
X34931090Y-44460642D01*
X34931095Y-44460644D01*
X35116252Y-44500000D01*
X35116253Y-44500000D01*
X35305542Y-44500000D01*
X35305544Y-44500000D01*
X35490701Y-44460644D01*
X35663628Y-44383651D01*
X35735682Y-44331301D01*
X35746169Y-44323682D01*
X35811975Y-44300202D01*
X35819054Y-44300000D01*
X36796000Y-44300000D01*
X36863039Y-44319685D01*
X36908794Y-44372489D01*
X36920000Y-44424000D01*
X36920000Y-44697844D01*
X36926401Y-44757372D01*
X36928187Y-44764930D01*
X36926542Y-44765318D01*
X36930851Y-44825656D01*
X36925943Y-44842371D01*
X36925908Y-44842520D01*
X36919501Y-44902117D01*
X36919500Y-44902136D01*
X36919500Y-45497870D01*
X36919501Y-45497876D01*
X36925908Y-45557479D01*
X36927692Y-45565026D01*
X36926229Y-45565371D01*
X36930585Y-45626371D01*
X36926173Y-45641396D01*
X36925908Y-45642516D01*
X36922751Y-45671888D01*
X36896013Y-45736439D01*
X36838620Y-45776287D01*
X36777598Y-45780689D01*
X36772055Y-45779696D01*
X36772047Y-45779695D01*
X36772046Y-45779695D01*
X36760730Y-45778833D01*
X36737786Y-45777085D01*
X36730008Y-45775994D01*
X36696370Y-45769082D01*
X36696369Y-45769082D01*
X36635030Y-45769082D01*
X36630323Y-45768903D01*
X36624749Y-45768478D01*
X36569152Y-45764244D01*
X36549217Y-45766783D01*
X36535068Y-45768585D01*
X36527239Y-45769082D01*
X32260920Y-45769082D01*
X32193881Y-45749397D01*
X32148126Y-45696593D01*
X32136920Y-45645082D01*
X32136920Y-40716748D01*
X32156605Y-40649709D01*
X32209409Y-40603954D01*
X32278567Y-40594010D01*
X32342123Y-40623035D01*
G37*
G04 #@! TD.AperFunction*
G04 #@! TA.AperFunction,Conductor*
G36*
X39708346Y-31807859D02*
G01*
X39766209Y-31847020D01*
X39793714Y-31911248D01*
X39794591Y-31925971D01*
X39794591Y-39525500D01*
X39774906Y-39592539D01*
X39722102Y-39638294D01*
X39670591Y-39649500D01*
X39409736Y-39649500D01*
X39342697Y-39629815D01*
X39296942Y-39577011D01*
X39286415Y-39512541D01*
X39301397Y-39370000D01*
X39281611Y-39181744D01*
X39223116Y-39001716D01*
X39128470Y-38837784D01*
X39001808Y-38697112D01*
X39001807Y-38697111D01*
X38848671Y-38585851D01*
X38848666Y-38585848D01*
X38675744Y-38508857D01*
X38675739Y-38508855D01*
X38529938Y-38477865D01*
X38490583Y-38469500D01*
X38301291Y-38469500D01*
X38268834Y-38476398D01*
X38116134Y-38508855D01*
X38116129Y-38508857D01*
X37943207Y-38585848D01*
X37943202Y-38585851D01*
X37790066Y-38697111D01*
X37663403Y-38837785D01*
X37568758Y-39001715D01*
X37568755Y-39001722D01*
X37510264Y-39181740D01*
X37510263Y-39181744D01*
X37498987Y-39289035D01*
X37490477Y-39370000D01*
X37505458Y-39512539D01*
X37492888Y-39581269D01*
X37445156Y-39632292D01*
X37382146Y-39649500D01*
X37372134Y-39649500D01*
X37372123Y-39649501D01*
X37312516Y-39655908D01*
X37177671Y-39706202D01*
X37177664Y-39706206D01*
X37062455Y-39792452D01*
X37062452Y-39792455D01*
X36976206Y-39907664D01*
X36976202Y-39907671D01*
X36925910Y-40042513D01*
X36925909Y-40042517D01*
X36919500Y-40102127D01*
X36919500Y-40277400D01*
X36919501Y-40375500D01*
X36899817Y-40442539D01*
X36847013Y-40488294D01*
X36795501Y-40499500D01*
X35736422Y-40499500D01*
X35669383Y-40479815D01*
X35623628Y-40427011D01*
X35613102Y-40388465D01*
X35594581Y-40212244D01*
X35536086Y-40032216D01*
X35441440Y-39868284D01*
X35441251Y-39868074D01*
X35441180Y-39867927D01*
X35437621Y-39863028D01*
X35438517Y-39862376D01*
X35411026Y-39805080D01*
X35409407Y-39785108D01*
X35409407Y-39326442D01*
X35409520Y-39322697D01*
X35413264Y-39260801D01*
X35402084Y-39199793D01*
X35401522Y-39196096D01*
X35394528Y-39138495D01*
X35394047Y-39134535D01*
X35390453Y-39125058D01*
X35384426Y-39103436D01*
X35382601Y-39093477D01*
X35382601Y-39093475D01*
X35357146Y-39036919D01*
X35355716Y-39033464D01*
X35343678Y-39001722D01*
X35333725Y-38975477D01*
X35327967Y-38967135D01*
X35316939Y-38947583D01*
X35312784Y-38938350D01*
X35312783Y-38938349D01*
X35312782Y-38938346D01*
X35274546Y-38889544D01*
X35272335Y-38886540D01*
X35254397Y-38860552D01*
X35237092Y-38835480D01*
X35237090Y-38835478D01*
X35190649Y-38794335D01*
X35187955Y-38791799D01*
X34650029Y-38253872D01*
X34616544Y-38192549D01*
X34613710Y-38166191D01*
X34613710Y-35032393D01*
X34633395Y-34965354D01*
X34650029Y-34944712D01*
X37026873Y-32567868D01*
X37088196Y-32534383D01*
X37114554Y-32531549D01*
X37995903Y-32531549D01*
X37999648Y-32531662D01*
X38006394Y-32532070D01*
X38061557Y-32535407D01*
X38099265Y-32528496D01*
X38122572Y-32524226D01*
X38126276Y-32523662D01*
X38144121Y-32521495D01*
X38187823Y-32516189D01*
X38197286Y-32512599D01*
X38218912Y-32506571D01*
X38219844Y-32506400D01*
X38228883Y-32504744D01*
X38285463Y-32479278D01*
X38288893Y-32477858D01*
X38346881Y-32455867D01*
X38355217Y-32450111D01*
X38374772Y-32439083D01*
X38384008Y-32434927D01*
X38432847Y-32396662D01*
X38435827Y-32394470D01*
X38486880Y-32359232D01*
X38528016Y-32312797D01*
X38530550Y-32310105D01*
X38998006Y-31842649D01*
X39059327Y-31809166D01*
X39117778Y-31810557D01*
X39134592Y-31815063D01*
X39322918Y-31831539D01*
X39369999Y-31835659D01*
X39370000Y-31835659D01*
X39370001Y-31835659D01*
X39409234Y-31832226D01*
X39605408Y-31815063D01*
X39638496Y-31806197D01*
X39708346Y-31807859D01*
G37*
G04 #@! TD.AperFunction*
G04 #@! TA.AperFunction,Conductor*
G36*
X41393692Y-25169685D02*
G01*
X41439447Y-25222489D01*
X41449391Y-25291647D01*
X41445631Y-25308933D01*
X41440000Y-25328111D01*
X41440000Y-25471888D01*
X41445631Y-25491067D01*
X41445630Y-25560936D01*
X41407855Y-25619714D01*
X41344299Y-25648738D01*
X41326653Y-25650000D01*
X40013347Y-25650000D01*
X39946308Y-25630315D01*
X39900553Y-25577511D01*
X39890609Y-25508353D01*
X39894369Y-25491067D01*
X39900000Y-25471888D01*
X39900000Y-25328111D01*
X39894369Y-25308933D01*
X39894370Y-25239064D01*
X39932145Y-25180286D01*
X39995701Y-25151262D01*
X40013347Y-25150000D01*
X41326653Y-25150000D01*
X41393692Y-25169685D01*
G37*
G04 #@! TD.AperFunction*
G04 #@! TA.AperFunction,Conductor*
G36*
X43933692Y-25169685D02*
G01*
X43979447Y-25222489D01*
X43989391Y-25291647D01*
X43985631Y-25308933D01*
X43980000Y-25328111D01*
X43980000Y-25471888D01*
X43985631Y-25491067D01*
X43985630Y-25560936D01*
X43947855Y-25619714D01*
X43884299Y-25648738D01*
X43866653Y-25650000D01*
X42553347Y-25650000D01*
X42486308Y-25630315D01*
X42440553Y-25577511D01*
X42430609Y-25508353D01*
X42434369Y-25491067D01*
X42440000Y-25471888D01*
X42440000Y-25328111D01*
X42434369Y-25308933D01*
X42434370Y-25239064D01*
X42472145Y-25180286D01*
X42535701Y-25151262D01*
X42553347Y-25150000D01*
X43866653Y-25150000D01*
X43933692Y-25169685D01*
G37*
G04 #@! TD.AperFunction*
G04 #@! TA.AperFunction,Conductor*
G36*
X60902539Y-22880185D02*
G01*
X60948294Y-22932989D01*
X60959500Y-22984500D01*
X60959500Y-76075500D01*
X60939815Y-76142539D01*
X60887011Y-76188294D01*
X60835500Y-76199500D01*
X25524500Y-76199500D01*
X25457461Y-76179815D01*
X25411706Y-76127011D01*
X25400500Y-76075500D01*
X25400500Y-71120000D01*
X26584341Y-71120000D01*
X26604936Y-71355403D01*
X26604938Y-71355413D01*
X26666094Y-71583655D01*
X26666096Y-71583659D01*
X26666097Y-71583663D01*
X26765965Y-71797830D01*
X26765967Y-71797834D01*
X26874281Y-71952521D01*
X26901505Y-71991401D01*
X27068599Y-72158495D01*
X27158048Y-72221128D01*
X27262165Y-72294032D01*
X27262167Y-72294033D01*
X27262170Y-72294035D01*
X27476337Y-72393903D01*
X27704592Y-72455063D01*
X27892918Y-72471539D01*
X27939999Y-72475659D01*
X27940000Y-72475659D01*
X27940001Y-72475659D01*
X27979234Y-72472226D01*
X28175408Y-72455063D01*
X28403663Y-72393903D01*
X28617830Y-72294035D01*
X28811401Y-72158495D01*
X28978495Y-71991401D01*
X29114035Y-71797830D01*
X29213903Y-71583663D01*
X29275063Y-71355408D01*
X29295659Y-71120000D01*
X29275063Y-70884592D01*
X29270558Y-70867779D01*
X29272219Y-70797932D01*
X29302649Y-70748006D01*
X34647821Y-65402835D01*
X34709142Y-65369352D01*
X34778834Y-65374336D01*
X34834767Y-65416208D01*
X34859184Y-65481672D01*
X34859500Y-65490518D01*
X34859500Y-70778480D01*
X34839815Y-70845519D01*
X34823181Y-70866161D01*
X33810966Y-71878375D01*
X33808240Y-71880942D01*
X33761818Y-71922068D01*
X33726586Y-71973109D01*
X33724368Y-71976124D01*
X33686124Y-72024939D01*
X33686119Y-72024948D01*
X33681960Y-72034188D01*
X33670942Y-72053723D01*
X33665187Y-72062061D01*
X33665183Y-72062067D01*
X33665182Y-72062070D01*
X33665180Y-72062074D01*
X33665179Y-72062077D01*
X33643189Y-72120055D01*
X33641757Y-72123513D01*
X33616305Y-72180068D01*
X33614477Y-72190042D01*
X33608453Y-72211653D01*
X33602201Y-72228140D01*
X33599409Y-72227081D01*
X33571111Y-72275612D01*
X33508870Y-72307359D01*
X33485930Y-72309500D01*
X33392130Y-72309500D01*
X33392123Y-72309501D01*
X33332516Y-72315908D01*
X33197671Y-72366202D01*
X33197664Y-72366206D01*
X33082455Y-72452452D01*
X33082452Y-72452455D01*
X32996206Y-72567664D01*
X32996202Y-72567671D01*
X32945908Y-72702517D01*
X32939501Y-72762116D01*
X32939500Y-72762135D01*
X32939500Y-74557870D01*
X32939501Y-74557876D01*
X32945908Y-74617483D01*
X32996202Y-74752328D01*
X32996206Y-74752335D01*
X33082452Y-74867544D01*
X33082455Y-74867547D01*
X33197664Y-74953793D01*
X33197671Y-74953797D01*
X33332517Y-75004091D01*
X33332516Y-75004091D01*
X33339444Y-75004835D01*
X33392127Y-75010500D01*
X35187872Y-75010499D01*
X35247483Y-75004091D01*
X35382331Y-74953796D01*
X35497546Y-74867546D01*
X35583796Y-74752331D01*
X35632810Y-74620916D01*
X35674681Y-74564984D01*
X35740145Y-74540566D01*
X35808418Y-74555417D01*
X35836672Y-74576569D01*
X35958599Y-74698495D01*
X36055384Y-74766264D01*
X36152165Y-74834032D01*
X36152167Y-74834033D01*
X36152170Y-74834035D01*
X36366337Y-74933903D01*
X36594592Y-74995063D01*
X36771034Y-75010500D01*
X36829999Y-75015659D01*
X36830000Y-75015659D01*
X36830001Y-75015659D01*
X36888966Y-75010500D01*
X37065408Y-74995063D01*
X37293663Y-74933903D01*
X37507830Y-74834035D01*
X37701401Y-74698495D01*
X37868495Y-74531401D01*
X37998424Y-74345842D01*
X38053002Y-74302217D01*
X38122500Y-74295023D01*
X38184855Y-74326546D01*
X38201575Y-74345842D01*
X38331500Y-74531395D01*
X38331505Y-74531401D01*
X38498599Y-74698495D01*
X38595384Y-74766264D01*
X38692165Y-74834032D01*
X38692167Y-74834033D01*
X38692170Y-74834035D01*
X38906337Y-74933903D01*
X39134592Y-74995063D01*
X39311034Y-75010500D01*
X39369999Y-75015659D01*
X39370000Y-75015659D01*
X39370001Y-75015659D01*
X39428966Y-75010500D01*
X39605408Y-74995063D01*
X39833663Y-74933903D01*
X40047830Y-74834035D01*
X40241401Y-74698495D01*
X40408495Y-74531401D01*
X40538424Y-74345842D01*
X40593002Y-74302217D01*
X40662500Y-74295023D01*
X40724855Y-74326546D01*
X40741575Y-74345842D01*
X40871500Y-74531395D01*
X40871505Y-74531401D01*
X41038599Y-74698495D01*
X41135384Y-74766264D01*
X41232165Y-74834032D01*
X41232167Y-74834033D01*
X41232170Y-74834035D01*
X41446337Y-74933903D01*
X41674592Y-74995063D01*
X41851034Y-75010500D01*
X41909999Y-75015659D01*
X41910000Y-75015659D01*
X41910001Y-75015659D01*
X41968966Y-75010500D01*
X42145408Y-74995063D01*
X42373663Y-74933903D01*
X42587830Y-74834035D01*
X42781401Y-74698495D01*
X42948495Y-74531401D01*
X43078424Y-74345842D01*
X43133002Y-74302217D01*
X43202500Y-74295023D01*
X43264855Y-74326546D01*
X43281575Y-74345842D01*
X43411500Y-74531395D01*
X43411505Y-74531401D01*
X43578599Y-74698495D01*
X43675384Y-74766264D01*
X43772165Y-74834032D01*
X43772167Y-74834033D01*
X43772170Y-74834035D01*
X43986337Y-74933903D01*
X44214592Y-74995063D01*
X44391034Y-75010500D01*
X44449999Y-75015659D01*
X44450000Y-75015659D01*
X44450001Y-75015659D01*
X44508966Y-75010500D01*
X44685408Y-74995063D01*
X44913663Y-74933903D01*
X45127830Y-74834035D01*
X45321401Y-74698495D01*
X45488495Y-74531401D01*
X45618424Y-74345842D01*
X45673002Y-74302217D01*
X45742500Y-74295023D01*
X45804855Y-74326546D01*
X45821575Y-74345842D01*
X45951500Y-74531395D01*
X45951505Y-74531401D01*
X46118599Y-74698495D01*
X46215384Y-74766264D01*
X46312165Y-74834032D01*
X46312167Y-74834033D01*
X46312170Y-74834035D01*
X46526337Y-74933903D01*
X46754592Y-74995063D01*
X46931034Y-75010500D01*
X46989999Y-75015659D01*
X46990000Y-75015659D01*
X46990001Y-75015659D01*
X47048966Y-75010500D01*
X47225408Y-74995063D01*
X47453663Y-74933903D01*
X47667830Y-74834035D01*
X47861401Y-74698495D01*
X48028495Y-74531401D01*
X48158424Y-74345842D01*
X48213002Y-74302217D01*
X48282500Y-74295023D01*
X48344855Y-74326546D01*
X48361575Y-74345842D01*
X48491500Y-74531395D01*
X48491505Y-74531401D01*
X48658599Y-74698495D01*
X48755384Y-74766264D01*
X48852165Y-74834032D01*
X48852167Y-74834033D01*
X48852170Y-74834035D01*
X49066337Y-74933903D01*
X49294592Y-74995063D01*
X49471034Y-75010500D01*
X49529999Y-75015659D01*
X49530000Y-75015659D01*
X49530001Y-75015659D01*
X49588966Y-75010500D01*
X49765408Y-74995063D01*
X49993663Y-74933903D01*
X50207830Y-74834035D01*
X50401401Y-74698495D01*
X50568495Y-74531401D01*
X50698424Y-74345842D01*
X50753002Y-74302217D01*
X50822500Y-74295023D01*
X50884855Y-74326546D01*
X50901575Y-74345842D01*
X51031500Y-74531395D01*
X51031505Y-74531401D01*
X51198599Y-74698495D01*
X51295384Y-74766264D01*
X51392165Y-74834032D01*
X51392167Y-74834033D01*
X51392170Y-74834035D01*
X51606337Y-74933903D01*
X51834592Y-74995063D01*
X52011034Y-75010500D01*
X52069999Y-75015659D01*
X52070000Y-75015659D01*
X52070001Y-75015659D01*
X52128966Y-75010500D01*
X52305408Y-74995063D01*
X52533663Y-74933903D01*
X52747830Y-74834035D01*
X52941401Y-74698495D01*
X53108495Y-74531401D01*
X53244035Y-74337830D01*
X53343903Y-74123663D01*
X53405063Y-73895408D01*
X53425659Y-73660000D01*
X53405063Y-73424592D01*
X53343903Y-73196337D01*
X53244035Y-72982171D01*
X53238425Y-72974158D01*
X53108494Y-72788597D01*
X52941402Y-72621506D01*
X52941395Y-72621501D01*
X52760441Y-72494795D01*
X52716816Y-72440218D01*
X52707564Y-72393220D01*
X52707564Y-68160872D01*
X52707564Y-63910730D01*
X52727248Y-63843695D01*
X52780052Y-63797940D01*
X52849210Y-63787996D01*
X52912766Y-63817021D01*
X52919244Y-63823053D01*
X54465767Y-65369576D01*
X54499252Y-65430899D01*
X54501407Y-65470218D01*
X54488509Y-65592943D01*
X54487832Y-65599380D01*
X54507618Y-65787636D01*
X54507619Y-65787639D01*
X54566110Y-65967657D01*
X54566113Y-65967664D01*
X54660759Y-66131596D01*
X54739296Y-66218820D01*
X54787421Y-66272268D01*
X54940557Y-66383528D01*
X54940562Y-66383531D01*
X55113484Y-66460522D01*
X55113489Y-66460524D01*
X55298646Y-66499880D01*
X55298647Y-66499880D01*
X55403890Y-66499880D01*
X55470929Y-66519565D01*
X55516684Y-66572369D01*
X55516966Y-66572989D01*
X55544551Y-66634282D01*
X55545981Y-66637733D01*
X55567974Y-66695722D01*
X55567975Y-66695723D01*
X55573728Y-66704058D01*
X55584753Y-66723605D01*
X55588912Y-66732847D01*
X55588916Y-66732852D01*
X55627163Y-66781670D01*
X55629383Y-66784688D01*
X55664604Y-66835716D01*
X55664608Y-66835720D01*
X55664609Y-66835721D01*
X55711042Y-66876856D01*
X55713733Y-66879390D01*
X56390844Y-67556501D01*
X57057348Y-68223005D01*
X57090833Y-68284328D01*
X57089442Y-68342778D01*
X57084939Y-68359584D01*
X57084936Y-68359597D01*
X57064341Y-68594999D01*
X57064341Y-68595000D01*
X57084936Y-68830403D01*
X57084938Y-68830413D01*
X57146094Y-69058655D01*
X57146096Y-69058659D01*
X57146097Y-69058663D01*
X57214696Y-69205773D01*
X57245965Y-69272830D01*
X57245967Y-69272834D01*
X57354281Y-69427521D01*
X57381505Y-69466401D01*
X57548599Y-69633495D01*
X57645384Y-69701264D01*
X57742165Y-69769032D01*
X57742167Y-69769033D01*
X57742170Y-69769035D01*
X57956337Y-69868903D01*
X58184592Y-69930063D01*
X58366349Y-69945965D01*
X58419999Y-69950659D01*
X58420000Y-69950659D01*
X58420001Y-69950659D01*
X58473651Y-69945965D01*
X58655408Y-69930063D01*
X58883663Y-69868903D01*
X59097830Y-69769035D01*
X59291401Y-69633495D01*
X59458495Y-69466401D01*
X59594035Y-69272830D01*
X59693903Y-69058663D01*
X59755063Y-68830408D01*
X59775659Y-68595000D01*
X59755063Y-68359592D01*
X59693903Y-68131337D01*
X59594035Y-67917171D01*
X59508657Y-67795237D01*
X59458494Y-67723597D01*
X59291402Y-67556506D01*
X59291396Y-67556501D01*
X59105842Y-67426575D01*
X59062217Y-67371998D01*
X59055023Y-67302500D01*
X59086546Y-67240145D01*
X59105842Y-67223425D01*
X59210598Y-67150074D01*
X59291401Y-67093495D01*
X59458495Y-66926401D01*
X59594035Y-66732830D01*
X59693903Y-66518663D01*
X59755063Y-66290408D01*
X59775659Y-66055000D01*
X59755063Y-65819592D01*
X59693903Y-65591337D01*
X59594035Y-65377171D01*
X59588561Y-65369352D01*
X59458494Y-65183597D01*
X59291402Y-65016506D01*
X59291401Y-65016505D01*
X59127294Y-64901596D01*
X59105841Y-64886574D01*
X59062216Y-64831997D01*
X59055024Y-64762498D01*
X59086546Y-64700144D01*
X59105836Y-64683428D01*
X59291401Y-64553495D01*
X59458495Y-64386401D01*
X59594035Y-64192830D01*
X59693903Y-63978663D01*
X59755063Y-63750408D01*
X59775659Y-63515000D01*
X59755063Y-63279592D01*
X59693903Y-63051337D01*
X59594035Y-62837171D01*
X59458495Y-62643599D01*
X59458494Y-62643597D01*
X59291402Y-62476506D01*
X59291401Y-62476505D01*
X59105842Y-62346575D01*
X59105841Y-62346574D01*
X59062216Y-62291997D01*
X59055024Y-62222498D01*
X59086546Y-62160144D01*
X59105836Y-62143428D01*
X59291401Y-62013495D01*
X59458495Y-61846401D01*
X59465046Y-61837046D01*
X59594032Y-61652834D01*
X59594031Y-61652834D01*
X59594035Y-61652830D01*
X59693903Y-61438663D01*
X59755063Y-61210408D01*
X59775659Y-60975000D01*
X59755063Y-60739592D01*
X59693903Y-60511337D01*
X59594035Y-60297171D01*
X59458495Y-60103599D01*
X59458494Y-60103597D01*
X59291402Y-59936506D01*
X59291401Y-59936505D01*
X59105842Y-59806575D01*
X59105841Y-59806574D01*
X59062216Y-59751997D01*
X59055024Y-59682498D01*
X59086546Y-59620144D01*
X59105836Y-59603428D01*
X59291401Y-59473495D01*
X59458495Y-59306401D01*
X59594035Y-59112830D01*
X59693903Y-58898663D01*
X59755063Y-58670408D01*
X59775659Y-58435000D01*
X59755063Y-58199592D01*
X59693903Y-57971337D01*
X59594035Y-57757171D01*
X59571683Y-57725248D01*
X59458494Y-57563597D01*
X59291402Y-57396506D01*
X59291401Y-57396505D01*
X59162505Y-57306251D01*
X59105841Y-57266574D01*
X59062216Y-57211997D01*
X59055024Y-57142498D01*
X59086546Y-57080144D01*
X59105836Y-57063428D01*
X59291401Y-56933495D01*
X59458495Y-56766401D01*
X59594035Y-56572830D01*
X59693903Y-56358663D01*
X59755063Y-56130408D01*
X59775659Y-55895000D01*
X59755063Y-55659592D01*
X59693903Y-55431337D01*
X59594035Y-55217171D01*
X59557765Y-55165371D01*
X59458494Y-55023597D01*
X59291402Y-54856506D01*
X59291401Y-54856505D01*
X59119798Y-54736347D01*
X59105841Y-54726574D01*
X59062216Y-54671997D01*
X59055024Y-54602498D01*
X59086546Y-54540144D01*
X59105836Y-54523428D01*
X59291401Y-54393495D01*
X59458495Y-54226401D01*
X59594035Y-54032830D01*
X59693903Y-53818663D01*
X59755063Y-53590408D01*
X59775659Y-53355000D01*
X59755063Y-53119592D01*
X59703776Y-52928183D01*
X59693905Y-52891344D01*
X59693904Y-52891343D01*
X59693903Y-52891337D01*
X59594035Y-52677171D01*
X59590286Y-52671817D01*
X59458496Y-52483600D01*
X59401907Y-52427011D01*
X59336567Y-52361671D01*
X59303084Y-52300351D01*
X59308068Y-52230659D01*
X59349939Y-52174725D01*
X59380915Y-52157810D01*
X59512331Y-52108796D01*
X59627546Y-52022546D01*
X59713796Y-51907331D01*
X59764091Y-51772483D01*
X59770500Y-51712873D01*
X59770499Y-49917128D01*
X59764091Y-49857517D01*
X59713796Y-49722669D01*
X59713795Y-49722668D01*
X59713793Y-49722664D01*
X59627547Y-49607455D01*
X59627544Y-49607452D01*
X59512335Y-49521206D01*
X59512328Y-49521202D01*
X59377482Y-49470908D01*
X59377483Y-49470908D01*
X59317883Y-49464501D01*
X59317881Y-49464500D01*
X59317873Y-49464500D01*
X59317864Y-49464500D01*
X57522129Y-49464500D01*
X57522123Y-49464501D01*
X57462516Y-49470908D01*
X57327671Y-49521202D01*
X57327664Y-49521206D01*
X57212455Y-49607452D01*
X57212452Y-49607455D01*
X57126206Y-49722664D01*
X57126202Y-49722671D01*
X57075908Y-49857517D01*
X57070983Y-49903334D01*
X57069501Y-49917123D01*
X57069500Y-49917135D01*
X57069500Y-51712870D01*
X57069501Y-51712876D01*
X57075908Y-51772483D01*
X57126202Y-51907328D01*
X57126206Y-51907335D01*
X57212452Y-52022544D01*
X57212455Y-52022547D01*
X57327664Y-52108793D01*
X57327671Y-52108797D01*
X57459081Y-52157810D01*
X57515015Y-52199681D01*
X57539432Y-52265145D01*
X57524580Y-52333418D01*
X57503430Y-52361673D01*
X57381503Y-52483600D01*
X57245965Y-52677169D01*
X57245964Y-52677171D01*
X57146098Y-52891335D01*
X57146094Y-52891344D01*
X57084938Y-53119586D01*
X57084936Y-53119596D01*
X57064341Y-53354999D01*
X57064341Y-53355000D01*
X57084936Y-53590403D01*
X57084938Y-53590413D01*
X57146094Y-53818655D01*
X57146096Y-53818659D01*
X57146097Y-53818663D01*
X57245964Y-54032829D01*
X57245965Y-54032830D01*
X57245967Y-54032834D01*
X57381501Y-54226395D01*
X57381506Y-54226402D01*
X57548597Y-54393493D01*
X57548603Y-54393498D01*
X57734158Y-54523425D01*
X57777783Y-54578002D01*
X57784977Y-54647500D01*
X57753454Y-54709855D01*
X57734158Y-54726575D01*
X57548597Y-54856505D01*
X57381505Y-55023597D01*
X57245965Y-55217169D01*
X57245964Y-55217171D01*
X57146098Y-55431335D01*
X57146094Y-55431344D01*
X57084938Y-55659586D01*
X57084936Y-55659596D01*
X57064341Y-55894999D01*
X57064341Y-55895000D01*
X57084936Y-56130403D01*
X57084938Y-56130413D01*
X57146094Y-56358655D01*
X57146096Y-56358659D01*
X57146097Y-56358663D01*
X57207802Y-56490989D01*
X57245965Y-56572830D01*
X57245967Y-56572834D01*
X57381501Y-56766395D01*
X57381506Y-56766402D01*
X57548597Y-56933493D01*
X57548603Y-56933498D01*
X57734158Y-57063425D01*
X57777783Y-57118002D01*
X57784977Y-57187500D01*
X57753454Y-57249855D01*
X57734158Y-57266575D01*
X57548597Y-57396505D01*
X57381506Y-57563596D01*
X57298864Y-57681623D01*
X57244287Y-57725248D01*
X57197289Y-57734500D01*
X57036019Y-57734500D01*
X56968980Y-57714815D01*
X56948338Y-57698181D01*
X55066003Y-55815846D01*
X55032518Y-55754523D01*
X55030365Y-55741143D01*
X55025174Y-55691744D01*
X55014728Y-55659596D01*
X54966681Y-55511722D01*
X54966680Y-55511721D01*
X54966679Y-55511716D01*
X54872033Y-55347784D01*
X54745371Y-55207112D01*
X54745370Y-55207111D01*
X54592234Y-55095851D01*
X54592229Y-55095848D01*
X54419307Y-55018857D01*
X54419302Y-55018855D01*
X54273501Y-54987865D01*
X54234146Y-54979500D01*
X54164500Y-54979500D01*
X54097461Y-54959815D01*
X54051706Y-54907011D01*
X54040500Y-54855501D01*
X54040500Y-54755659D01*
X54040500Y-54633001D01*
X54040610Y-54629323D01*
X54044357Y-54567394D01*
X54033177Y-54506386D01*
X54032615Y-54502689D01*
X54025308Y-54442512D01*
X54025140Y-54441128D01*
X54021546Y-54431651D01*
X54015519Y-54410029D01*
X54013694Y-54400070D01*
X54013694Y-54400068D01*
X53988241Y-54343514D01*
X53986807Y-54340052D01*
X53970811Y-54297873D01*
X53964818Y-54282070D01*
X53959058Y-54273726D01*
X53948035Y-54254180D01*
X53943878Y-54244943D01*
X53905617Y-54196107D01*
X53903417Y-54193117D01*
X53886786Y-54169021D01*
X53868185Y-54142073D01*
X53868183Y-54142071D01*
X53821750Y-54100935D01*
X53819056Y-54098399D01*
X52441598Y-52720941D01*
X52439064Y-52718250D01*
X52397929Y-52671817D01*
X52397928Y-52671816D01*
X52397924Y-52671812D01*
X52346896Y-52636591D01*
X52343887Y-52634377D01*
X52295060Y-52596124D01*
X52295055Y-52596120D01*
X52285813Y-52591961D01*
X52266266Y-52580936D01*
X52257931Y-52575183D01*
X52257932Y-52575183D01*
X52257930Y-52575182D01*
X52199941Y-52553189D01*
X52196490Y-52551759D01*
X52139930Y-52526304D01*
X52129946Y-52524474D01*
X52108343Y-52518451D01*
X52098874Y-52514860D01*
X52098870Y-52514859D01*
X52037313Y-52507384D01*
X52033612Y-52506821D01*
X51972608Y-52495642D01*
X51972603Y-52495642D01*
X51910697Y-52499387D01*
X51906952Y-52499500D01*
X50404500Y-52499500D01*
X50337461Y-52479815D01*
X50291706Y-52427011D01*
X50280500Y-52375500D01*
X50280499Y-52102130D01*
X50280498Y-52102123D01*
X50274488Y-52046206D01*
X50274091Y-52042517D01*
X50274090Y-52042515D01*
X50274090Y-52042512D01*
X50272308Y-52034969D01*
X50273773Y-52034622D01*
X50269409Y-51973651D01*
X50273819Y-51958633D01*
X50274089Y-51957488D01*
X50274088Y-51957488D01*
X50274091Y-51957483D01*
X50280500Y-51897873D01*
X50280499Y-51302128D01*
X50274091Y-51242517D01*
X50274091Y-51242516D01*
X50272307Y-51234966D01*
X50273559Y-51234669D01*
X50269145Y-51172924D01*
X50273132Y-51159346D01*
X50273598Y-51157375D01*
X50279999Y-51097844D01*
X50279999Y-50797182D01*
X50299683Y-50730143D01*
X50352487Y-50684388D01*
X50381653Y-50675212D01*
X50382641Y-50675030D01*
X50389932Y-50673695D01*
X50446512Y-50648229D01*
X50449942Y-50646809D01*
X50507930Y-50624818D01*
X50516266Y-50619062D01*
X50535821Y-50608034D01*
X50545057Y-50603878D01*
X50593896Y-50565613D01*
X50596876Y-50563421D01*
X50647929Y-50528183D01*
X50689065Y-50481748D01*
X50691599Y-50479056D01*
X54421157Y-46749497D01*
X54423849Y-46746963D01*
X54470292Y-46705820D01*
X54505536Y-46654758D01*
X54507743Y-46651760D01*
X54516251Y-46640901D01*
X54545987Y-46602947D01*
X54550146Y-46593704D01*
X54561170Y-46574159D01*
X54566927Y-46565821D01*
X54588919Y-46507830D01*
X54590341Y-46504394D01*
X54615804Y-46447822D01*
X54617631Y-46437850D01*
X54623655Y-46416238D01*
X54627249Y-46406763D01*
X54634722Y-46345215D01*
X54635286Y-46341510D01*
X54646467Y-46280495D01*
X54642721Y-46218587D01*
X54642608Y-46214842D01*
X54642608Y-45112988D01*
X54642608Y-44153879D01*
X54662293Y-44086844D01*
X54715097Y-44041089D01*
X54784255Y-44031145D01*
X54817043Y-44040603D01*
X54942095Y-44096281D01*
X55127252Y-44135637D01*
X55127253Y-44135637D01*
X55316542Y-44135637D01*
X55316544Y-44135637D01*
X55501701Y-44096281D01*
X55674628Y-44019288D01*
X55716986Y-43988513D01*
X55757169Y-43959319D01*
X55822975Y-43935839D01*
X55830054Y-43935637D01*
X57235896Y-43935637D01*
X57302935Y-43955322D01*
X57337470Y-43988513D01*
X57381505Y-44051401D01*
X57548597Y-44218493D01*
X57548603Y-44218498D01*
X57734158Y-44348425D01*
X57777783Y-44403002D01*
X57784977Y-44472500D01*
X57753454Y-44534855D01*
X57734158Y-44551575D01*
X57548597Y-44681505D01*
X57381505Y-44848597D01*
X57245965Y-45042169D01*
X57245964Y-45042171D01*
X57146098Y-45256335D01*
X57146094Y-45256344D01*
X57084938Y-45484586D01*
X57084936Y-45484596D01*
X57064341Y-45719999D01*
X57064341Y-45720000D01*
X57084936Y-45955403D01*
X57084938Y-45955413D01*
X57146094Y-46183655D01*
X57146096Y-46183659D01*
X57146097Y-46183663D01*
X57221430Y-46345215D01*
X57245965Y-46397830D01*
X57245967Y-46397834D01*
X57320565Y-46504370D01*
X57381505Y-46591401D01*
X57548599Y-46758495D01*
X57638425Y-46821392D01*
X57742165Y-46894032D01*
X57742167Y-46894033D01*
X57742170Y-46894035D01*
X57956337Y-46993903D01*
X58184592Y-47055063D01*
X58372918Y-47071539D01*
X58419999Y-47075659D01*
X58420000Y-47075659D01*
X58420001Y-47075659D01*
X58459234Y-47072226D01*
X58655408Y-47055063D01*
X58883663Y-46993903D01*
X59097830Y-46894035D01*
X59291401Y-46758495D01*
X59458495Y-46591401D01*
X59594035Y-46397830D01*
X59693903Y-46183663D01*
X59755063Y-45955408D01*
X59775659Y-45720000D01*
X59755063Y-45484592D01*
X59750558Y-45467779D01*
X59752219Y-45397932D01*
X59782649Y-45348006D01*
X60169056Y-44961599D01*
X60171748Y-44959065D01*
X60218183Y-44917929D01*
X60253436Y-44866855D01*
X60255613Y-44863896D01*
X60293878Y-44815057D01*
X60298037Y-44805815D01*
X60309062Y-44786268D01*
X60314818Y-44777930D01*
X60336820Y-44719912D01*
X60338235Y-44716495D01*
X60363694Y-44659932D01*
X60365520Y-44649965D01*
X60371548Y-44628340D01*
X60375140Y-44618872D01*
X60382615Y-44557309D01*
X60383179Y-44553605D01*
X60390803Y-44511998D01*
X60394357Y-44492606D01*
X60390613Y-44430707D01*
X60390500Y-44426963D01*
X60390500Y-42705268D01*
X60390613Y-42701523D01*
X60394357Y-42639627D01*
X60383177Y-42578619D01*
X60382615Y-42574922D01*
X60375140Y-42513362D01*
X60375139Y-42513358D01*
X60371546Y-42503884D01*
X60365519Y-42482262D01*
X60363694Y-42472303D01*
X60363694Y-42472301D01*
X60338239Y-42415745D01*
X60336809Y-42412290D01*
X60318995Y-42365318D01*
X60314818Y-42354303D01*
X60309059Y-42345960D01*
X60298030Y-42326405D01*
X60296767Y-42323599D01*
X60293877Y-42317176D01*
X60293874Y-42317171D01*
X60255633Y-42268360D01*
X60253413Y-42265343D01*
X60239829Y-42245664D01*
X60218183Y-42214304D01*
X60171750Y-42173168D01*
X60169056Y-42170632D01*
X59553207Y-41554782D01*
X59519722Y-41493460D01*
X59524706Y-41423768D01*
X59539309Y-41395984D01*
X59594035Y-41317830D01*
X59693903Y-41103663D01*
X59755063Y-40875408D01*
X59775659Y-40640000D01*
X59774702Y-40629067D01*
X59768006Y-40552529D01*
X59755063Y-40404592D01*
X59693903Y-40176337D01*
X59594035Y-39962171D01*
X59571683Y-39930248D01*
X59458494Y-39768597D01*
X59291402Y-39601506D01*
X59291396Y-39601501D01*
X59105842Y-39471575D01*
X59062217Y-39416998D01*
X59055023Y-39347500D01*
X59086546Y-39285145D01*
X59105842Y-39268425D01*
X59229635Y-39181744D01*
X59291401Y-39138495D01*
X59458495Y-38971401D01*
X59594035Y-38777830D01*
X59693903Y-38563663D01*
X59755063Y-38335408D01*
X59775659Y-38100000D01*
X59755063Y-37864592D01*
X59693903Y-37636337D01*
X59594035Y-37422171D01*
X59519590Y-37315851D01*
X59458494Y-37228597D01*
X59291402Y-37061506D01*
X59291396Y-37061501D01*
X59105842Y-36931575D01*
X59062217Y-36876998D01*
X59055023Y-36807500D01*
X59086546Y-36745145D01*
X59105842Y-36728425D01*
X59177016Y-36678588D01*
X59291401Y-36598495D01*
X59458495Y-36431401D01*
X59594035Y-36237830D01*
X59693903Y-36023663D01*
X59755063Y-35795408D01*
X59775659Y-35560000D01*
X59755063Y-35324592D01*
X59693903Y-35096337D01*
X59594035Y-34882171D01*
X59458495Y-34688599D01*
X59458494Y-34688597D01*
X59291402Y-34521506D01*
X59291396Y-34521501D01*
X59105842Y-34391575D01*
X59062217Y-34336998D01*
X59055023Y-34267500D01*
X59086546Y-34205145D01*
X59105842Y-34188425D01*
X59248198Y-34088746D01*
X59291401Y-34058495D01*
X59458495Y-33891401D01*
X59594035Y-33697830D01*
X59693903Y-33483663D01*
X59755063Y-33255408D01*
X59775659Y-33020000D01*
X59755063Y-32784592D01*
X59696373Y-32565555D01*
X59693905Y-32556344D01*
X59693904Y-32556343D01*
X59693903Y-32556337D01*
X59594035Y-32342171D01*
X59573482Y-32312817D01*
X59458494Y-32148597D01*
X59291402Y-31981506D01*
X59291396Y-31981501D01*
X59105842Y-31851575D01*
X59062217Y-31796998D01*
X59055023Y-31727500D01*
X59086546Y-31665145D01*
X59105842Y-31648425D01*
X59193097Y-31587328D01*
X59291401Y-31518495D01*
X59458495Y-31351401D01*
X59594035Y-31157830D01*
X59693903Y-30943663D01*
X59755063Y-30715408D01*
X59775659Y-30480000D01*
X59755063Y-30244592D01*
X59693903Y-30016337D01*
X59594035Y-29802171D01*
X59588424Y-29794158D01*
X59458496Y-29608600D01*
X59399954Y-29550058D01*
X59336567Y-29486671D01*
X59303084Y-29425351D01*
X59308068Y-29355659D01*
X59349939Y-29299725D01*
X59380915Y-29282810D01*
X59512331Y-29233796D01*
X59627546Y-29147546D01*
X59713796Y-29032331D01*
X59764091Y-28897483D01*
X59770500Y-28837873D01*
X59770499Y-27042128D01*
X59764091Y-26982517D01*
X59746018Y-26934062D01*
X59713797Y-26847671D01*
X59713793Y-26847664D01*
X59627547Y-26732455D01*
X59627544Y-26732452D01*
X59512335Y-26646206D01*
X59512328Y-26646202D01*
X59377482Y-26595908D01*
X59377483Y-26595908D01*
X59317883Y-26589501D01*
X59317881Y-26589500D01*
X59317873Y-26589500D01*
X59317864Y-26589500D01*
X57522129Y-26589500D01*
X57522123Y-26589501D01*
X57462516Y-26595908D01*
X57327671Y-26646202D01*
X57327664Y-26646206D01*
X57212455Y-26732452D01*
X57212452Y-26732455D01*
X57126206Y-26847664D01*
X57126202Y-26847671D01*
X57075908Y-26982517D01*
X57069501Y-27042116D01*
X57069501Y-27042123D01*
X57069500Y-27042135D01*
X57069500Y-28248480D01*
X57049815Y-28315519D01*
X57033181Y-28336161D01*
X56483450Y-28885891D01*
X56480724Y-28888458D01*
X56434302Y-28929584D01*
X56399070Y-28980625D01*
X56396852Y-28983640D01*
X56358608Y-29032455D01*
X56358603Y-29032464D01*
X56354444Y-29041704D01*
X56343426Y-29061239D01*
X56337671Y-29069577D01*
X56337667Y-29069583D01*
X56337666Y-29069586D01*
X56337664Y-29069590D01*
X56337663Y-29069593D01*
X56315673Y-29127571D01*
X56314241Y-29131029D01*
X56288789Y-29187584D01*
X56286961Y-29197558D01*
X56280937Y-29219169D01*
X56277344Y-29228643D01*
X56277343Y-29228644D01*
X56269868Y-29290201D01*
X56269305Y-29293902D01*
X56258126Y-29354906D01*
X56258126Y-29354911D01*
X56261871Y-29416818D01*
X56261984Y-29420563D01*
X56261984Y-38216735D01*
X56242299Y-38283774D01*
X56225665Y-38304416D01*
X54252681Y-40277400D01*
X54191358Y-40310885D01*
X54121666Y-40305901D01*
X54065733Y-40264029D01*
X54041316Y-40198565D01*
X54041000Y-40189719D01*
X54041000Y-38320438D01*
X54041113Y-38316693D01*
X54041503Y-38310229D01*
X54044858Y-38254785D01*
X54040094Y-38228795D01*
X54038743Y-38193482D01*
X54038841Y-38192549D01*
X54048569Y-38100000D01*
X54028783Y-37911744D01*
X53970288Y-37731716D01*
X53875642Y-37567784D01*
X53748980Y-37427112D01*
X53748979Y-37427111D01*
X53595843Y-37315851D01*
X53595838Y-37315848D01*
X53422916Y-37238857D01*
X53422911Y-37238855D01*
X53277109Y-37207865D01*
X53237755Y-37199500D01*
X53048463Y-37199500D01*
X53016006Y-37206398D01*
X52863306Y-37238855D01*
X52863301Y-37238857D01*
X52690379Y-37315848D01*
X52690374Y-37315851D01*
X52537238Y-37427111D01*
X52410575Y-37567785D01*
X52315930Y-37731715D01*
X52315927Y-37731722D01*
X52257436Y-37911740D01*
X52257435Y-37911744D01*
X52255095Y-37934009D01*
X52238425Y-38092621D01*
X52237649Y-38100000D01*
X52257435Y-38288256D01*
X52257436Y-38288259D01*
X52285964Y-38376059D01*
X52287959Y-38445900D01*
X52251879Y-38505733D01*
X52218470Y-38527656D01*
X52087767Y-38585850D01*
X52087765Y-38585851D01*
X51934629Y-38697111D01*
X51807966Y-38837785D01*
X51713321Y-39001715D01*
X51713318Y-39001722D01*
X51654827Y-39181740D01*
X51654826Y-39181744D01*
X51635040Y-39370000D01*
X51654826Y-39558256D01*
X51654827Y-39558259D01*
X51683685Y-39647074D01*
X51685680Y-39716915D01*
X51649600Y-39776748D01*
X51616191Y-39798671D01*
X51487767Y-39855850D01*
X51487765Y-39855851D01*
X51334629Y-39967111D01*
X51207966Y-40107785D01*
X51113321Y-40271715D01*
X51113318Y-40271722D01*
X51054825Y-40451746D01*
X51053609Y-40457467D01*
X51020414Y-40518947D01*
X50959249Y-40552721D01*
X50889534Y-40548065D01*
X50881430Y-40544756D01*
X50840433Y-40526305D01*
X50840430Y-40526304D01*
X50830446Y-40524474D01*
X50808843Y-40518451D01*
X50799374Y-40514860D01*
X50799370Y-40514859D01*
X50737813Y-40507384D01*
X50734112Y-40506821D01*
X50673108Y-40495642D01*
X50673103Y-40495642D01*
X50611197Y-40499387D01*
X50607452Y-40499500D01*
X50404000Y-40499500D01*
X50336961Y-40479815D01*
X50291206Y-40427011D01*
X50280000Y-40375500D01*
X50280000Y-40102172D01*
X50279999Y-40102155D01*
X50273598Y-40042627D01*
X50273596Y-40042620D01*
X50223354Y-39907913D01*
X50223350Y-39907906D01*
X50137190Y-39792812D01*
X50137187Y-39792809D01*
X50022093Y-39706649D01*
X50022086Y-39706645D01*
X49887379Y-39656403D01*
X49887372Y-39656401D01*
X49827844Y-39650000D01*
X49783552Y-39650000D01*
X49020371Y-40413181D01*
X48959048Y-40446666D01*
X48932690Y-40449500D01*
X48427309Y-40449500D01*
X48360270Y-40429815D01*
X48339628Y-40413181D01*
X47576447Y-39650000D01*
X48283553Y-39650000D01*
X48680000Y-40046446D01*
X49076446Y-39650000D01*
X48283553Y-39650000D01*
X47576447Y-39650000D01*
X47532155Y-39650000D01*
X47472627Y-39656401D01*
X47472620Y-39656403D01*
X47337913Y-39706645D01*
X47337906Y-39706649D01*
X47222812Y-39792809D01*
X47222809Y-39792812D01*
X47136649Y-39907906D01*
X47136645Y-39907913D01*
X47086403Y-40042620D01*
X47086401Y-40042627D01*
X47080000Y-40102155D01*
X47080000Y-40697844D01*
X47086401Y-40757372D01*
X47088187Y-40764930D01*
X47086542Y-40765318D01*
X47090851Y-40825656D01*
X47085943Y-40842371D01*
X47085908Y-40842520D01*
X47079501Y-40902117D01*
X47079500Y-40902136D01*
X47079500Y-41497870D01*
X47079501Y-41497876D01*
X47085909Y-41557487D01*
X47087692Y-41565031D01*
X47086438Y-41565327D01*
X47090856Y-41627069D01*
X47086864Y-41640664D01*
X47086401Y-41642624D01*
X47080000Y-41702155D01*
X47080000Y-42297844D01*
X47086401Y-42357372D01*
X47088187Y-42364930D01*
X47086542Y-42365318D01*
X47090851Y-42425656D01*
X47085943Y-42442371D01*
X47085908Y-42442520D01*
X47079501Y-42502117D01*
X47079500Y-42502136D01*
X47079500Y-43097870D01*
X47079501Y-43097876D01*
X47085908Y-43157479D01*
X47087692Y-43165026D01*
X47086229Y-43165371D01*
X47090585Y-43226371D01*
X47086173Y-43241396D01*
X47085908Y-43242517D01*
X47079501Y-43302116D01*
X47079500Y-43302135D01*
X47079500Y-43602910D01*
X47059815Y-43669949D01*
X47007011Y-43715704D01*
X46977862Y-43724877D01*
X46970068Y-43726305D01*
X46970063Y-43726307D01*
X46913527Y-43751752D01*
X46910069Y-43753184D01*
X46852069Y-43775182D01*
X46843724Y-43780942D01*
X46824183Y-43791964D01*
X46814944Y-43796122D01*
X46814939Y-43796125D01*
X46766121Y-43834370D01*
X46763106Y-43836589D01*
X46712072Y-43871816D01*
X46712065Y-43871822D01*
X46670942Y-43918240D01*
X46668375Y-43920966D01*
X46501464Y-44087877D01*
X46498738Y-44090444D01*
X46452316Y-44131570D01*
X46417084Y-44182611D01*
X46414866Y-44185626D01*
X46376622Y-44234441D01*
X46376617Y-44234450D01*
X46372458Y-44243690D01*
X46361440Y-44263225D01*
X46355685Y-44271563D01*
X46355681Y-44271569D01*
X46355680Y-44271572D01*
X46355678Y-44271576D01*
X46355677Y-44271579D01*
X46333687Y-44329557D01*
X46332255Y-44333015D01*
X46306803Y-44389570D01*
X46304975Y-44399544D01*
X46298951Y-44421155D01*
X46295358Y-44430629D01*
X46295357Y-44430630D01*
X46287882Y-44492187D01*
X46287319Y-44495888D01*
X46276140Y-44556892D01*
X46276140Y-44556897D01*
X46279885Y-44618804D01*
X46279998Y-44622549D01*
X46279998Y-45112988D01*
X46260313Y-45180027D01*
X46228884Y-45213306D01*
X46100650Y-45306473D01*
X45973989Y-45447145D01*
X45879344Y-45611075D01*
X45879341Y-45611082D01*
X45824233Y-45780689D01*
X45820849Y-45791104D01*
X45801063Y-45979360D01*
X45820849Y-46167616D01*
X45820850Y-46167619D01*
X45879341Y-46347637D01*
X45879344Y-46347644D01*
X45973990Y-46511576D01*
X46045860Y-46591395D01*
X46100652Y-46652248D01*
X46253788Y-46763508D01*
X46253793Y-46763511D01*
X46426715Y-46840502D01*
X46426720Y-46840504D01*
X46611877Y-46879860D01*
X46611878Y-46879860D01*
X46801167Y-46879860D01*
X46801169Y-46879860D01*
X46930221Y-46852429D01*
X46999886Y-46857745D01*
X47055620Y-46899882D01*
X47079725Y-46965461D01*
X47080000Y-46973719D01*
X47080000Y-47097844D01*
X47086401Y-47157372D01*
X47088187Y-47164930D01*
X47086542Y-47165318D01*
X47090851Y-47225656D01*
X47085943Y-47242371D01*
X47085908Y-47242520D01*
X47079501Y-47302117D01*
X47079500Y-47302136D01*
X47079500Y-47897870D01*
X47079501Y-47897876D01*
X47085908Y-47957479D01*
X47087692Y-47965026D01*
X47086229Y-47965371D01*
X47090585Y-48026371D01*
X47086173Y-48041396D01*
X47085908Y-48042517D01*
X47079501Y-48102116D01*
X47079500Y-48102135D01*
X47079500Y-48175500D01*
X47059815Y-48242539D01*
X47007011Y-48288294D01*
X46955500Y-48299500D01*
X46895354Y-48299500D01*
X46862897Y-48306398D01*
X46710197Y-48338855D01*
X46710192Y-48338857D01*
X46537270Y-48415848D01*
X46537265Y-48415851D01*
X46454729Y-48475818D01*
X46388923Y-48499298D01*
X46381844Y-48499500D01*
X44944027Y-48499500D01*
X44940282Y-48499387D01*
X44878375Y-48495642D01*
X44878368Y-48495642D01*
X44817365Y-48506821D01*
X44813664Y-48507384D01*
X44752107Y-48514859D01*
X44752100Y-48514861D01*
X44742626Y-48518454D01*
X44721028Y-48524475D01*
X44711048Y-48526304D01*
X44654498Y-48551755D01*
X44651039Y-48553188D01*
X44593050Y-48575181D01*
X44593045Y-48575184D01*
X44584701Y-48580943D01*
X44565166Y-48591961D01*
X44555926Y-48596120D01*
X44555924Y-48596121D01*
X44507115Y-48634359D01*
X44504101Y-48636576D01*
X44453049Y-48671817D01*
X44453047Y-48671818D01*
X44411921Y-48718240D01*
X44409354Y-48720966D01*
X43809681Y-49320640D01*
X43748358Y-49354125D01*
X43678667Y-49349141D01*
X43622733Y-49307270D01*
X43598316Y-49241805D01*
X43598226Y-49240449D01*
X43597413Y-49227011D01*
X43595701Y-49198718D01*
X43595590Y-49195040D01*
X43595590Y-38159659D01*
X43615275Y-38092621D01*
X43631909Y-38071979D01*
X48037718Y-33666171D01*
X48099041Y-33632686D01*
X48125399Y-33629852D01*
X49597600Y-33629852D01*
X49601345Y-33629965D01*
X49608690Y-33630409D01*
X49663254Y-33633710D01*
X49700962Y-33626799D01*
X49724269Y-33622529D01*
X49727973Y-33621965D01*
X49745818Y-33619798D01*
X49789520Y-33614492D01*
X49798983Y-33610902D01*
X49820609Y-33604874D01*
X49821541Y-33604703D01*
X49830580Y-33603047D01*
X49887160Y-33577581D01*
X49890590Y-33576161D01*
X49948578Y-33554170D01*
X49956914Y-33548414D01*
X49976469Y-33537386D01*
X49985705Y-33533230D01*
X50034544Y-33494965D01*
X50037524Y-33492773D01*
X50088577Y-33457535D01*
X50129713Y-33411100D01*
X50132247Y-33408408D01*
X51698006Y-31842649D01*
X51759327Y-31809166D01*
X51817778Y-31810557D01*
X51834592Y-31815063D01*
X52022918Y-31831539D01*
X52069999Y-31835659D01*
X52070000Y-31835659D01*
X52070001Y-31835659D01*
X52109234Y-31832226D01*
X52305408Y-31815063D01*
X52533663Y-31753903D01*
X52747830Y-31654035D01*
X52941401Y-31518495D01*
X53108495Y-31351401D01*
X53244035Y-31157830D01*
X53343903Y-30943663D01*
X53405063Y-30715408D01*
X53425659Y-30480000D01*
X53405063Y-30244592D01*
X53343903Y-30016337D01*
X53244035Y-29802171D01*
X53238425Y-29794158D01*
X53108494Y-29608597D01*
X52941402Y-29441506D01*
X52941395Y-29441501D01*
X52747834Y-29305967D01*
X52747830Y-29305965D01*
X52698174Y-29282810D01*
X52533663Y-29206097D01*
X52533659Y-29206096D01*
X52533655Y-29206094D01*
X52305413Y-29144938D01*
X52305403Y-29144936D01*
X52070001Y-29124341D01*
X52069999Y-29124341D01*
X51834596Y-29144936D01*
X51834586Y-29144938D01*
X51606344Y-29206094D01*
X51606335Y-29206098D01*
X51392171Y-29305964D01*
X51392169Y-29305965D01*
X51198597Y-29441505D01*
X51031505Y-29608597D01*
X50901575Y-29794158D01*
X50846998Y-29837783D01*
X50777500Y-29844977D01*
X50715145Y-29813454D01*
X50698425Y-29794158D01*
X50568494Y-29608597D01*
X50401402Y-29441506D01*
X50401395Y-29441501D01*
X50207834Y-29305967D01*
X50207830Y-29305965D01*
X50158174Y-29282810D01*
X49993663Y-29206097D01*
X49993659Y-29206096D01*
X49993655Y-29206094D01*
X49765413Y-29144938D01*
X49765403Y-29144936D01*
X49530001Y-29124341D01*
X49529999Y-29124341D01*
X49294596Y-29144936D01*
X49294586Y-29144938D01*
X49066344Y-29206094D01*
X49066335Y-29206098D01*
X48852171Y-29305964D01*
X48852169Y-29305965D01*
X48658597Y-29441505D01*
X48491505Y-29608597D01*
X48361575Y-29794158D01*
X48306998Y-29837783D01*
X48237500Y-29844977D01*
X48175145Y-29813454D01*
X48158425Y-29794158D01*
X48028494Y-29608597D01*
X47861402Y-29441506D01*
X47861395Y-29441501D01*
X47667834Y-29305967D01*
X47667830Y-29305965D01*
X47618174Y-29282810D01*
X47453663Y-29206097D01*
X47453659Y-29206096D01*
X47453655Y-29206094D01*
X47225413Y-29144938D01*
X47225403Y-29144936D01*
X46990001Y-29124341D01*
X46989999Y-29124341D01*
X46754596Y-29144936D01*
X46754586Y-29144938D01*
X46526344Y-29206094D01*
X46526335Y-29206098D01*
X46312171Y-29305964D01*
X46312169Y-29305965D01*
X46118597Y-29441505D01*
X45951508Y-29608594D01*
X45821574Y-29794159D01*
X45766997Y-29837784D01*
X45697498Y-29844976D01*
X45635144Y-29813454D01*
X45618424Y-29794158D01*
X45488494Y-29608597D01*
X45321402Y-29441506D01*
X45321395Y-29441501D01*
X45127834Y-29305967D01*
X45127830Y-29305965D01*
X45078174Y-29282810D01*
X44913663Y-29206097D01*
X44913659Y-29206096D01*
X44913655Y-29206094D01*
X44685413Y-29144938D01*
X44685403Y-29144936D01*
X44450001Y-29124341D01*
X44449999Y-29124341D01*
X44214596Y-29144936D01*
X44214586Y-29144938D01*
X43986344Y-29206094D01*
X43986335Y-29206098D01*
X43772171Y-29305964D01*
X43772169Y-29305965D01*
X43578597Y-29441505D01*
X43411505Y-29608597D01*
X43281575Y-29794158D01*
X43226998Y-29837783D01*
X43157500Y-29844977D01*
X43095145Y-29813454D01*
X43078425Y-29794158D01*
X42948494Y-29608597D01*
X42781402Y-29441506D01*
X42781395Y-29441501D01*
X42587834Y-29305967D01*
X42587830Y-29305965D01*
X42538174Y-29282810D01*
X42373663Y-29206097D01*
X42373659Y-29206096D01*
X42373655Y-29206094D01*
X42145413Y-29144938D01*
X42145403Y-29144936D01*
X41910001Y-29124341D01*
X41909999Y-29124341D01*
X41674596Y-29144936D01*
X41674586Y-29144938D01*
X41446344Y-29206094D01*
X41446335Y-29206098D01*
X41232171Y-29305964D01*
X41232169Y-29305965D01*
X41038597Y-29441505D01*
X40871505Y-29608597D01*
X40741575Y-29794158D01*
X40686998Y-29837783D01*
X40617500Y-29844977D01*
X40555145Y-29813454D01*
X40538425Y-29794158D01*
X40408494Y-29608597D01*
X40241402Y-29441506D01*
X40241395Y-29441501D01*
X40047834Y-29305967D01*
X40047830Y-29305965D01*
X39998174Y-29282810D01*
X39833663Y-29206097D01*
X39833659Y-29206096D01*
X39833655Y-29206094D01*
X39605413Y-29144938D01*
X39605403Y-29144936D01*
X39370001Y-29124341D01*
X39369999Y-29124341D01*
X39134596Y-29144936D01*
X39134586Y-29144938D01*
X38906344Y-29206094D01*
X38906335Y-29206098D01*
X38692171Y-29305964D01*
X38692169Y-29305965D01*
X38498597Y-29441505D01*
X38331505Y-29608597D01*
X38201575Y-29794158D01*
X38146998Y-29837783D01*
X38077500Y-29844977D01*
X38015145Y-29813454D01*
X37998425Y-29794158D01*
X37868494Y-29608597D01*
X37701402Y-29441506D01*
X37701395Y-29441501D01*
X37507834Y-29305967D01*
X37507830Y-29305965D01*
X37458174Y-29282810D01*
X37293663Y-29206097D01*
X37293659Y-29206096D01*
X37293655Y-29206094D01*
X37065413Y-29144938D01*
X37065403Y-29144936D01*
X36830001Y-29124341D01*
X36829999Y-29124341D01*
X36594596Y-29144936D01*
X36594586Y-29144938D01*
X36366344Y-29206094D01*
X36366335Y-29206098D01*
X36152171Y-29305964D01*
X36152169Y-29305965D01*
X35958600Y-29441503D01*
X35836673Y-29563430D01*
X35775350Y-29596914D01*
X35705658Y-29591930D01*
X35649725Y-29550058D01*
X35632810Y-29519081D01*
X35583797Y-29387671D01*
X35583793Y-29387664D01*
X35497547Y-29272455D01*
X35497544Y-29272452D01*
X35382335Y-29186206D01*
X35382328Y-29186202D01*
X35247482Y-29135908D01*
X35247483Y-29135908D01*
X35187883Y-29129501D01*
X35187881Y-29129500D01*
X35187873Y-29129500D01*
X35187864Y-29129500D01*
X33392129Y-29129500D01*
X33392123Y-29129501D01*
X33332516Y-29135908D01*
X33197671Y-29186202D01*
X33197664Y-29186206D01*
X33082455Y-29272452D01*
X33082452Y-29272455D01*
X32996206Y-29387664D01*
X32996202Y-29387671D01*
X32945908Y-29522517D01*
X32939501Y-29582116D01*
X32939499Y-29582135D01*
X32939499Y-30788480D01*
X32919814Y-30855520D01*
X32903180Y-30876161D01*
X32348601Y-31430740D01*
X32287278Y-31464225D01*
X32217586Y-31459241D01*
X32161653Y-31417369D01*
X32137236Y-31351905D01*
X32136920Y-31343059D01*
X32136920Y-28227126D01*
X32156605Y-28160087D01*
X32173234Y-28139450D01*
X33525866Y-26786817D01*
X33587189Y-26753333D01*
X33613547Y-26750499D01*
X35217871Y-26750499D01*
X35217872Y-26750499D01*
X35277483Y-26744091D01*
X35412331Y-26693796D01*
X35527546Y-26607546D01*
X35613796Y-26492331D01*
X35617960Y-26481165D01*
X35659829Y-26425234D01*
X35725293Y-26400816D01*
X35734141Y-26400500D01*
X35735500Y-26400500D01*
X35802539Y-26420185D01*
X35848294Y-26472989D01*
X35859500Y-26524500D01*
X35859500Y-26644690D01*
X35857243Y-26733769D01*
X35857243Y-26733777D01*
X35868064Y-26794146D01*
X35868718Y-26798811D01*
X35874925Y-26859837D01*
X35874927Y-26859851D01*
X35885208Y-26892620D01*
X35887079Y-26900244D01*
X35893142Y-26934059D01*
X35893142Y-26934062D01*
X35915894Y-26991019D01*
X35917474Y-26995458D01*
X35935841Y-27053995D01*
X35935844Y-27054002D01*
X35952509Y-27084026D01*
X35955879Y-27091121D01*
X35968622Y-27123021D01*
X35968627Y-27123031D01*
X36002377Y-27174240D01*
X36004818Y-27178270D01*
X36034588Y-27231905D01*
X36034589Y-27231906D01*
X36034591Y-27231909D01*
X36056968Y-27257974D01*
X36061693Y-27264242D01*
X36080597Y-27292925D01*
X36123965Y-27336293D01*
X36127168Y-27339749D01*
X36167135Y-27386303D01*
X36194299Y-27407330D01*
X36200186Y-27412514D01*
X37020948Y-28233275D01*
X37082341Y-28297860D01*
X37082344Y-28297862D01*
X37082347Y-28297865D01*
X37116453Y-28321602D01*
X37132703Y-28332913D01*
X37136444Y-28335733D01*
X37183993Y-28374505D01*
X37214445Y-28390411D01*
X37221158Y-28394479D01*
X37249351Y-28414102D01*
X37305729Y-28438296D01*
X37309978Y-28440314D01*
X37364351Y-28468716D01*
X37391889Y-28476595D01*
X37397374Y-28478165D01*
X37404768Y-28480797D01*
X37436342Y-28494347D01*
X37436345Y-28494347D01*
X37436346Y-28494348D01*
X37496422Y-28506694D01*
X37501000Y-28507817D01*
X37503104Y-28508419D01*
X37559982Y-28524694D01*
X37594239Y-28527302D01*
X37602014Y-28528393D01*
X37635655Y-28535307D01*
X37635659Y-28535307D01*
X37696998Y-28535307D01*
X37701704Y-28535485D01*
X37728995Y-28537564D01*
X37762875Y-28540144D01*
X37762875Y-28540143D01*
X37762876Y-28540144D01*
X37796959Y-28535803D01*
X37804789Y-28535307D01*
X46698626Y-28535307D01*
X46787700Y-28537564D01*
X46787700Y-28537563D01*
X46787705Y-28537564D01*
X46848095Y-28526739D01*
X46852754Y-28526087D01*
X46894949Y-28521795D01*
X46913780Y-28519881D01*
X46946569Y-28509593D01*
X46954182Y-28507725D01*
X46987995Y-28501665D01*
X47044963Y-28478908D01*
X47049395Y-28477331D01*
X47107930Y-28458966D01*
X47137969Y-28442291D01*
X47145050Y-28438929D01*
X47176959Y-28426184D01*
X47228196Y-28392415D01*
X47232193Y-28389994D01*
X47285844Y-28360216D01*
X47311910Y-28337837D01*
X47318185Y-28333107D01*
X47344873Y-28315519D01*
X47346861Y-28314209D01*
X47390234Y-28270834D01*
X47393692Y-28267630D01*
X47415999Y-28248480D01*
X47440237Y-28227673D01*
X47461270Y-28200498D01*
X47466440Y-28194628D01*
X49038468Y-26622600D01*
X49103053Y-26561208D01*
X49138099Y-26510855D01*
X49140938Y-26507090D01*
X49152969Y-26492335D01*
X49179698Y-26459556D01*
X49195601Y-26429109D01*
X49199674Y-26422388D01*
X49204489Y-26415469D01*
X49219295Y-26394198D01*
X49235678Y-26356018D01*
X49261945Y-26317239D01*
X49340047Y-26239139D01*
X49470568Y-26052734D01*
X49566739Y-25846496D01*
X49625635Y-25626692D01*
X49645468Y-25400002D01*
X52035034Y-25400002D01*
X52054858Y-25626599D01*
X52054860Y-25626610D01*
X52113730Y-25846317D01*
X52113734Y-25846326D01*
X52209865Y-26052481D01*
X52209866Y-26052483D01*
X52260973Y-26125471D01*
X52260973Y-26125472D01*
X52802580Y-25583865D01*
X52863903Y-25550380D01*
X52933594Y-25555364D01*
X52989528Y-25597235D01*
X53000742Y-25615246D01*
X53003019Y-25619714D01*
X53012358Y-25638044D01*
X53012363Y-25638050D01*
X53101949Y-25727636D01*
X53101951Y-25727637D01*
X53101955Y-25727641D01*
X53124747Y-25739254D01*
X53175542Y-25787228D01*
X53192337Y-25855049D01*
X53169799Y-25921184D01*
X53156132Y-25937419D01*
X52614526Y-26479025D01*
X52614526Y-26479026D01*
X52687512Y-26530131D01*
X52687516Y-26530133D01*
X52893673Y-26626265D01*
X52893682Y-26626269D01*
X53113389Y-26685139D01*
X53113400Y-26685141D01*
X53339998Y-26704966D01*
X53340002Y-26704966D01*
X53566599Y-26685141D01*
X53566610Y-26685139D01*
X53786317Y-26626269D01*
X53786331Y-26626264D01*
X53992478Y-26530136D01*
X54065472Y-26479025D01*
X53523866Y-25937419D01*
X53490381Y-25876096D01*
X53495365Y-25806404D01*
X53537237Y-25750471D01*
X53555245Y-25739258D01*
X53578045Y-25727641D01*
X53667641Y-25638045D01*
X53679254Y-25615252D01*
X53727225Y-25564458D01*
X53795046Y-25547661D01*
X53861181Y-25570197D01*
X53877419Y-25583866D01*
X54419025Y-26125472D01*
X54470136Y-26052478D01*
X54566264Y-25846331D01*
X54566269Y-25846317D01*
X54625139Y-25626610D01*
X54625141Y-25626599D01*
X54644966Y-25400002D01*
X54644966Y-25399997D01*
X54625141Y-25173400D01*
X54625139Y-25173389D01*
X54566269Y-24953682D01*
X54566265Y-24953673D01*
X54470133Y-24747516D01*
X54470131Y-24747512D01*
X54419026Y-24674526D01*
X54419025Y-24674526D01*
X53877419Y-25216132D01*
X53816096Y-25249617D01*
X53746404Y-25244633D01*
X53690471Y-25202761D01*
X53679256Y-25184751D01*
X53667641Y-25161955D01*
X53667637Y-25161951D01*
X53667636Y-25161949D01*
X53578050Y-25072363D01*
X53578044Y-25072358D01*
X53568109Y-25067296D01*
X53555250Y-25060744D01*
X53504456Y-25012773D01*
X53487660Y-24944952D01*
X53510197Y-24878817D01*
X53523865Y-24862580D01*
X54065472Y-24320973D01*
X53992483Y-24269866D01*
X53992481Y-24269865D01*
X53786326Y-24173734D01*
X53786317Y-24173730D01*
X53566610Y-24114860D01*
X53566599Y-24114858D01*
X53340002Y-24095034D01*
X53339998Y-24095034D01*
X53113400Y-24114858D01*
X53113389Y-24114860D01*
X52893682Y-24173730D01*
X52893673Y-24173734D01*
X52687513Y-24269868D01*
X52614526Y-24320973D01*
X53156133Y-24862580D01*
X53189618Y-24923903D01*
X53184634Y-24993595D01*
X53142762Y-25049528D01*
X53124748Y-25060745D01*
X53101956Y-25072358D01*
X53101949Y-25072363D01*
X53012363Y-25161949D01*
X53012358Y-25161956D01*
X53000745Y-25184748D01*
X52952770Y-25235544D01*
X52884949Y-25252338D01*
X52818814Y-25229800D01*
X52802580Y-25216133D01*
X52260973Y-24674526D01*
X52209868Y-24747513D01*
X52113734Y-24953673D01*
X52113730Y-24953682D01*
X52054860Y-25173389D01*
X52054858Y-25173400D01*
X52035034Y-25399997D01*
X52035034Y-25400002D01*
X49645468Y-25400002D01*
X49645468Y-25400000D01*
X49625635Y-25173308D01*
X49566739Y-24953504D01*
X49470568Y-24747266D01*
X49340047Y-24560861D01*
X49340045Y-24560858D01*
X49179141Y-24399954D01*
X48992734Y-24269432D01*
X48992732Y-24269431D01*
X48786497Y-24173261D01*
X48786488Y-24173258D01*
X48566697Y-24114366D01*
X48566693Y-24114365D01*
X48566692Y-24114365D01*
X48566691Y-24114364D01*
X48566686Y-24114364D01*
X48340002Y-24094532D01*
X48339998Y-24094532D01*
X48113313Y-24114364D01*
X48113302Y-24114366D01*
X47893511Y-24173258D01*
X47893502Y-24173261D01*
X47687267Y-24269431D01*
X47687265Y-24269432D01*
X47500858Y-24399954D01*
X47339954Y-24560858D01*
X47209432Y-24747265D01*
X47209431Y-24747267D01*
X47113261Y-24953502D01*
X47113258Y-24953511D01*
X47054366Y-25173302D01*
X47054364Y-25173313D01*
X47034532Y-25399998D01*
X47034532Y-25400000D01*
X47054357Y-25626610D01*
X47054365Y-25626692D01*
X47054367Y-25626699D01*
X47067570Y-25675977D01*
X47065906Y-25745827D01*
X47035476Y-25795750D01*
X46333241Y-26497988D01*
X46271918Y-26531473D01*
X46245560Y-26534307D01*
X45554243Y-26534307D01*
X45487204Y-26514622D01*
X45441449Y-26461818D01*
X45431505Y-26392660D01*
X45460530Y-26329104D01*
X45466562Y-26322626D01*
X45518105Y-26271082D01*
X45653600Y-26077578D01*
X45753429Y-25863492D01*
X45753432Y-25863486D01*
X45810636Y-25650000D01*
X45093347Y-25650000D01*
X45026308Y-25630315D01*
X44980553Y-25577511D01*
X44970609Y-25508353D01*
X44974369Y-25491067D01*
X44980000Y-25471888D01*
X44980000Y-25328111D01*
X44974369Y-25308933D01*
X44974370Y-25239064D01*
X45012145Y-25180286D01*
X45075701Y-25151262D01*
X45093347Y-25150000D01*
X45810636Y-25150000D01*
X45810635Y-25149999D01*
X45753432Y-24936513D01*
X45753429Y-24936507D01*
X45653600Y-24722422D01*
X45653599Y-24722420D01*
X45518113Y-24528926D01*
X45518108Y-24528920D01*
X45351082Y-24361894D01*
X45157578Y-24226399D01*
X44943492Y-24126570D01*
X44943486Y-24126567D01*
X44730000Y-24069364D01*
X44729999Y-24069364D01*
X44729999Y-24787698D01*
X44710314Y-24854738D01*
X44657510Y-24900492D01*
X44588353Y-24910436D01*
X44515764Y-24900000D01*
X44515763Y-24900000D01*
X44444237Y-24900000D01*
X44444233Y-24900000D01*
X44371645Y-24910436D01*
X44302487Y-24900492D01*
X44249684Y-24854736D01*
X44230000Y-24787698D01*
X44230000Y-24069364D01*
X44229999Y-24069364D01*
X44016513Y-24126567D01*
X44016507Y-24126570D01*
X43802422Y-24226399D01*
X43802420Y-24226400D01*
X43608926Y-24361886D01*
X43608920Y-24361891D01*
X43441891Y-24528920D01*
X43441890Y-24528922D01*
X43311575Y-24715031D01*
X43256998Y-24758655D01*
X43187499Y-24765848D01*
X43125145Y-24734326D01*
X43108425Y-24715031D01*
X42978109Y-24528922D01*
X42978108Y-24528920D01*
X42811082Y-24361894D01*
X42617578Y-24226399D01*
X42403492Y-24126570D01*
X42403486Y-24126567D01*
X42190000Y-24069364D01*
X42190000Y-24787698D01*
X42170315Y-24854737D01*
X42117511Y-24900492D01*
X42048355Y-24910436D01*
X41975766Y-24900000D01*
X41975763Y-24900000D01*
X41904237Y-24900000D01*
X41904233Y-24900000D01*
X41831645Y-24910436D01*
X41762487Y-24900492D01*
X41709684Y-24854736D01*
X41690000Y-24787698D01*
X41690000Y-24069364D01*
X41689999Y-24069364D01*
X41476513Y-24126567D01*
X41476507Y-24126570D01*
X41262422Y-24226399D01*
X41262420Y-24226400D01*
X41068926Y-24361886D01*
X41068920Y-24361891D01*
X40901891Y-24528920D01*
X40901890Y-24528922D01*
X40771575Y-24715031D01*
X40716998Y-24758655D01*
X40647499Y-24765848D01*
X40585145Y-24734326D01*
X40568425Y-24715031D01*
X40438109Y-24528922D01*
X40438108Y-24528920D01*
X40271082Y-24361894D01*
X40077578Y-24226399D01*
X39863492Y-24126570D01*
X39863486Y-24126567D01*
X39650000Y-24069364D01*
X39650000Y-24787698D01*
X39630315Y-24854737D01*
X39577511Y-24900492D01*
X39508355Y-24910436D01*
X39435766Y-24900000D01*
X39435763Y-24900000D01*
X39364237Y-24900000D01*
X39364233Y-24900000D01*
X39291645Y-24910436D01*
X39222487Y-24900492D01*
X39169684Y-24854736D01*
X39150000Y-24787698D01*
X39150000Y-24069364D01*
X39149999Y-24069364D01*
X38936513Y-24126567D01*
X38936507Y-24126570D01*
X38722422Y-24226399D01*
X38722420Y-24226400D01*
X38528926Y-24361886D01*
X38528920Y-24361891D01*
X38361891Y-24528920D01*
X38361890Y-24528922D01*
X38231880Y-24714595D01*
X38177303Y-24758219D01*
X38107804Y-24765412D01*
X38045450Y-24733890D01*
X38028730Y-24714594D01*
X37898494Y-24528597D01*
X37731402Y-24361506D01*
X37731395Y-24361501D01*
X37537834Y-24225967D01*
X37537830Y-24225965D01*
X37537828Y-24225964D01*
X37323663Y-24126097D01*
X37323659Y-24126096D01*
X37323655Y-24126094D01*
X37095413Y-24064938D01*
X37095403Y-24064936D01*
X36860001Y-24044341D01*
X36859999Y-24044341D01*
X36624596Y-24064936D01*
X36624586Y-24064938D01*
X36396344Y-24126094D01*
X36396335Y-24126098D01*
X36182171Y-24225964D01*
X36182169Y-24225965D01*
X35988597Y-24361505D01*
X35986922Y-24363181D01*
X35986000Y-24363684D01*
X35984449Y-24364986D01*
X35984187Y-24364674D01*
X35925599Y-24396666D01*
X35899241Y-24399500D01*
X35734141Y-24399500D01*
X35667102Y-24379815D01*
X35621347Y-24327011D01*
X35617969Y-24318859D01*
X35613796Y-24307669D01*
X35613793Y-24307665D01*
X35613793Y-24307664D01*
X35527547Y-24192455D01*
X35527544Y-24192452D01*
X35412335Y-24106206D01*
X35412328Y-24106202D01*
X35277482Y-24055908D01*
X35277483Y-24055908D01*
X35217883Y-24049501D01*
X35217881Y-24049500D01*
X35217873Y-24049500D01*
X35217864Y-24049500D01*
X33422129Y-24049500D01*
X33422123Y-24049501D01*
X33362516Y-24055908D01*
X33227671Y-24106202D01*
X33227664Y-24106206D01*
X33112455Y-24192452D01*
X33112452Y-24192455D01*
X33026206Y-24307664D01*
X33026202Y-24307671D01*
X32975908Y-24442516D01*
X32970863Y-24489448D01*
X32944125Y-24553999D01*
X32927334Y-24569681D01*
X32928033Y-24570495D01*
X32897200Y-24596964D01*
X32890930Y-24601692D01*
X32862249Y-24620595D01*
X32862243Y-24620600D01*
X32818874Y-24663968D01*
X32815420Y-24667169D01*
X32768867Y-24707136D01*
X32747841Y-24734298D01*
X32742650Y-24740192D01*
X30437951Y-27044892D01*
X30373366Y-27106287D01*
X30338319Y-27156639D01*
X30335482Y-27160401D01*
X30296722Y-27207937D01*
X30296719Y-27207942D01*
X30280812Y-27238392D01*
X30276744Y-27245106D01*
X30257122Y-27273299D01*
X30232929Y-27329675D01*
X30230908Y-27333929D01*
X30202511Y-27388296D01*
X30202510Y-27388297D01*
X30193060Y-27421320D01*
X30190427Y-27428716D01*
X30176879Y-27460288D01*
X30164533Y-27520364D01*
X30163410Y-27524940D01*
X30146533Y-27583922D01*
X30146533Y-27583924D01*
X30143923Y-27618186D01*
X30142834Y-27625953D01*
X30137400Y-27652397D01*
X30135920Y-27659603D01*
X30135920Y-27720942D01*
X30135741Y-27725651D01*
X30131082Y-27786819D01*
X30133127Y-27802872D01*
X30135423Y-27820905D01*
X30135920Y-27828733D01*
X30135920Y-46640901D01*
X30116235Y-46707940D01*
X30063431Y-46753695D01*
X29994273Y-46763639D01*
X29930717Y-46734614D01*
X29924239Y-46728582D01*
X29302651Y-46106994D01*
X29269166Y-46045671D01*
X29270558Y-45987217D01*
X29275063Y-45970408D01*
X29295659Y-45735000D01*
X29275063Y-45499592D01*
X29213903Y-45271337D01*
X29114035Y-45057171D01*
X29046200Y-44960291D01*
X28978494Y-44863597D01*
X28811402Y-44696506D01*
X28811396Y-44696501D01*
X28625842Y-44566575D01*
X28582217Y-44511998D01*
X28575023Y-44442500D01*
X28606546Y-44380145D01*
X28625842Y-44363425D01*
X28715708Y-44300500D01*
X28811401Y-44233495D01*
X28978495Y-44066401D01*
X29114035Y-43872830D01*
X29213903Y-43658663D01*
X29275063Y-43430408D01*
X29295659Y-43195000D01*
X29294762Y-43184753D01*
X29288977Y-43118629D01*
X29275063Y-42959592D01*
X29213903Y-42731337D01*
X29114035Y-42517171D01*
X29111368Y-42513361D01*
X28978494Y-42323597D01*
X28811402Y-42156506D01*
X28811396Y-42156501D01*
X28625842Y-42026575D01*
X28582217Y-41971998D01*
X28575023Y-41902500D01*
X28606546Y-41840145D01*
X28625842Y-41823425D01*
X28766020Y-41725271D01*
X28811401Y-41693495D01*
X28978495Y-41526401D01*
X29114035Y-41332830D01*
X29213903Y-41118663D01*
X29275063Y-40890408D01*
X29295659Y-40655000D01*
X29275063Y-40419592D01*
X29213903Y-40191337D01*
X29114035Y-39977171D01*
X29081180Y-39930248D01*
X28978494Y-39783597D01*
X28811402Y-39616506D01*
X28811396Y-39616501D01*
X28625842Y-39486575D01*
X28582217Y-39431998D01*
X28575023Y-39362500D01*
X28606546Y-39300145D01*
X28625842Y-39283425D01*
X28658155Y-39260799D01*
X28811401Y-39153495D01*
X28978495Y-38986401D01*
X29114035Y-38792830D01*
X29213903Y-38578663D01*
X29275063Y-38350408D01*
X29295659Y-38115000D01*
X29275063Y-37879592D01*
X29213903Y-37651337D01*
X29114035Y-37437171D01*
X29029087Y-37315851D01*
X28978494Y-37243597D01*
X28811402Y-37076506D01*
X28811396Y-37076501D01*
X28625842Y-36946575D01*
X28582217Y-36891998D01*
X28575023Y-36822500D01*
X28606546Y-36760145D01*
X28625842Y-36743425D01*
X28648026Y-36727891D01*
X28811401Y-36613495D01*
X28978495Y-36446401D01*
X29114035Y-36252830D01*
X29213903Y-36038663D01*
X29275063Y-35810408D01*
X29295659Y-35575000D01*
X29275063Y-35339592D01*
X29213903Y-35111337D01*
X29114035Y-34897171D01*
X28978495Y-34703599D01*
X28978494Y-34703597D01*
X28811402Y-34536506D01*
X28811396Y-34536501D01*
X28625842Y-34406575D01*
X28582217Y-34351998D01*
X28575023Y-34282500D01*
X28606546Y-34220145D01*
X28625842Y-34203425D01*
X28664399Y-34176427D01*
X28811401Y-34073495D01*
X28978495Y-33906401D01*
X29114035Y-33712830D01*
X29213903Y-33498663D01*
X29275063Y-33270408D01*
X29295659Y-33035000D01*
X29275063Y-32799592D01*
X29213903Y-32571337D01*
X29114035Y-32357171D01*
X29106876Y-32346947D01*
X28978496Y-32163600D01*
X28963493Y-32148597D01*
X28856567Y-32041671D01*
X28823084Y-31980351D01*
X28828068Y-31910659D01*
X28869939Y-31854725D01*
X28900915Y-31837810D01*
X29032331Y-31788796D01*
X29147546Y-31702546D01*
X29233796Y-31587331D01*
X29284091Y-31452483D01*
X29290500Y-31392873D01*
X29290499Y-29597128D01*
X29284091Y-29537517D01*
X29278496Y-29522517D01*
X29233797Y-29402671D01*
X29233793Y-29402664D01*
X29147547Y-29287455D01*
X29147544Y-29287452D01*
X29032335Y-29201206D01*
X29032328Y-29201202D01*
X28897482Y-29150908D01*
X28897483Y-29150908D01*
X28837883Y-29144501D01*
X28837881Y-29144500D01*
X28837873Y-29144500D01*
X28837864Y-29144500D01*
X27042129Y-29144500D01*
X27042123Y-29144501D01*
X26982516Y-29150908D01*
X26847671Y-29201202D01*
X26847664Y-29201206D01*
X26732455Y-29287452D01*
X26732452Y-29287455D01*
X26646206Y-29402664D01*
X26646202Y-29402671D01*
X26595908Y-29537517D01*
X26590059Y-29591930D01*
X26589501Y-29597123D01*
X26589500Y-29597135D01*
X26589500Y-31392870D01*
X26589501Y-31392876D01*
X26595908Y-31452483D01*
X26646202Y-31587328D01*
X26646206Y-31587335D01*
X26732452Y-31702544D01*
X26732455Y-31702547D01*
X26847664Y-31788793D01*
X26847671Y-31788797D01*
X26979081Y-31837810D01*
X27035015Y-31879681D01*
X27059432Y-31945145D01*
X27044580Y-32013418D01*
X27023430Y-32041673D01*
X26901503Y-32163600D01*
X26765965Y-32357169D01*
X26765964Y-32357171D01*
X26666098Y-32571335D01*
X26666094Y-32571344D01*
X26604938Y-32799586D01*
X26604936Y-32799596D01*
X26584341Y-33034999D01*
X26584341Y-33035000D01*
X26604936Y-33270403D01*
X26604938Y-33270413D01*
X26666094Y-33498655D01*
X26666096Y-33498659D01*
X26666097Y-33498663D01*
X26758970Y-33697830D01*
X26765965Y-33712830D01*
X26765967Y-33712834D01*
X26901501Y-33906395D01*
X26901506Y-33906402D01*
X27068597Y-34073493D01*
X27068603Y-34073498D01*
X27254158Y-34203425D01*
X27297783Y-34258002D01*
X27304977Y-34327500D01*
X27273454Y-34389855D01*
X27254158Y-34406575D01*
X27068597Y-34536505D01*
X26901505Y-34703597D01*
X26765965Y-34897169D01*
X26765964Y-34897171D01*
X26666098Y-35111335D01*
X26666094Y-35111344D01*
X26604938Y-35339586D01*
X26604936Y-35339596D01*
X26584341Y-35574999D01*
X26584341Y-35575000D01*
X26604936Y-35810403D01*
X26604938Y-35810413D01*
X26666094Y-36038655D01*
X26666096Y-36038659D01*
X26666097Y-36038663D01*
X26758970Y-36237830D01*
X26765965Y-36252830D01*
X26765967Y-36252834D01*
X26901501Y-36446395D01*
X26901506Y-36446402D01*
X27068597Y-36613493D01*
X27068603Y-36613498D01*
X27254158Y-36743425D01*
X27297783Y-36798002D01*
X27304977Y-36867500D01*
X27273454Y-36929855D01*
X27254158Y-36946575D01*
X27068597Y-37076505D01*
X26901505Y-37243597D01*
X26765965Y-37437169D01*
X26765964Y-37437171D01*
X26666098Y-37651335D01*
X26666094Y-37651344D01*
X26604938Y-37879586D01*
X26604936Y-37879596D01*
X26584341Y-38114999D01*
X26584341Y-38115000D01*
X26604936Y-38350403D01*
X26604938Y-38350413D01*
X26666094Y-38578655D01*
X26666096Y-38578659D01*
X26666097Y-38578663D01*
X26721331Y-38697112D01*
X26765965Y-38792830D01*
X26765967Y-38792834D01*
X26901501Y-38986395D01*
X26901506Y-38986402D01*
X27068597Y-39153493D01*
X27068603Y-39153498D01*
X27254158Y-39283425D01*
X27297783Y-39338002D01*
X27304977Y-39407500D01*
X27273454Y-39469855D01*
X27254158Y-39486575D01*
X27068597Y-39616505D01*
X26901505Y-39783597D01*
X26765965Y-39977169D01*
X26765964Y-39977171D01*
X26705058Y-40107785D01*
X26666852Y-40189719D01*
X26666098Y-40191335D01*
X26666094Y-40191344D01*
X26604938Y-40419586D01*
X26604936Y-40419596D01*
X26584341Y-40654999D01*
X26584341Y-40655000D01*
X26604936Y-40890403D01*
X26604938Y-40890413D01*
X26666094Y-41118655D01*
X26666096Y-41118659D01*
X26666097Y-41118663D01*
X26758969Y-41317828D01*
X26765965Y-41332830D01*
X26765967Y-41332834D01*
X26901501Y-41526395D01*
X26901506Y-41526402D01*
X27068597Y-41693493D01*
X27068603Y-41693498D01*
X27254158Y-41823425D01*
X27297783Y-41878002D01*
X27304977Y-41947500D01*
X27273454Y-42009855D01*
X27254158Y-42026575D01*
X27068597Y-42156505D01*
X26901505Y-42323597D01*
X26765965Y-42517169D01*
X26765964Y-42517171D01*
X26666098Y-42731335D01*
X26666094Y-42731344D01*
X26604938Y-42959586D01*
X26604936Y-42959596D01*
X26584341Y-43194999D01*
X26584341Y-43195000D01*
X26604936Y-43430403D01*
X26604938Y-43430413D01*
X26666094Y-43658655D01*
X26666096Y-43658659D01*
X26666097Y-43658663D01*
X26765492Y-43871816D01*
X26765965Y-43872830D01*
X26765967Y-43872834D01*
X26901501Y-44066395D01*
X26901506Y-44066402D01*
X27068597Y-44233493D01*
X27068603Y-44233498D01*
X27254158Y-44363425D01*
X27297783Y-44418002D01*
X27304977Y-44487500D01*
X27273454Y-44549855D01*
X27254158Y-44566575D01*
X27068597Y-44696505D01*
X26901505Y-44863597D01*
X26765965Y-45057169D01*
X26765964Y-45057171D01*
X26666098Y-45271335D01*
X26666094Y-45271344D01*
X26604938Y-45499586D01*
X26604936Y-45499596D01*
X26584341Y-45734999D01*
X26584341Y-45735000D01*
X26604936Y-45970403D01*
X26604938Y-45970413D01*
X26666094Y-46198655D01*
X26666096Y-46198659D01*
X26666097Y-46198663D01*
X26675388Y-46218587D01*
X26765965Y-46412830D01*
X26765967Y-46412834D01*
X26873088Y-46565818D01*
X26899086Y-46602947D01*
X26901501Y-46606395D01*
X26901506Y-46606402D01*
X27068597Y-46773493D01*
X27068603Y-46773498D01*
X27254158Y-46903425D01*
X27297783Y-46958002D01*
X27304977Y-47027500D01*
X27273454Y-47089855D01*
X27254158Y-47106575D01*
X27068597Y-47236505D01*
X26901505Y-47403597D01*
X26765965Y-47597169D01*
X26765964Y-47597171D01*
X26666098Y-47811335D01*
X26666094Y-47811344D01*
X26604938Y-48039586D01*
X26604936Y-48039596D01*
X26584341Y-48274999D01*
X26584341Y-48275000D01*
X26604936Y-48510403D01*
X26604938Y-48510413D01*
X26666094Y-48738655D01*
X26666096Y-48738659D01*
X26666097Y-48738663D01*
X26731556Y-48879039D01*
X26765965Y-48952830D01*
X26765967Y-48952834D01*
X26864000Y-49092839D01*
X26901505Y-49146401D01*
X27068599Y-49313495D01*
X27119507Y-49349141D01*
X27262165Y-49449032D01*
X27262167Y-49449033D01*
X27262170Y-49449035D01*
X27476337Y-49548903D01*
X27704592Y-49610063D01*
X27892918Y-49626539D01*
X27939999Y-49630659D01*
X27940000Y-49630659D01*
X27940001Y-49630659D01*
X27979234Y-49627226D01*
X28175408Y-49610063D01*
X28192216Y-49605559D01*
X28262064Y-49607218D01*
X28311994Y-49637650D01*
X31552899Y-52878556D01*
X31555435Y-52881250D01*
X31596571Y-52927683D01*
X31647630Y-52962927D01*
X31650612Y-52965121D01*
X31699444Y-53003378D01*
X31699447Y-53003380D01*
X31699446Y-53003380D01*
X31708677Y-53007534D01*
X31728231Y-53018562D01*
X31736566Y-53024316D01*
X31736568Y-53024316D01*
X31736570Y-53024318D01*
X31794579Y-53046317D01*
X31797976Y-53047724D01*
X31845270Y-53069009D01*
X31854564Y-53073193D01*
X31854565Y-53073193D01*
X31854569Y-53073195D01*
X31864534Y-53075021D01*
X31886156Y-53081048D01*
X31887475Y-53081548D01*
X31895628Y-53084640D01*
X31940751Y-53090118D01*
X31957174Y-53092113D01*
X31960871Y-53092675D01*
X32021894Y-53103858D01*
X32077404Y-53100500D01*
X32083803Y-53100113D01*
X32087548Y-53100000D01*
X34884397Y-53100000D01*
X34951436Y-53119685D01*
X34997191Y-53172489D01*
X35007135Y-53241647D01*
X34978110Y-53305203D01*
X34972078Y-53311681D01*
X32680966Y-55602791D01*
X32678240Y-55605358D01*
X32631818Y-55646484D01*
X32596586Y-55697525D01*
X32594368Y-55700540D01*
X32556124Y-55749355D01*
X32556119Y-55749364D01*
X32551960Y-55758604D01*
X32540942Y-55778139D01*
X32535187Y-55786477D01*
X32535183Y-55786483D01*
X32535182Y-55786486D01*
X32535180Y-55786490D01*
X32535179Y-55786493D01*
X32513189Y-55844471D01*
X32511757Y-55847929D01*
X32486305Y-55904484D01*
X32484477Y-55914458D01*
X32478453Y-55936069D01*
X32474860Y-55945543D01*
X32474859Y-55945544D01*
X32467384Y-56007101D01*
X32466821Y-56010802D01*
X32455642Y-56071806D01*
X32455642Y-56071811D01*
X32459386Y-56133719D01*
X32459499Y-56137463D01*
X32459499Y-57938480D01*
X32439814Y-58005519D01*
X32423180Y-58026161D01*
X29499273Y-60950068D01*
X29437950Y-60983553D01*
X29368258Y-60978569D01*
X29312325Y-60936697D01*
X29288064Y-60873194D01*
X29275063Y-60724592D01*
X29213903Y-60496337D01*
X29114035Y-60282171D01*
X28987968Y-60102127D01*
X28978494Y-60088597D01*
X28811402Y-59921506D01*
X28811396Y-59921501D01*
X28625842Y-59791575D01*
X28582217Y-59736998D01*
X28575023Y-59667500D01*
X28606546Y-59605145D01*
X28625842Y-59588425D01*
X28681644Y-59549352D01*
X28811401Y-59458495D01*
X28978495Y-59291401D01*
X29114035Y-59097830D01*
X29213903Y-58883663D01*
X29275063Y-58655408D01*
X29295659Y-58420000D01*
X29275063Y-58184592D01*
X29213903Y-57956337D01*
X29114035Y-57742171D01*
X29102186Y-57725248D01*
X28978494Y-57548597D01*
X28811402Y-57381506D01*
X28811396Y-57381501D01*
X28625842Y-57251575D01*
X28582217Y-57196998D01*
X28575023Y-57127500D01*
X28606546Y-57065145D01*
X28625842Y-57048425D01*
X28718797Y-56983337D01*
X28811401Y-56918495D01*
X28978495Y-56751401D01*
X29114035Y-56557830D01*
X29213903Y-56343663D01*
X29275063Y-56115408D01*
X29295659Y-55880000D01*
X29275063Y-55644592D01*
X29213903Y-55416337D01*
X29114035Y-55202171D01*
X29088267Y-55165371D01*
X28978496Y-55008600D01*
X28929711Y-54959815D01*
X28856567Y-54886671D01*
X28823084Y-54825351D01*
X28828068Y-54755659D01*
X28869939Y-54699725D01*
X28900915Y-54682810D01*
X29032331Y-54633796D01*
X29147546Y-54547546D01*
X29233796Y-54432331D01*
X29284091Y-54297483D01*
X29290500Y-54237873D01*
X29290499Y-52442128D01*
X29284091Y-52382517D01*
X29265778Y-52333418D01*
X29233797Y-52247671D01*
X29233793Y-52247664D01*
X29147547Y-52132455D01*
X29147544Y-52132452D01*
X29032335Y-52046206D01*
X29032328Y-52046202D01*
X28897482Y-51995908D01*
X28897483Y-51995908D01*
X28837883Y-51989501D01*
X28837881Y-51989500D01*
X28837873Y-51989500D01*
X28837864Y-51989500D01*
X27042129Y-51989500D01*
X27042123Y-51989501D01*
X26982516Y-51995908D01*
X26847671Y-52046202D01*
X26847664Y-52046206D01*
X26732455Y-52132452D01*
X26732452Y-52132455D01*
X26646206Y-52247664D01*
X26646202Y-52247671D01*
X26595908Y-52382517D01*
X26591650Y-52422128D01*
X26589501Y-52442123D01*
X26589500Y-52442135D01*
X26589500Y-54237870D01*
X26589501Y-54237876D01*
X26595908Y-54297483D01*
X26646202Y-54432328D01*
X26646206Y-54432335D01*
X26732452Y-54547544D01*
X26732455Y-54547547D01*
X26847664Y-54633793D01*
X26847671Y-54633797D01*
X26979081Y-54682810D01*
X27035015Y-54724681D01*
X27059432Y-54790145D01*
X27044580Y-54858418D01*
X27023430Y-54886673D01*
X26901503Y-55008600D01*
X26765965Y-55202169D01*
X26765964Y-55202171D01*
X26666098Y-55416335D01*
X26666094Y-55416344D01*
X26604938Y-55644586D01*
X26604936Y-55644596D01*
X26584341Y-55879999D01*
X26584341Y-55880000D01*
X26604936Y-56115403D01*
X26604938Y-56115413D01*
X26666094Y-56343655D01*
X26666096Y-56343659D01*
X26666097Y-56343663D01*
X26744956Y-56512777D01*
X26765965Y-56557830D01*
X26765967Y-56557834D01*
X26901501Y-56751395D01*
X26901506Y-56751402D01*
X27068597Y-56918493D01*
X27068603Y-56918498D01*
X27254158Y-57048425D01*
X27297783Y-57103002D01*
X27304977Y-57172500D01*
X27273454Y-57234855D01*
X27254158Y-57251575D01*
X27068597Y-57381505D01*
X26901505Y-57548597D01*
X26765965Y-57742169D01*
X26765964Y-57742171D01*
X26666098Y-57956335D01*
X26666094Y-57956344D01*
X26604938Y-58184586D01*
X26604936Y-58184596D01*
X26584341Y-58419999D01*
X26584341Y-58420000D01*
X26604936Y-58655403D01*
X26604938Y-58655413D01*
X26666094Y-58883655D01*
X26666096Y-58883659D01*
X26666097Y-58883663D01*
X26753835Y-59071817D01*
X26765965Y-59097830D01*
X26765967Y-59097834D01*
X26901501Y-59291395D01*
X26901506Y-59291402D01*
X27068597Y-59458493D01*
X27068603Y-59458498D01*
X27254158Y-59588425D01*
X27297783Y-59643002D01*
X27304977Y-59712500D01*
X27273454Y-59774855D01*
X27254158Y-59791575D01*
X27068597Y-59921505D01*
X26901505Y-60088597D01*
X26765965Y-60282169D01*
X26765964Y-60282171D01*
X26666098Y-60496335D01*
X26666094Y-60496344D01*
X26604938Y-60724586D01*
X26604936Y-60724596D01*
X26584341Y-60959999D01*
X26584341Y-60960000D01*
X26604936Y-61195403D01*
X26604938Y-61195413D01*
X26666094Y-61423655D01*
X26666096Y-61423659D01*
X26666097Y-61423663D01*
X26737175Y-61576089D01*
X26765965Y-61637830D01*
X26765967Y-61637834D01*
X26901501Y-61831395D01*
X26901506Y-61831402D01*
X27068597Y-61998493D01*
X27068603Y-61998498D01*
X27254158Y-62128425D01*
X27297783Y-62183002D01*
X27304977Y-62252500D01*
X27273454Y-62314855D01*
X27254158Y-62331575D01*
X27068597Y-62461505D01*
X26901505Y-62628597D01*
X26765965Y-62822169D01*
X26765964Y-62822171D01*
X26666098Y-63036335D01*
X26666094Y-63036344D01*
X26604938Y-63264586D01*
X26604936Y-63264596D01*
X26584341Y-63499999D01*
X26584341Y-63500000D01*
X26604936Y-63735403D01*
X26604938Y-63735413D01*
X26666094Y-63963655D01*
X26666096Y-63963659D01*
X26666097Y-63963663D01*
X26765965Y-64177829D01*
X26765965Y-64177830D01*
X26765967Y-64177834D01*
X26901501Y-64371395D01*
X26901506Y-64371402D01*
X27068597Y-64538493D01*
X27068603Y-64538498D01*
X27254158Y-64668425D01*
X27297783Y-64723002D01*
X27304977Y-64792500D01*
X27273454Y-64854855D01*
X27254158Y-64871575D01*
X27068597Y-65001505D01*
X26901505Y-65168597D01*
X26765965Y-65362169D01*
X26765964Y-65362171D01*
X26666098Y-65576335D01*
X26666094Y-65576344D01*
X26604938Y-65804586D01*
X26604936Y-65804596D01*
X26584341Y-66039999D01*
X26584341Y-66040000D01*
X26604936Y-66275403D01*
X26604938Y-66275413D01*
X26666094Y-66503655D01*
X26666096Y-66503659D01*
X26666097Y-66503663D01*
X26720591Y-66620525D01*
X26765965Y-66717830D01*
X26765967Y-66717834D01*
X26901501Y-66911395D01*
X26901506Y-66911402D01*
X27068597Y-67078493D01*
X27068603Y-67078498D01*
X27254158Y-67208425D01*
X27297783Y-67263002D01*
X27304977Y-67332500D01*
X27273454Y-67394855D01*
X27254158Y-67411575D01*
X27068597Y-67541505D01*
X26901505Y-67708597D01*
X26765965Y-67902169D01*
X26765964Y-67902171D01*
X26745703Y-67945622D01*
X26666340Y-68115817D01*
X26666098Y-68116335D01*
X26666094Y-68116344D01*
X26604938Y-68344586D01*
X26604936Y-68344596D01*
X26584341Y-68579999D01*
X26584341Y-68580000D01*
X26604936Y-68815403D01*
X26604938Y-68815413D01*
X26666094Y-69043655D01*
X26666096Y-69043659D01*
X26666097Y-69043663D01*
X26753572Y-69231253D01*
X26765965Y-69257830D01*
X26765967Y-69257834D01*
X26901501Y-69451395D01*
X26901506Y-69451402D01*
X27068597Y-69618493D01*
X27068603Y-69618498D01*
X27254158Y-69748425D01*
X27297783Y-69803002D01*
X27304977Y-69872500D01*
X27273454Y-69934855D01*
X27254158Y-69951575D01*
X27068597Y-70081505D01*
X26901505Y-70248597D01*
X26765965Y-70442169D01*
X26765964Y-70442171D01*
X26666098Y-70656335D01*
X26666094Y-70656344D01*
X26604938Y-70884586D01*
X26604936Y-70884596D01*
X26584341Y-71119999D01*
X26584341Y-71120000D01*
X25400500Y-71120000D01*
X25400500Y-22984500D01*
X25420185Y-22917461D01*
X25472989Y-22871706D01*
X25524500Y-22860500D01*
X60835500Y-22860500D01*
X60902539Y-22880185D01*
G37*
G04 #@! TD.AperFunction*
G04 #@! TD*
M02*
