M48
; DRILL file {KiCad 7.0.7} date Sun Oct 29 22:24:59 2023
; FORMAT={-:-/ absolute / metric / decimal}
; #@! TF.CreationDate,2023-10-29T22:24:59+09:00
; #@! TF.GenerationSoftware,Kicad,Pcbnew,7.0.7
; #@! TF.FileFunction,MixedPlating,1,2
FMAT,2
METRIC
; #@! TA.AperFunction,Plated,PTH,ViaDrill
T1C0.400
; #@! TA.AperFunction,Plated,PTH,ComponentDrill
T2C0.800
; #@! TA.AperFunction,Plated,PTH,ComponentDrill
T3C1.000
%
G90
G05
T1
X26.847Y-75.38
X26.942Y-50.911
X26.982Y-24.297
X28.368Y-26.708
X29.03Y-73.946
X29.661Y-39.378
X29.714Y-59.822
X29.781Y-51.929
X29.815Y-24.237
X30.985Y-71.857
X31.136Y-38.036
X31.161Y-46.77
X31.267Y-75.5
X32.795Y-43.366
X32.969Y-48.689
X33.157Y-54.093
X33.503Y-70.143
X33.505Y-27.954
X33.68Y-39.84
X33.706Y-67.369
X34.026Y-42.257
X34.268Y-45.174
X34.709Y-40.401
X34.831Y-50.075
X35.211Y-43.599
X35.56Y-52.399
X36.184Y-39.471
X36.224Y-35.828
X36.411Y-44.399
X36.83Y-41.999
X37.465Y-67.945
X38.1Y-69.85
X38.396Y-39.37
X38.511Y-62.23
X38.983Y-37.328
X39.277Y-32.645
X39.517Y-71.009
X40.64Y-51.599
X40.683Y-62.798
X40.723Y-65.517
X41.501Y-48.63
X42.089Y-54.315
X42.709Y-70.319
X42.745Y-59.01
X44.073Y-60.66
X44.399Y-56.401
X44.441Y-47.778
X44.446Y-70.839
X44.551Y-41.428
X44.716Y-54.033
X44.741Y-63.34
X45.466Y-45.168
X45.529Y-56.401
X45.72Y-50.8
X46.094Y-60.885
X46.329Y-38.716
X46.4Y-57.275
X46.429Y-54.502
X46.591Y-23.838
X46.707Y-45.979
X46.99Y-49.2
X47.848Y-67.745
X48.348Y-36.503
X48.411Y-63.447
X48.64Y-28.103
X50.707Y-42.8
X50.721Y-38.785
X51.145Y-51.689
X51.211Y-33.851
X51.222Y-54.893
X51.34Y-41.91
X51.34Y-44.068
X51.34Y-45.068
X51.808Y-55.88
X51.808Y-57.208
X51.941Y-40.64
X52.54Y-39.37
X53.143Y-38.1
X53.301Y-48.978
X53.581Y-68.899
X53.702Y-66.327
X53.757Y-27.514
X53.802Y-36.454
X54.103Y-53.026
X54.139Y-55.88
X54.539Y-72.788
X54.545Y-62.016
X54.742Y-41.91
X55.222Y-43.235
X55.382Y-46.558
X55.393Y-65.599
X55.47Y-63.403
X55.712Y-31.022
X55.751Y-51.151
X55.822Y-41.001
X55.943Y-24.478
X58.095Y-74.415
X59.077Y-24.327
X59.648Y-48.365
X59.922Y-71.933
T2
X39.823Y-67.946
X44.823Y-67.946
X48.34Y-25.4
X53.34Y-25.4
T3
X27.94Y-30.495
X27.94Y-33.035
X27.94Y-35.575
X27.94Y-38.115
X27.94Y-40.655
X27.94Y-43.195
X27.94Y-45.735
X27.94Y-48.275
X27.94Y-53.34
X27.94Y-55.88
X27.94Y-58.42
X27.94Y-60.96
X27.94Y-63.5
X27.94Y-66.04
X27.94Y-68.58
X27.94Y-71.12
X34.29Y-30.48
X34.29Y-73.66
X34.32Y-25.4
X36.83Y-30.48
X36.83Y-73.66
X36.86Y-25.4
X39.37Y-30.48
X39.37Y-73.66
X39.4Y-25.4
X41.91Y-30.48
X41.91Y-73.66
X41.94Y-25.4
X44.45Y-30.48
X44.45Y-73.66
X44.48Y-25.4
X46.99Y-30.48
X46.99Y-73.66
X49.53Y-30.48
X49.53Y-73.66
X52.07Y-30.48
X52.07Y-73.66
X58.42Y-27.94
X58.42Y-30.48
X58.42Y-33.02
X58.42Y-35.56
X58.42Y-38.1
X58.42Y-40.64
X58.42Y-43.18
X58.42Y-45.72
X58.42Y-50.815
X58.42Y-53.355
X58.42Y-55.895
X58.42Y-58.435
X58.42Y-60.975
X58.42Y-63.515
X58.42Y-66.055
X58.42Y-68.595
T0
M30
