G04 #@! TF.GenerationSoftware,KiCad,Pcbnew,7.0.7*
G04 #@! TF.CreationDate,2023-10-29T22:23:37+09:00*
G04 #@! TF.ProjectId,Pixy-mega128-0-sdram-hat,50697879-2d6d-4656-9761-3132382d302d,rev?*
G04 #@! TF.SameCoordinates,Original*
G04 #@! TF.FileFunction,Paste,Top*
G04 #@! TF.FilePolarity,Positive*
%FSLAX46Y46*%
G04 Gerber Fmt 4.6, Leading zero omitted, Abs format (unit mm)*
G04 Created by KiCad (PCBNEW 7.0.7) date 2023-10-29 22:23:37*
%MOMM*%
%LPD*%
G01*
G04 APERTURE LIST*
%ADD10R,2.200000X0.500000*%
G04 APERTURE END LIST*
D10*
G04 #@! TO.C,U1*
X38520000Y-40400000D03*
X38520000Y-41200000D03*
X38520000Y-42000000D03*
X38520000Y-42800000D03*
X38520000Y-43600000D03*
X38520000Y-44400000D03*
X38520000Y-45200000D03*
X38520000Y-46000000D03*
X38520000Y-46800000D03*
X38520000Y-47600000D03*
X38520000Y-48400000D03*
X38520000Y-49200000D03*
X38520000Y-50000000D03*
X38520000Y-50800000D03*
X38520000Y-51600000D03*
X38520000Y-52400000D03*
X38520000Y-53200000D03*
X38520000Y-54000000D03*
X38520000Y-54800000D03*
X38520000Y-55600000D03*
X38520000Y-56400000D03*
X38520000Y-57200000D03*
X38520000Y-58000000D03*
X38520000Y-58800000D03*
X38520000Y-59600000D03*
X38520000Y-60400000D03*
X38520000Y-61200000D03*
X48680000Y-61200000D03*
X48680000Y-60400000D03*
X48680000Y-59600000D03*
X48680000Y-58800000D03*
X48680000Y-58000000D03*
X48680000Y-57200000D03*
X48680000Y-56400000D03*
X48680000Y-55600000D03*
X48680000Y-54800000D03*
X48680000Y-54000000D03*
X48680000Y-53200000D03*
X48680000Y-52400000D03*
X48680000Y-51600000D03*
X48680000Y-50800000D03*
X48680000Y-50000000D03*
X48680000Y-49200000D03*
X48680000Y-48400000D03*
X48680000Y-47600000D03*
X48680000Y-46800000D03*
X48680000Y-46000000D03*
X48680000Y-45200000D03*
X48680000Y-44400000D03*
X48680000Y-43600000D03*
X48680000Y-42800000D03*
X48680000Y-42000000D03*
X48680000Y-41200000D03*
X48680000Y-40400000D03*
G04 #@! TD*
M02*
