M48
; DRILL file {KiCad 7.0.7} date Sun Nov 19 17:38:25 2023
; FORMAT={-:-/ absolute / metric / decimal}
; #@! TF.CreationDate,2023-11-19T17:38:25+09:00
; #@! TF.GenerationSoftware,Kicad,Pcbnew,7.0.7
; #@! TF.FileFunction,MixedPlating,1,4
FMAT,2
METRIC
; #@! TA.AperFunction,Plated,PTH,ViaDrill
T1C0.400
; #@! TA.AperFunction,Plated,PTH,ComponentDrill
T2C0.600
; #@! TA.AperFunction,Plated,PTH,ComponentDrill
T3C0.800
; #@! TA.AperFunction,Plated,PTH,ComponentDrill
T4C0.900
; #@! TA.AperFunction,Plated,PTH,ComponentDrill
T5C1.000
; #@! TA.AperFunction,Plated,PTH,ComponentDrill
T6C3.000
; #@! TA.AperFunction,NonPlated,NPTH,ComponentDrill
T7C0.650
%
G90
G05
T1
X26.682Y-55.718
X26.709Y-62.785
X26.742Y-74.367
X26.742Y-88.046
X26.754Y-67.409
X26.779Y-49.686
X26.872Y-92.978
X26.877Y-81.056
X27.021Y-44.498
X27.029Y-133.003
X27.19Y-139.564
X27.245Y-26.957
X27.432Y-123.576
X27.608Y-34.86
X27.695Y-128.482
X27.94Y-39.37
X29.206Y-116.836
X29.653Y-131.429
X30.864Y-113.798
X30.881Y-42.474
X31.366Y-45.286
X31.411Y-52.943
X31.411Y-58.676
X31.653Y-79.06
X32.093Y-66.81
X32.501Y-37.372
X32.522Y-73.05
X33.18Y-34.527
X33.529Y-139.544
X34.037Y-88.77
X34.078Y-41.902
X34.136Y-92.924
X34.296Y-129.39
X34.331Y-32.737
X34.349Y-28.537
X34.602Y-113.46
X35.285Y-126.386
X35.428Y-39.572
X35.448Y-54.054
X35.503Y-110.095
X35.56Y-101.6
X35.56Y-104.14
X35.56Y-123.19
X35.791Y-34.388
X35.846Y-26.847
X35.855Y-30.254
X36.052Y-131.772
X36.632Y-43.363
X36.658Y-36.022
X36.68Y-49.491
X36.772Y-46.991
X36.83Y-60.622
X37.166Y-28.528
X37.346Y-105.4
X37.382Y-107.935
X37.393Y-100.33
X37.405Y-102.861
X38.456Y-95.044
X38.576Y-35.801
X38.721Y-31.015
X38.842Y-26.624
X38.918Y-98.327
X39.058Y-38.706
X39.362Y-114.565
X39.37Y-60.615
X39.37Y-90.17
X39.504Y-120.795
X40.392Y-111.679
X40.596Y-75.608
X40.979Y-87.252
X41.018Y-117.686
X41.294Y-30.984
X41.307Y-94.108
X41.446Y-26.775
X41.778Y-39.022
X41.844Y-44.936
X41.969Y-60.069
X42.058Y-102.852
X42.267Y-113.313
X42.267Y-122.07
X42.281Y-35.941
X42.49Y-64.527
X42.672Y-105.913
X42.794Y-130.659
X42.855Y-117.686
X42.935Y-126.4
X43.074Y-28.537
X43.18Y-101.195
X43.379Y-136.231
X43.863Y-89.521
X44.295Y-47.678
X44.313Y-45.309
X44.371Y-59.968
X44.377Y-30.228
X44.416Y-46.472
X44.431Y-43.205
X44.45Y-34.29
X44.451Y-64.47
X44.483Y-26.829
X45.264Y-48.692
X45.443Y-47.49
X45.477Y-45.471
X45.822Y-130.626
X45.892Y-32.71
X45.901Y-28.519
X46.508Y-126.023
X46.599Y-48.007
X46.629Y-117.747
X46.898Y-84.466
X46.995Y-59.988
X46.995Y-75.709
X47.035Y-64.53
X47.455Y-113.313
X47.466Y-48.651
X47.863Y-39.007
X47.881Y-135.504
X48.35Y-47.999
X48.391Y-30.749
X49.437Y-59.968
X49.538Y-64.47
X49.644Y-107.184
X49.665Y-99.883
X49.675Y-98.446
X49.705Y-108.458
X49.859Y-117.646
X49.861Y-26.733
X49.912Y-105.324
X50.284Y-77.292
X50.566Y-124.327
X50.647Y-103.358
X50.745Y-104.495
X50.746Y-97.124
X50.8Y-92.71
X50.929Y-106.054
X51.154Y-100.676
X51.265Y-121.712
X51.801Y-103.094
X51.961Y-59.908
X52.004Y-93.094
X52.082Y-64.55
X52.094Y-40.34
X52.103Y-48.027
X52.282Y-110.702
X52.867Y-93.687
X53.42Y-125.871
X53.749Y-40.354
X53.761Y-48.006
X53.796Y-136.312
X53.846Y-94.394
X54.246Y-92.542
X54.541Y-98.38
X54.61Y-62.23
X54.61Y-101.6
X54.61Y-106.404
X54.971Y-114.099
X55.012Y-108.56
X55.168Y-118.837
X55.235Y-93.491
X55.441Y-40.364
X55.441Y-47.993
X55.745Y-102.645
X55.752Y-122.758
X55.868Y-107.828
X55.894Y-101.169
X55.95Y-89.263
X55.95Y-90.294
X55.95Y-91.45
X56.198Y-134.656
X56.389Y-129.28
X56.532Y-99.575
X56.732Y-100.554
X56.735Y-112.259
X56.846Y-26.814
X56.859Y-35.763
X56.879Y-113.589
X57.046Y-109.114
X57.079Y-106.854
X57.655Y-101.421
X57.697Y-99.104
X57.713Y-32.11
X57.735Y-114.301
X57.879Y-44.17
X57.887Y-45.693
X57.905Y-42.647
X58.072Y-91.205
X58.392Y-115.648
X58.501Y-40.077
X58.65Y-96.472
X59.099Y-123.153
X59.909Y-96.472
X60.01Y-91.434
X60.136Y-47.424
X60.154Y-120.411
X60.217Y-42.58
X60.321Y-133.169
X60.473Y-107.016
X60.474Y-108.831
X60.782Y-28.167
X60.909Y-96.922
X60.96Y-50.8
X61.063Y-137.099
X61.629Y-122.848
X61.817Y-32.668
X62.042Y-74.93
X62.23Y-129.601
X62.263Y-87.905
X62.731Y-88.788
X63.058Y-120.348
X63.066Y-61.835
X63.228Y-113.232
X63.263Y-99.296
X63.298Y-92.593
X63.495Y-93.588
X63.5Y-129.601
X63.731Y-56.279
X63.952Y-113.979
X63.971Y-118.328
X64.001Y-116.873
X64.08Y-120.223
X64.277Y-62.96
X64.339Y-119.258
X64.486Y-96.37
X64.727Y-112.511
X64.912Y-117.62
X65.108Y-92.037
X65.411Y-103.502
X65.495Y-71.764
X65.529Y-114.185
X65.618Y-105.078
X66.058Y-70.711
X66.135Y-34.655
X66.364Y-33.622
X66.369Y-104.029
X66.394Y-73.66
X66.709Y-92.586
X66.876Y-137.18
X66.986Y-103.242
X67.048Y-41.56
X67.085Y-105.094
X67.173Y-122.668
X67.31Y-102.297
X67.356Y-98.26
X67.358Y-107.874
X67.473Y-106.363
X67.886Y-114.428
X67.908Y-26.895
X68.052Y-111.024
X68.225Y-81.881
X68.617Y-130.343
X68.72Y-121.851
X69.376Y-96.259
X69.406Y-113.015
X69.878Y-91.468
X69.933Y-66.513
X70.123Y-78.315
X70.223Y-114.689
X70.549Y-96.617
X70.644Y-111.938
X70.654Y-113.1
X70.742Y-74.599
X70.775Y-75.956
X70.844Y-48.308
X70.853Y-134.778
X70.922Y-105.418
X70.958Y-95.065
X70.984Y-35.56
X71.059Y-77.31
X71.186Y-115.04
X71.387Y-104.495
X71.631Y-54.61
X71.665Y-94.34
X71.779Y-106.916
X71.846Y-112.24
X71.964Y-41.555
X72.088Y-97.434
X72.231Y-68.464
X72.27Y-76.121
X72.288Y-81.79
X72.312Y-62.74
X72.349Y-105.221
X72.355Y-98.966
X72.39Y-123.246
X72.42Y-75.02
X72.645Y-86.794
X72.806Y-72.726
X72.84Y-33.405
X73.086Y-121.447
X73.105Y-76.67
X73.157Y-74.284
X73.157Y-71.33
X73.362Y-94.95
X73.638Y-86.344
X73.764Y-109.564
X74.083Y-130.639
X74.213Y-119.207
X74.361Y-94.95
X74.391Y-135.888
X74.418Y-101.413
X74.507Y-111.013
X74.585Y-85.894
X75.495Y-85.444
X75.517Y-111.737
X75.529Y-108.674
X75.603Y-89.441
X76.037Y-110.288
X76.2Y-99.043
X76.254Y-26.708
X76.328Y-88.717
X76.451Y-103.761
X76.811Y-101.863
X77.13Y-104.495
X77.193Y-79.128
X77.28Y-76.148
X77.29Y-88.355
X77.303Y-75.101
X77.403Y-103.037
X77.408Y-78.151
X77.47Y-123.246
X77.511Y-77.12
X77.876Y-74.205
X77.905Y-105.356
X77.911Y-45.447
X78.032Y-37.716
X78.094Y-64.65
X78.169Y-87.817
X78.423Y-130.538
X78.588Y-55.95
X79.542Y-123.246
X79.553Y-135.706
X79.655Y-65.244
X79.771Y-66.586
X79.801Y-67.585
X80.02Y-51.914
X80.447Y-69.272
X80.79Y-80.753
X80.913Y-95.602
X81.12Y-68.172
X81.17Y-42.709
X81.28Y-35.56
X81.296Y-79.852
X81.326Y-96.531
X81.372Y-97.587
X81.439Y-101.825
X81.756Y-60.271
X81.813Y-48.048
X81.985Y-100.348
X82.55Y-62.23
X82.806Y-83.872
X82.969Y-26.6
X83.085Y-127.402
X83.435Y-96.958
X83.531Y-98.079
X83.536Y-136.403
X83.572Y-62.233
X83.617Y-82.644
X83.85Y-95.889
X84.077Y-100.969
X84.125Y-70.27
X84.131Y-72.079
X84.249Y-102.419
X84.453Y-105.009
X84.456Y-73.118
X84.58Y-104.018
X84.74Y-100.145
X84.872Y-96.52
X84.955Y-121.972
X85.09Y-71.07
X85.206Y-127.187
X85.262Y-129.601
X85.505Y-68.68
X85.551Y-61.845
X85.692Y-40.246
X85.995Y-46.665
X86.217Y-56.048
X86.36Y-35.56
X86.538Y-134.374
X87.428Y-81.749
X87.491Y-102.634
X87.769Y-86.086
X88.135Y-89.837
X88.176Y-74.803
X88.303Y-64.507
X88.399Y-51.636
X88.669Y-70.334
X88.72Y-62.512
X88.848Y-65.968
X88.9Y-67.452
X88.9Y-90.96
X89.122Y-68.901
X89.162Y-136.473
X89.167Y-76.252
X89.305Y-43.18
X89.368Y-92.12
X89.399Y-73.144
X89.422Y-116.809
X89.472Y-71.107
X89.602Y-80.646
X90.17Y-48.26
X90.274Y-78.426
X90.371Y-96.319
X90.373Y-116.359
X90.428Y-83.87
X90.759Y-58.813
X90.853Y-117.869
X90.954Y-88.362
X91.207Y-96.886
X91.207Y-115.701
X91.264Y-34.126
X91.44Y-79.875
X91.667Y-86.625
X91.908Y-91.513
X91.974Y-114.902
X92.015Y-129.765
X92.023Y-96.309
X92.232Y-62.572
X92.796Y-134.778
X92.818Y-41.982
X92.85Y-93.004
X93.014Y-96.906
X93.152Y-127.618
X93.247Y-113.305
X93.413Y-126.653
X93.565Y-52.095
X93.743Y-55.457
X93.928Y-85.585
X93.98Y-138.43
X93.988Y-91.642
X94.049Y-36.891
X94.081Y-96.954
X94.488Y-113.018
X94.968Y-137.623
X95.061Y-96.756
X95.205Y-83.517
X95.26Y-88.411
X95.268Y-98.0
X95.38Y-89.403
X95.462Y-113.242
X95.699Y-90.351
X95.919Y-91.326
X96.068Y-46.524
X96.187Y-114.13
X96.212Y-97.655
X96.226Y-126.886
X96.272Y-137.45
X96.302Y-53.08
X96.552Y-36.023
X96.78Y-91.833
X96.858Y-140.032
X96.913Y-128.27
X96.976Y-114.827
X96.996Y-62.249
X97.127Y-116.376
X97.17Y-97.37
X97.436Y-26.668
X97.447Y-131.66
X97.636Y-114.077
X97.784Y-86.776
X97.844Y-57.408
X97.984Y-93.54
X98.181Y-96.996
X98.396Y-113.427
X98.428Y-107.469
X98.446Y-131.66
X98.527Y-40.417
X98.699Y-51.709
X98.749Y-106.511
X99.041Y-34.662
X99.06Y-96.52
X99.097Y-104.503
X99.12Y-93.54
X99.131Y-105.513
X99.223Y-108.074
X99.23Y-112.877
X99.24Y-48.248
X99.446Y-131.66
X99.459Y-126.25
X99.514Y-103.522
X99.73Y-112.011
X99.815Y-102.569
X99.816Y-69.627
X99.843Y-54.393
X100.249Y-108.419
X100.258Y-64.506
X100.287Y-50.757
X100.359Y-125.79
X100.405Y-93.7
X100.787Y-110.989
X100.929Y-76.976
X101.035Y-79.15
X101.09Y-73.159
X101.109Y-71.545
X101.129Y-127.558
X101.283Y-68.148
X101.363Y-115.041
X101.371Y-66.699
X101.41Y-94.122
X101.579Y-40.404
X101.599Y-65.215
X101.649Y-112.814
X101.701Y-37.959
X101.794Y-75.527
X101.834Y-95.253
X101.86Y-125.934
X101.938Y-134.457
X102.066Y-70.504
X102.075Y-63.76
X102.075Y-74.078
X102.09Y-87.184
X102.104Y-80.498
X102.192Y-49.876
X102.196Y-77.421
X102.212Y-110.578
X102.297Y-59.947
X102.689Y-119.433
X102.87Y-107.27
X102.975Y-100.415
X103.067Y-95.977
X103.156Y-97.798
X103.162Y-103.729
X103.244Y-99.371
X103.285Y-124.139
X103.295Y-45.127
X103.299Y-105.66
X103.31Y-134.457
X103.478Y-104.677
X103.596Y-101.198
X103.928Y-114.847
X103.979Y-97.011
X104.012Y-40.906
X104.021Y-54.332
X104.132Y-98.647
X104.977Y-72.297
X104.989Y-101.539
X105.018Y-133.756
X105.152Y-80.962
X105.165Y-73.279
X105.236Y-125.817
X105.236Y-126.816
X105.307Y-118.45
X105.392Y-42.922
X105.41Y-108.426
X105.951Y-71.53
X106.093Y-117.451
X106.41Y-74.003
X106.783Y-44.313
X106.928Y-116.804
X106.983Y-128.378
X107.002Y-130.1
X107.163Y-70.076
X107.228Y-119.122
X107.534Y-48.014
X107.75Y-135.398
X107.87Y-70.782
X107.929Y-46.095
X107.95Y-66.699
X107.952Y-116.457
X108.079Y-65.217
X108.613Y-70.076
X108.666Y-115.747
X108.684Y-84.616
X108.776Y-124.92
X108.867Y-133.621
X108.917Y-136.537
X108.979Y-119.813
X109.171Y-26.627
X109.335Y-47.501
X109.519Y-57.041
X109.587Y-115.298
X109.612Y-70.076
X109.613Y-87.199
X109.786Y-111.316
X109.855Y-51.102
X110.15Y-102.777
X110.209Y-93.073
X110.245Y-61.492
X110.402Y-49.205
X110.49Y-114.152
X110.511Y-94.14
X110.735Y-73.66
X111.107Y-95.25
X111.167Y-54.292
X111.185Y-92.555
X111.235Y-113.403
X111.66Y-134.174
X111.686Y-111.42
X111.855Y-50.658
X111.95Y-91.913
X112.0Y-99.653
X112.124Y-74.559
X112.224Y-110.577
X112.589Y-98.845
X112.615Y-65.215
X112.636Y-66.54
X112.704Y-67.657
X112.724Y-128.859
X112.81Y-131.361
X112.814Y-68.793
X112.95Y-105.795
X113.006Y-101.419
X113.03Y-77.47
X113.03Y-100.377
X113.03Y-115.651
X113.034Y-97.859
X113.082Y-78.468
X113.098Y-104.561
X113.152Y-76.322
X113.238Y-75.211
X113.321Y-112.028
X113.39Y-63.982
X113.484Y-96.286
X113.741Y-107.655
X113.743Y-108.927
X113.754Y-53.194
X114.023Y-115.765
X114.195Y-56.823
X114.26Y-122.452
X114.397Y-101.257
X114.446Y-104.635
X114.866Y-111.304
X114.982Y-61.345
X115.052Y-43.388
X115.069Y-102.053
X115.143Y-115.631
X115.814Y-55.377
X115.976Y-111.304
X116.107Y-128.306
X116.59Y-74.46
X116.725Y-34.793
X116.84Y-91.654
X116.899Y-73.144
X116.917Y-114.852
X116.987Y-71.107
X117.02Y-78.446
X117.038Y-111.304
X117.224Y-133.702
X117.629Y-95.539
X118.218Y-115.623
X118.352Y-86.076
X118.534Y-40.64
X118.806Y-46.84
X118.834Y-69.85
X119.049Y-26.479
X119.14Y-49.777
X119.38Y-91.654
X119.808Y-129.961
X119.957Y-75.176
X120.154Y-69.143
X120.65Y-91.654
X120.743Y-90.659
X120.979Y-122.452
X121.107Y-35.384
X121.279Y-40.64
X121.342Y-133.985
X121.529Y-38.491
X121.729Y-39.516
X121.92Y-102.87
X122.029Y-127.566
X122.137Y-81.383
X123.076Y-86.258
X124.46Y-50.8
X124.46Y-74.93
X124.46Y-100.33
X124.772Y-91.602
X125.118Y-89.76
X125.256Y-57.886
X125.418Y-115.153
X125.468Y-62.337
X125.619Y-39.089
X125.783Y-127.566
X126.533Y-88.489
X126.567Y-89.554
X127.089Y-123.394
X127.133Y-83.17
X127.802Y-139.677
X128.73Y-131.172
X128.865Y-120.473
X128.95Y-33.517
X129.011Y-59.945
X129.556Y-112.565
X129.677Y-88.62
X129.768Y-50.649
X129.889Y-77.659
X130.028Y-27.203
X130.048Y-70.721
X130.218Y-114.035
X130.282Y-42.474
X130.555Y-110.235
X131.153Y-129.275
X131.713Y-110.178
X131.796Y-82.594
X132.888Y-110.178
X133.158Y-123.205
X133.341Y-90.77
X133.35Y-55.88
X133.35Y-95.25
X133.35Y-100.33
X133.643Y-66.788
X133.825Y-46.562
X133.925Y-127.391
X133.946Y-61.702
X133.992Y-137.995
X134.067Y-39.658
X134.561Y-110.903
X134.62Y-30.48
X134.62Y-86.36
X134.862Y-72.429
X135.23Y-120.406
X135.521Y-110.178
X135.586Y-112.942
X135.997Y-128.629
X136.442Y-77.25
X136.487Y-122.158
X136.488Y-132.299
X137.16Y-139.7
X137.444Y-110.421
X137.822Y-51.255
X138.125Y-43.292
X138.43Y-81.716
X138.913Y-114.821
X138.973Y-60.854
X139.033Y-87.076
X139.086Y-33.195
X139.124Y-72.905
X139.7Y-67.31
X139.846Y-120.729
X140.002Y-27.976
X140.396Y-39.931
X140.593Y-126.183
X140.64Y-131.414
X140.767Y-136.433
X142.212Y-56.009
X142.24Y-83.82
X142.24Y-102.87
X142.303Y-89.256
X142.52Y-44.648
X142.916Y-49.338
X142.969Y-76.781
X143.123Y-68.496
X143.454Y-30.035
X143.751Y-112.986
X143.87Y-133.164
X144.78Y-100.33
X145.054Y-138.924
X145.364Y-122.99
X145.706Y-58.688
X145.945Y-111.091
X146.542Y-27.189
X146.603Y-34.002
X146.635Y-64.887
X147.375Y-129.044
X147.39Y-39.234
X147.45Y-120.823
X147.835Y-114.815
X148.755Y-117.768
X149.184Y-80.246
X149.253Y-129.53
X149.268Y-88.832
X149.287Y-47.093
X149.304Y-55.978
X149.373Y-74.34
X151.864Y-122.802
X152.122Y-114.859
X152.568Y-34.274
X152.792Y-132.383
X153.264Y-27.25
X153.519Y-128.642
X153.533Y-139.327
X153.573Y-120.325
X153.815Y-110.649
X153.85Y-63.054
X153.877Y-56.118
X153.877Y-69.325
X153.89Y-48.011
X153.917Y-40.839
X153.917Y-76.396
X154.01Y-102.364
X154.047Y-85.17
X154.101Y-93.643
T3
X48.116Y-35.746
X50.616Y-35.746
X54.223Y-51.527
X56.723Y-51.527
X116.84Y-97.79
X116.84Y-100.33
X116.84Y-102.87
X116.84Y-105.41
X116.84Y-107.95
X119.38Y-95.25
X119.38Y-97.79
X119.38Y-100.33
X119.38Y-102.87
X119.38Y-105.41
X119.38Y-107.95
X119.38Y-110.49
X121.92Y-95.25
X121.92Y-97.79
X121.92Y-107.95
X121.92Y-110.49
X124.46Y-95.25
X124.46Y-97.79
X124.46Y-107.95
X124.46Y-110.49
X127.0Y-95.25
X127.0Y-97.79
X127.0Y-100.33
X127.0Y-102.87
X127.0Y-105.41
X127.0Y-107.95
X127.0Y-110.49
X129.54Y-97.79
X129.54Y-100.33
X129.54Y-102.87
X129.54Y-105.41
X129.54Y-107.95
X137.16Y-97.79
X137.16Y-100.33
X137.16Y-102.87
X137.16Y-105.41
X137.16Y-107.95
X139.7Y-95.25
X139.7Y-97.79
X139.7Y-100.33
X139.7Y-102.87
X139.7Y-105.41
X139.7Y-107.95
X139.7Y-110.49
X142.24Y-95.25
X142.24Y-97.79
X142.24Y-107.95
X142.24Y-110.49
X144.78Y-95.25
X144.78Y-97.79
X144.78Y-107.95
X144.78Y-110.49
X147.32Y-95.25
X147.32Y-97.79
X147.32Y-100.33
X147.32Y-102.87
X147.32Y-105.41
X147.32Y-107.95
X147.32Y-110.49
X149.86Y-97.79
X149.86Y-100.33
X149.86Y-102.87
X149.86Y-105.41
X149.86Y-107.95
T4
X37.596Y-78.87
X37.596Y-85.09
X40.136Y-78.87
X40.136Y-85.09
X42.637Y-85.09
X42.676Y-78.87
X45.177Y-85.09
X45.216Y-78.87
X53.34Y-30.475
X55.88Y-30.475
X62.939Y-124.831
X65.479Y-124.831
X68.019Y-124.831
X70.559Y-124.831
X73.099Y-124.831
X75.639Y-124.831
X78.179Y-124.831
X80.719Y-124.831
T5
X30.48Y-97.79
X30.48Y-100.33
X30.48Y-102.87
X30.48Y-105.41
X30.48Y-107.95
X30.48Y-110.49
X30.48Y-118.11
X30.48Y-120.65
X30.48Y-123.19
X33.02Y-97.79
X33.02Y-100.33
X33.02Y-102.87
X33.02Y-105.41
X33.02Y-107.95
X33.02Y-110.49
X33.02Y-118.11
X33.02Y-120.65
X33.02Y-123.19
X34.29Y-62.23
X36.83Y-62.23
X39.37Y-62.23
X40.64Y-125.73
X40.64Y-128.27
X40.64Y-130.81
X40.64Y-133.35
X40.64Y-135.89
X41.91Y-62.23
X43.872Y-91.549
X43.872Y-94.089
X43.872Y-96.629
X44.45Y-62.23
X46.99Y-62.23
X47.55Y-128.27
X47.55Y-132.77
X49.53Y-62.23
X52.07Y-62.23
X54.05Y-128.27
X54.05Y-132.77
X63.5Y-43.18
X63.5Y-45.72
X63.5Y-48.26
X63.5Y-50.8
X63.5Y-53.34
X63.5Y-67.31
X63.5Y-69.85
X63.5Y-72.39
X63.5Y-74.93
X63.5Y-77.47
X64.77Y-29.21
X64.77Y-31.75
X67.31Y-29.21
X67.31Y-31.75
X69.85Y-29.21
X69.85Y-31.75
X72.39Y-29.21
X72.39Y-31.75
X74.93Y-29.21
X74.93Y-31.75
X77.47Y-29.21
X77.47Y-31.75
X80.01Y-29.21
X80.01Y-31.75
X82.55Y-29.21
X82.55Y-31.75
X85.09Y-29.21
X85.09Y-31.75
X87.63Y-29.21
X87.63Y-31.75
X90.17Y-29.21
X90.17Y-31.75
X92.71Y-29.21
X92.71Y-31.75
X95.25Y-29.21
X95.25Y-31.75
X97.79Y-29.21
X97.79Y-31.75
X100.33Y-29.21
X100.33Y-31.75
X102.87Y-29.21
X102.87Y-31.75
X105.41Y-29.21
X105.41Y-31.75
X107.95Y-29.21
X107.95Y-31.75
X110.49Y-29.21
X110.49Y-31.75
X113.03Y-29.21
X113.03Y-31.75
X115.57Y-29.21
X115.57Y-31.75
X116.13Y-120.94
X116.13Y-125.44
X116.13Y-131.1
X116.13Y-135.6
X118.11Y-29.21
X118.11Y-31.75
X120.65Y-29.21
X120.65Y-31.75
X122.63Y-120.94
X122.63Y-125.44
X122.63Y-131.1
X122.63Y-135.6
X123.19Y-29.21
X123.19Y-31.75
X125.73Y-29.21
X125.73Y-31.75
X126.29Y-120.94
X126.29Y-125.44
X126.29Y-131.1
X126.29Y-135.6
X127.0Y-43.18
X127.0Y-45.72
X127.0Y-48.26
X127.0Y-50.8
X127.0Y-53.34
X127.0Y-67.31
X127.0Y-69.85
X127.0Y-72.39
X127.0Y-74.93
X127.0Y-77.47
X132.79Y-120.94
X132.79Y-125.44
X132.79Y-131.1
X132.79Y-135.6
X144.07Y-120.94
X144.07Y-125.44
X150.57Y-120.94
X150.57Y-125.44
T6
X30.48Y-30.48
X30.48Y-135.89
X149.86Y-30.48
X149.86Y-135.89
T7
X37.236Y-32.194
X43.016Y-32.194
T2
G00X35.806Y-28.844
M15
G01X35.806Y-28.244
M16
G05
G00X35.806Y-33.274
M15
G01X35.806Y-32.174
M16
G05
G00X44.446Y-28.844
M15
G01X44.446Y-28.244
M16
G05
G00X44.446Y-33.274
M15
G01X44.446Y-32.174
M16
G05
T0
M30
