G04 #@! TF.GenerationSoftware,KiCad,Pcbnew,7.0.7*
G04 #@! TF.CreationDate,2023-11-19T17:38:18+09:00*
G04 #@! TF.ProjectId,Pixy-68000,50697879-2d36-4383-9030-302e6b696361,rev?*
G04 #@! TF.SameCoordinates,Original*
G04 #@! TF.FileFunction,Soldermask,Bot*
G04 #@! TF.FilePolarity,Negative*
%FSLAX46Y46*%
G04 Gerber Fmt 4.6, Leading zero omitted, Abs format (unit mm)*
G04 Created by KiCad (PCBNEW 7.0.7) date 2023-11-19 17:38:18*
%MOMM*%
%LPD*%
G01*
G04 APERTURE LIST*
%ADD10R,1.800000X1.800000*%
%ADD11C,1.800000*%
%ADD12R,1.700000X1.700000*%
%ADD13C,1.700000*%
%ADD14C,6.000000*%
%ADD15O,1.700000X1.700000*%
%ADD16C,0.650000*%
%ADD17O,1.000000X2.100000*%
%ADD18O,1.000000X1.600000*%
%ADD19R,1.600000X1.600000*%
%ADD20C,1.600000*%
%ADD21R,1.422400X1.422400*%
%ADD22C,1.422400*%
G04 APERTURE END LIST*
D10*
X68018960Y-124830501D03*
D11*
X70558960Y-124830501D03*
D10*
X37596046Y-78870000D03*
D11*
X40136046Y-78870000D03*
D10*
X62938960Y-124830501D03*
D11*
X65478960Y-124830501D03*
D12*
X126290000Y-120940000D03*
D13*
X132790000Y-120940000D03*
X126290000Y-125440000D03*
X132790000Y-125440000D03*
D14*
X149860000Y-30480000D03*
D12*
X64770000Y-31750000D03*
D15*
X64770000Y-29210000D03*
X67310000Y-31750000D03*
X67310000Y-29210000D03*
X69850000Y-31750000D03*
X69850000Y-29210000D03*
X72390000Y-31750000D03*
X72390000Y-29210000D03*
X74930000Y-31750000D03*
X74930000Y-29210000D03*
X77470000Y-31750000D03*
X77470000Y-29210000D03*
X80010000Y-31750000D03*
X80010000Y-29210000D03*
X82550000Y-31750000D03*
X82550000Y-29210000D03*
X85090000Y-31750000D03*
X85090000Y-29210000D03*
X87630000Y-31750000D03*
X87630000Y-29210000D03*
X90170000Y-31750000D03*
X90170000Y-29210000D03*
X92710000Y-31750000D03*
X92710000Y-29210000D03*
X95250000Y-31750000D03*
X95250000Y-29210000D03*
X97790000Y-31750000D03*
X97790000Y-29210000D03*
X100330000Y-31750000D03*
X100330000Y-29210000D03*
X102870000Y-31750000D03*
X102870000Y-29210000D03*
X105410000Y-31750000D03*
X105410000Y-29210000D03*
X107950000Y-31750000D03*
X107950000Y-29210000D03*
X110490000Y-31750000D03*
X110490000Y-29210000D03*
X113030000Y-31750000D03*
X113030000Y-29210000D03*
X115570000Y-31750000D03*
X115570000Y-29210000D03*
X118110000Y-31750000D03*
X118110000Y-29210000D03*
X120650000Y-31750000D03*
X120650000Y-29210000D03*
X123190000Y-31750000D03*
X123190000Y-29210000D03*
X125730000Y-31750000D03*
X125730000Y-29210000D03*
D12*
X30480000Y-118110000D03*
D15*
X33020000Y-118110000D03*
X30480000Y-120650000D03*
X33020000Y-120650000D03*
X30480000Y-123190000D03*
X33020000Y-123190000D03*
D10*
X73098960Y-124830501D03*
D11*
X75638960Y-124830501D03*
D16*
X43016384Y-32194319D03*
X37236384Y-32194319D03*
D17*
X44446384Y-32724319D03*
D18*
X44446384Y-28544319D03*
D17*
X35806384Y-32724319D03*
D18*
X35806384Y-28544319D03*
D10*
X53340000Y-30475364D03*
D11*
X55880000Y-30475364D03*
D12*
X40640000Y-135890000D03*
X40640000Y-125730000D03*
D15*
X40640000Y-133350000D03*
X40640000Y-130810000D03*
X40640000Y-128270000D03*
D10*
X42676046Y-78870000D03*
D11*
X45216046Y-78870000D03*
D14*
X149860000Y-135890000D03*
D10*
X78178960Y-124830501D03*
D11*
X80718960Y-124830501D03*
D10*
X37596046Y-85090000D03*
D11*
X40136046Y-85090000D03*
D19*
X54222834Y-51527438D03*
D20*
X56722834Y-51527438D03*
D12*
X127000000Y-43180000D03*
D15*
X127000000Y-45720000D03*
X127000000Y-48260000D03*
X127000000Y-50800000D03*
X127000000Y-53340000D03*
D12*
X116130000Y-120940000D03*
D13*
X122630000Y-120940000D03*
X116130000Y-125440000D03*
X122630000Y-125440000D03*
D12*
X63500000Y-67310000D03*
D15*
X63500000Y-69850000D03*
X63500000Y-72390000D03*
X63500000Y-74930000D03*
X63500000Y-77470000D03*
D21*
X121920000Y-107950000D03*
D22*
X124460000Y-110490000D03*
X124460000Y-107950000D03*
X127000000Y-110490000D03*
X129540000Y-107950000D03*
X127000000Y-107950000D03*
X129540000Y-105410000D03*
X127000000Y-105410000D03*
X129540000Y-102870000D03*
X127000000Y-102870000D03*
X129540000Y-100330000D03*
X127000000Y-100330000D03*
X129540000Y-97790000D03*
X127000000Y-95250000D03*
X127000000Y-97790000D03*
X124460000Y-95250000D03*
X124460000Y-97790000D03*
X121920000Y-95250000D03*
X121920000Y-97790000D03*
X119380000Y-95250000D03*
X116840000Y-97790000D03*
X119380000Y-97790000D03*
X116840000Y-100330000D03*
X119380000Y-100330000D03*
X116840000Y-102870000D03*
X119380000Y-102870000D03*
X116840000Y-105410000D03*
X119380000Y-105410000D03*
X116840000Y-107950000D03*
X119380000Y-110490000D03*
X119380000Y-107950000D03*
X121920000Y-110490000D03*
D12*
X126290000Y-131100000D03*
D13*
X132790000Y-131100000D03*
X126290000Y-135600000D03*
X132790000Y-135600000D03*
D12*
X144070000Y-120940000D03*
D13*
X150570000Y-120940000D03*
X144070000Y-125440000D03*
X150570000Y-125440000D03*
D12*
X127000000Y-67310000D03*
D15*
X127000000Y-69850000D03*
X127000000Y-72390000D03*
X127000000Y-74930000D03*
X127000000Y-77470000D03*
D10*
X42637252Y-85090000D03*
D11*
X45177252Y-85090000D03*
D12*
X47550000Y-128270000D03*
D13*
X54050000Y-128270000D03*
X47550000Y-132770000D03*
X54050000Y-132770000D03*
D19*
X48116413Y-35745747D03*
D20*
X50616413Y-35745747D03*
D14*
X30480000Y-30480000D03*
D12*
X116130000Y-131100000D03*
D13*
X122630000Y-131100000D03*
X116130000Y-135600000D03*
X122630000Y-135600000D03*
D12*
X43871871Y-96628895D03*
D15*
X43871871Y-94088895D03*
X43871871Y-91548895D03*
D12*
X34290000Y-62230000D03*
D15*
X36830000Y-62230000D03*
X39370000Y-62230000D03*
X41910000Y-62230000D03*
X44450000Y-62230000D03*
X46990000Y-62230000D03*
X49530000Y-62230000D03*
X52070000Y-62230000D03*
D21*
X142240000Y-107950000D03*
D22*
X144780000Y-110490000D03*
X144780000Y-107950000D03*
X147320000Y-110490000D03*
X149860000Y-107950000D03*
X147320000Y-107950000D03*
X149860000Y-105410000D03*
X147320000Y-105410000D03*
X149860000Y-102870000D03*
X147320000Y-102870000D03*
X149860000Y-100330000D03*
X147320000Y-100330000D03*
X149860000Y-97790000D03*
X147320000Y-95250000D03*
X147320000Y-97790000D03*
X144780000Y-95250000D03*
X144780000Y-97790000D03*
X142240000Y-95250000D03*
X142240000Y-97790000D03*
X139700000Y-95250000D03*
X137160000Y-97790000D03*
X139700000Y-97790000D03*
X137160000Y-100330000D03*
X139700000Y-100330000D03*
X137160000Y-102870000D03*
X139700000Y-102870000D03*
X137160000Y-105410000D03*
X139700000Y-105410000D03*
X137160000Y-107950000D03*
X139700000Y-110490000D03*
X139700000Y-107950000D03*
X142240000Y-110490000D03*
D14*
X30480000Y-135890000D03*
D12*
X30480000Y-97790000D03*
D15*
X33020000Y-97790000D03*
X30480000Y-100330000D03*
X33020000Y-100330000D03*
X30480000Y-102870000D03*
X33020000Y-102870000D03*
X30480000Y-105410000D03*
X33020000Y-105410000D03*
X30480000Y-107950000D03*
X33020000Y-107950000D03*
X30480000Y-110490000D03*
X33020000Y-110490000D03*
D12*
X63500000Y-43180000D03*
D15*
X63500000Y-45720000D03*
X63500000Y-48260000D03*
X63500000Y-50800000D03*
X63500000Y-53340000D03*
M02*
