G04 #@! TF.GenerationSoftware,KiCad,Pcbnew,7.0.7*
G04 #@! TF.CreationDate,2023-11-19T17:38:18+09:00*
G04 #@! TF.ProjectId,Pixy-68000,50697879-2d36-4383-9030-302e6b696361,rev?*
G04 #@! TF.SameCoordinates,Original*
G04 #@! TF.FileFunction,Paste,Top*
G04 #@! TF.FilePolarity,Positive*
%FSLAX46Y46*%
G04 Gerber Fmt 4.6, Leading zero omitted, Abs format (unit mm)*
G04 Created by KiCad (PCBNEW 7.0.7) date 2023-11-19 17:38:18*
%MOMM*%
%LPD*%
G01*
G04 APERTURE LIST*
G04 Aperture macros list*
%AMRoundRect*
0 Rectangle with rounded corners*
0 $1 Rounding radius*
0 $2 $3 $4 $5 $6 $7 $8 $9 X,Y pos of 4 corners*
0 Add a 4 corners polygon primitive as box body*
4,1,4,$2,$3,$4,$5,$6,$7,$8,$9,$2,$3,0*
0 Add four circle primitives for the rounded corners*
1,1,$1+$1,$2,$3*
1,1,$1+$1,$4,$5*
1,1,$1+$1,$6,$7*
1,1,$1+$1,$8,$9*
0 Add four rect primitives between the rounded corners*
20,1,$1+$1,$2,$3,$4,$5,0*
20,1,$1+$1,$4,$5,$6,$7,0*
20,1,$1+$1,$6,$7,$8,$9,0*
20,1,$1+$1,$8,$9,$2,$3,0*%
G04 Aperture macros list end*
%ADD10RoundRect,0.250000X0.450000X-0.350000X0.450000X0.350000X-0.450000X0.350000X-0.450000X-0.350000X0*%
%ADD11RoundRect,0.250000X-0.350000X-0.450000X0.350000X-0.450000X0.350000X0.450000X-0.350000X0.450000X0*%
%ADD12RoundRect,0.250000X-0.337500X-0.475000X0.337500X-0.475000X0.337500X0.475000X-0.337500X0.475000X0*%
%ADD13RoundRect,0.250000X-0.475000X0.337500X-0.475000X-0.337500X0.475000X-0.337500X0.475000X0.337500X0*%
%ADD14RoundRect,0.250000X0.337500X0.475000X-0.337500X0.475000X-0.337500X-0.475000X0.337500X-0.475000X0*%
%ADD15RoundRect,0.150000X-0.675000X-0.150000X0.675000X-0.150000X0.675000X0.150000X-0.675000X0.150000X0*%
%ADD16R,0.600000X1.450000*%
%ADD17R,0.300000X1.450000*%
%ADD18RoundRect,0.250000X-0.450000X0.350000X-0.450000X-0.350000X0.450000X-0.350000X0.450000X0.350000X0*%
%ADD19R,3.000000X1.980000*%
%ADD20R,1.562100X0.279400*%
%ADD21R,0.279400X1.562100*%
%ADD22RoundRect,0.250000X0.350000X0.450000X-0.350000X0.450000X-0.350000X-0.450000X0.350000X-0.450000X0*%
%ADD23RoundRect,0.250000X0.475000X-0.337500X0.475000X0.337500X-0.475000X0.337500X-0.475000X-0.337500X0*%
%ADD24R,1.600000X0.550000*%
%ADD25R,0.550000X1.600000*%
%ADD26RoundRect,0.250000X-0.850000X-0.350000X0.850000X-0.350000X0.850000X0.350000X-0.850000X0.350000X0*%
%ADD27RoundRect,0.250000X-1.275000X-1.125000X1.275000X-1.125000X1.275000X1.125000X-1.275000X1.125000X0*%
%ADD28RoundRect,0.137500X-0.625000X-0.137500X0.625000X-0.137500X0.625000X0.137500X-0.625000X0.137500X0*%
%ADD29RoundRect,0.137500X-0.612500X-0.137500X0.612500X-0.137500X0.612500X0.137500X-0.612500X0.137500X0*%
%ADD30RoundRect,0.137500X-0.137500X-0.612500X0.137500X-0.612500X0.137500X0.612500X-0.137500X0.612500X0*%
G04 APERTURE END LIST*
D10*
X112741487Y-127637285D03*
X112741487Y-125637285D03*
D11*
X34670712Y-51102935D03*
X36670712Y-51102935D03*
D12*
X53525591Y-35782885D03*
X55600591Y-35782885D03*
D10*
X41843996Y-43720027D03*
X41843996Y-41720027D03*
D13*
X70590000Y-71112500D03*
X70590000Y-73187500D03*
D12*
X91905000Y-90170000D03*
X93980000Y-90170000D03*
X37136145Y-57769320D03*
X39211145Y-57769320D03*
D14*
X142253007Y-114872441D03*
X140178007Y-114872441D03*
X95462968Y-116398828D03*
X93387968Y-116398828D03*
D15*
X32850000Y-43175364D03*
X32850000Y-44445364D03*
X32850000Y-45715364D03*
X32850000Y-46985364D03*
X38100000Y-46985364D03*
X38100000Y-45715364D03*
X38100000Y-44445364D03*
X38100000Y-43175364D03*
D11*
X38640000Y-105410000D03*
X40640000Y-105410000D03*
D13*
X39217195Y-116676503D03*
X39217195Y-118751503D03*
D16*
X43376384Y-33639319D03*
X42576384Y-33639319D03*
D17*
X41376384Y-33639319D03*
X40376384Y-33639319D03*
X39876384Y-33639319D03*
X38876384Y-33639319D03*
D16*
X37676384Y-33639319D03*
X36876384Y-33639319D03*
X36876384Y-33639319D03*
X37676384Y-33639319D03*
D17*
X38376384Y-33639319D03*
X39376384Y-33639319D03*
X40876384Y-33639319D03*
X41876384Y-33639319D03*
D16*
X42576384Y-33639319D03*
X43376384Y-33639319D03*
D12*
X47020464Y-50628642D03*
X49095464Y-50628642D03*
D11*
X38640000Y-102870000D03*
X40640000Y-102870000D03*
D18*
X136489299Y-123452879D03*
X136489299Y-125452879D03*
D10*
X32516046Y-76330000D03*
X32516046Y-74330000D03*
D13*
X99567500Y-71112500D03*
X99567500Y-73187500D03*
D18*
X34036904Y-85535235D03*
X34036904Y-87535235D03*
D19*
X42272272Y-115045704D03*
X42272272Y-120305704D03*
X47472272Y-120305704D03*
X47472272Y-115045704D03*
D20*
X53181250Y-96869999D03*
X53181250Y-97370001D03*
X53181250Y-97870000D03*
X53181250Y-98369999D03*
X53181250Y-98870000D03*
X53181250Y-99369999D03*
X53181250Y-99870001D03*
X53181250Y-100370000D03*
X53181250Y-100869999D03*
X53181250Y-101370000D03*
X53181250Y-101869999D03*
X53181250Y-102369998D03*
X53181250Y-102870000D03*
X53181250Y-103369999D03*
X53181250Y-103870001D03*
X53181250Y-104370000D03*
X53181250Y-104869999D03*
X53181250Y-105370000D03*
X53181250Y-105869999D03*
X53181250Y-106370001D03*
X53181250Y-106870000D03*
X53181250Y-107369999D03*
X53181250Y-107870000D03*
X53181250Y-108369999D03*
X53181250Y-108870001D03*
D21*
X54959999Y-110648750D03*
X55460001Y-110648750D03*
X55960000Y-110648750D03*
X56459999Y-110648750D03*
X56960000Y-110648750D03*
X57459999Y-110648750D03*
X57960001Y-110648750D03*
X58460000Y-110648750D03*
X58959999Y-110648750D03*
X59460000Y-110648750D03*
X59959999Y-110648750D03*
X60460001Y-110648750D03*
X60960000Y-110648750D03*
X61459999Y-110648750D03*
X61960001Y-110648750D03*
X62460000Y-110648750D03*
X62960001Y-110648750D03*
X63460000Y-110648750D03*
X63959999Y-110648750D03*
X64460001Y-110648750D03*
X64960000Y-110648750D03*
X65460001Y-110648750D03*
X65960000Y-110648750D03*
X66459999Y-110648750D03*
X66960001Y-110648750D03*
D20*
X68738750Y-108870001D03*
X68738750Y-108369999D03*
X68738750Y-107870000D03*
X68738750Y-107370001D03*
X68738750Y-106870000D03*
X68738750Y-106370001D03*
X68738750Y-105869999D03*
X68738750Y-105370000D03*
X68738750Y-104870001D03*
X68738750Y-104370000D03*
X68738750Y-103870001D03*
X68738750Y-103369999D03*
X68738750Y-102870000D03*
X68738750Y-102370001D03*
X68738750Y-101869999D03*
X68738750Y-101370000D03*
X68738750Y-100869999D03*
X68738750Y-100370000D03*
X68738750Y-99870001D03*
X68738750Y-99369999D03*
X68738750Y-98870000D03*
X68738750Y-98369999D03*
X68738750Y-97870000D03*
X68738750Y-97370001D03*
X68738750Y-96869999D03*
D21*
X66960001Y-95091250D03*
X66459999Y-95091250D03*
X65960000Y-95091250D03*
X65460001Y-95091250D03*
X64960000Y-95091250D03*
X64460001Y-95091250D03*
X63959999Y-95091250D03*
X63460000Y-95091250D03*
X62960001Y-95091250D03*
X62460000Y-95091250D03*
X61960001Y-95091250D03*
X61459999Y-95091250D03*
X60960000Y-95091250D03*
X60460001Y-95091250D03*
X59959999Y-95091250D03*
X59460000Y-95091250D03*
X58959999Y-95091250D03*
X58460000Y-95091250D03*
X57960001Y-95091250D03*
X57459999Y-95091250D03*
X56960000Y-95091250D03*
X56459999Y-95091250D03*
X55960000Y-95091250D03*
X55460001Y-95091250D03*
X54959999Y-95091250D03*
D22*
X146067375Y-129013899D03*
X144067375Y-129013899D03*
D23*
X118385000Y-73187500D03*
X118385000Y-71112500D03*
D18*
X136469889Y-133594922D03*
X136469889Y-135594922D03*
D22*
X91112919Y-131617534D03*
X89112919Y-131617534D03*
X82829012Y-119140172D03*
X80829012Y-119140172D03*
D24*
X94810000Y-126010000D03*
X94810000Y-126810000D03*
X94810000Y-127610000D03*
X94810000Y-128410000D03*
X94810000Y-129210000D03*
X94810000Y-130010000D03*
X94810000Y-130810000D03*
X94810000Y-131610000D03*
D25*
X96260000Y-133060000D03*
X97060000Y-133060000D03*
X97860000Y-133060000D03*
X98660000Y-133060000D03*
X99460000Y-133060000D03*
X100260000Y-133060000D03*
X101060000Y-133060000D03*
X101860000Y-133060000D03*
D24*
X103310000Y-131610000D03*
X103310000Y-130810000D03*
X103310000Y-130010000D03*
X103310000Y-129210000D03*
X103310000Y-128410000D03*
X103310000Y-127610000D03*
X103310000Y-126810000D03*
X103310000Y-126010000D03*
D25*
X101860000Y-124560000D03*
X101060000Y-124560000D03*
X100260000Y-124560000D03*
X99460000Y-124560000D03*
X98660000Y-124560000D03*
X97860000Y-124560000D03*
X97060000Y-124560000D03*
X96260000Y-124560000D03*
D11*
X111660259Y-135605115D03*
X113660259Y-135605115D03*
D12*
X64583052Y-90707643D03*
X66658052Y-90707643D03*
D11*
X38640000Y-100330000D03*
X40640000Y-100330000D03*
D18*
X36039258Y-119278326D03*
X36039258Y-121278326D03*
D12*
X121947356Y-114838003D03*
X124022356Y-114838003D03*
D13*
X73660000Y-96752500D03*
X73660000Y-98827500D03*
D12*
X58082538Y-89738182D03*
X60157538Y-89738182D03*
D23*
X73660000Y-107926951D03*
X73660000Y-105851951D03*
D26*
X47463261Y-41910364D03*
X47463261Y-44190364D03*
X47463261Y-46470364D03*
D27*
X52088261Y-42665364D03*
X52088261Y-45715364D03*
X55438261Y-42665364D03*
X55438261Y-45715364D03*
D23*
X90610000Y-129307500D03*
X90610000Y-127232500D03*
D13*
X48260000Y-98015138D03*
X48260000Y-100090138D03*
D11*
X48381861Y-29642169D03*
X50381861Y-29642169D03*
D23*
X48260000Y-108985274D03*
X48260000Y-106910274D03*
D22*
X77664083Y-119140172D03*
X75664083Y-119140172D03*
X36402874Y-37365301D03*
X34402874Y-37365301D03*
D18*
X48260000Y-84471802D03*
X48260000Y-86471802D03*
D22*
X67754136Y-119140172D03*
X65754136Y-119140172D03*
D28*
X103632500Y-63870000D03*
X103632500Y-64670000D03*
X103632500Y-65470000D03*
X103632500Y-66270000D03*
X103632500Y-67070000D03*
X103632500Y-67870000D03*
X103632500Y-68670000D03*
X103632500Y-69470000D03*
X103632500Y-70270000D03*
X103632500Y-71070000D03*
X103632500Y-71870000D03*
X103632500Y-72670000D03*
X103632500Y-73470000D03*
X103632500Y-74270000D03*
X103632500Y-75070000D03*
X103632500Y-75870000D03*
X103632500Y-76670000D03*
X103632500Y-77470000D03*
X103632500Y-78270000D03*
X103632500Y-79070000D03*
X103632500Y-79870000D03*
X103632500Y-80670000D03*
X114807500Y-80670000D03*
X114807500Y-79870000D03*
X114807500Y-79070000D03*
X114807500Y-78270000D03*
X114807500Y-77470000D03*
X114807500Y-76670000D03*
X114807500Y-75870000D03*
X114807500Y-75070000D03*
X114807500Y-74270000D03*
X114807500Y-73470000D03*
X114807500Y-72670000D03*
X114807500Y-71870000D03*
X114807500Y-71070000D03*
X114807500Y-70270000D03*
X114807500Y-69470000D03*
X114807500Y-68670000D03*
X114807500Y-67870000D03*
X114807500Y-67070000D03*
X114807500Y-66270000D03*
X114807500Y-65470000D03*
X114807500Y-64670000D03*
X114807500Y-63870000D03*
D13*
X82782500Y-101832500D03*
X82782500Y-103907500D03*
D11*
X41853579Y-37365301D03*
X43853579Y-37365301D03*
D28*
X75692500Y-63870000D03*
X75692500Y-64670000D03*
X75692500Y-65470000D03*
X75692500Y-66270000D03*
X75692500Y-67070000D03*
X75692500Y-67870000D03*
X75692500Y-68670000D03*
X75692500Y-69470000D03*
X75692500Y-70270000D03*
X75692500Y-71070000D03*
X75692500Y-71870000D03*
X75692500Y-72670000D03*
X75692500Y-73470000D03*
X75692500Y-74270000D03*
X75692500Y-75070000D03*
X75692500Y-75870000D03*
X75692500Y-76670000D03*
X75692500Y-77470000D03*
X75692500Y-78270000D03*
X75692500Y-79070000D03*
X75692500Y-79870000D03*
X75692500Y-80670000D03*
X86867500Y-80670000D03*
X86867500Y-79870000D03*
X86867500Y-79070000D03*
X86867500Y-78270000D03*
X86867500Y-77470000D03*
X86867500Y-76670000D03*
X86867500Y-75870000D03*
X86867500Y-75070000D03*
X86867500Y-74270000D03*
X86867500Y-73470000D03*
X86867500Y-72670000D03*
X86867500Y-71870000D03*
X86867500Y-71070000D03*
X86867500Y-70270000D03*
X86867500Y-69470000D03*
X86867500Y-68670000D03*
X86867500Y-67870000D03*
X86867500Y-67070000D03*
X86867500Y-66270000D03*
X86867500Y-65470000D03*
X86867500Y-64670000D03*
X86867500Y-63870000D03*
D11*
X48283055Y-78849925D03*
X50283055Y-78849925D03*
D23*
X108390000Y-130345000D03*
X108390000Y-128270000D03*
D14*
X32963189Y-40782150D03*
X30888189Y-40782150D03*
D22*
X72709110Y-119098181D03*
X70709110Y-119098181D03*
D14*
X53118951Y-91112332D03*
X51043951Y-91112332D03*
D12*
X55069174Y-115673952D03*
X57144174Y-115673952D03*
D29*
X86305000Y-96870000D03*
X86305000Y-97670000D03*
X86305000Y-98470000D03*
X86305000Y-99270000D03*
X86305000Y-100070000D03*
X86305000Y-100870000D03*
X86305000Y-101670000D03*
X86305000Y-102470000D03*
X86305000Y-103270000D03*
X86305000Y-104070000D03*
X86305000Y-104870000D03*
X86305000Y-105670000D03*
X86305000Y-106470000D03*
X86305000Y-107270000D03*
X86305000Y-108070000D03*
X86305000Y-108870000D03*
D30*
X87980000Y-110545000D03*
X88780000Y-110545000D03*
X89580000Y-110545000D03*
X90380000Y-110545000D03*
X91180000Y-110545000D03*
X91980000Y-110545000D03*
X92780000Y-110545000D03*
X93580000Y-110545000D03*
X94380000Y-110545000D03*
X95180000Y-110545000D03*
X95980000Y-110545000D03*
X96780000Y-110545000D03*
X97580000Y-110545000D03*
X98380000Y-110545000D03*
X99180000Y-110545000D03*
X99980000Y-110545000D03*
D29*
X101655000Y-108870000D03*
X101655000Y-108070000D03*
X101655000Y-107270000D03*
X101655000Y-106470000D03*
X101655000Y-105670000D03*
X101655000Y-104870000D03*
X101655000Y-104070000D03*
X101655000Y-103270000D03*
X101655000Y-102470000D03*
X101655000Y-101670000D03*
X101655000Y-100870000D03*
X101655000Y-100070000D03*
X101655000Y-99270000D03*
X101655000Y-98470000D03*
X101655000Y-97670000D03*
X101655000Y-96870000D03*
D30*
X99980000Y-95195000D03*
X99180000Y-95195000D03*
X98380000Y-95195000D03*
X97580000Y-95195000D03*
X96780000Y-95195000D03*
X95980000Y-95195000D03*
X95180000Y-95195000D03*
X94380000Y-95195000D03*
X93580000Y-95195000D03*
X92780000Y-95195000D03*
X91980000Y-95195000D03*
X91180000Y-95195000D03*
X90380000Y-95195000D03*
X89580000Y-95195000D03*
X88780000Y-95195000D03*
X87980000Y-95195000D03*
D13*
X28892704Y-45902259D03*
X28892704Y-47977259D03*
D14*
X65550027Y-115570000D03*
X63475027Y-115570000D03*
D23*
X90910000Y-73187500D03*
X90910000Y-71112500D03*
D11*
X64678832Y-87630000D03*
X66678832Y-87630000D03*
D13*
X105418038Y-102808161D03*
X105418038Y-104883161D03*
D11*
X38640000Y-107950000D03*
X40640000Y-107950000D03*
M02*
