G04 #@! TF.GenerationSoftware,KiCad,Pcbnew,7.0.7*
G04 #@! TF.CreationDate,2023-10-10T22:42:23+09:00*
G04 #@! TF.ProjectId,Pixy-mega128,41544d65-6761-4313-9238-4475696e6f2e,rev?*
G04 #@! TF.SameCoordinates,Original*
G04 #@! TF.FileFunction,Soldermask,Top*
G04 #@! TF.FilePolarity,Negative*
%FSLAX46Y46*%
G04 Gerber Fmt 4.6, Leading zero omitted, Abs format (unit mm)*
G04 Created by KiCad (PCBNEW 7.0.7) date 2023-10-10 22:42:23*
%MOMM*%
%LPD*%
G01*
G04 APERTURE LIST*
G04 Aperture macros list*
%AMRoundRect*
0 Rectangle with rounded corners*
0 $1 Rounding radius*
0 $2 $3 $4 $5 $6 $7 $8 $9 X,Y pos of 4 corners*
0 Add a 4 corners polygon primitive as box body*
4,1,4,$2,$3,$4,$5,$6,$7,$8,$9,$2,$3,0*
0 Add four circle primitives for the rounded corners*
1,1,$1+$1,$2,$3*
1,1,$1+$1,$4,$5*
1,1,$1+$1,$6,$7*
1,1,$1+$1,$8,$9*
0 Add four rect primitives between the rounded corners*
20,1,$1+$1,$2,$3,$4,$5,0*
20,1,$1+$1,$4,$5,$6,$7,0*
20,1,$1+$1,$6,$7,$8,$9,0*
20,1,$1+$1,$8,$9,$2,$3,0*%
G04 Aperture macros list end*
%ADD10C,1.400000*%
%ADD11O,1.400000X1.400000*%
%ADD12C,4.500000*%
%ADD13RoundRect,0.250000X0.350000X-0.850000X0.350000X0.850000X-0.350000X0.850000X-0.350000X-0.850000X0*%
%ADD14RoundRect,0.249997X2.650003X-2.950003X2.650003X2.950003X-2.650003X2.950003X-2.650003X-2.950003X0*%
%ADD15R,1.700000X1.700000*%
%ADD16O,1.700000X1.700000*%
%ADD17C,1.600000*%
%ADD18R,1.800000X1.800000*%
%ADD19C,1.800000*%
%ADD20RoundRect,0.150000X0.675000X0.150000X-0.675000X0.150000X-0.675000X-0.150000X0.675000X-0.150000X0*%
%ADD21R,1.600000X1.600000*%
%ADD22C,1.500000*%
%ADD23C,0.650000*%
%ADD24R,0.600000X1.450000*%
%ADD25R,0.300000X1.450000*%
%ADD26O,1.000000X2.100000*%
%ADD27O,1.000000X1.600000*%
%ADD28R,1.500000X0.550000*%
%ADD29R,0.550000X1.500000*%
G04 APERTURE END LIST*
D10*
G04 #@! TO.C,R7*
X44688114Y-34598021D03*
D11*
X47228114Y-34598021D03*
G04 #@! TD*
D12*
G04 #@! TO.C,REF4*
X81280000Y-78740000D03*
G04 #@! TD*
D13*
G04 #@! TO.C,U2*
X32230907Y-52892586D03*
X34510907Y-52892586D03*
X36790907Y-52892586D03*
D14*
X34510907Y-46592586D03*
G04 #@! TD*
D15*
G04 #@! TO.C,J3*
X81280000Y-30480000D03*
D16*
X81280000Y-33020000D03*
X81280000Y-35560000D03*
X81280000Y-38100000D03*
X81280000Y-40640000D03*
X81280000Y-43180000D03*
X81280000Y-45720000D03*
X81280000Y-48260000D03*
G04 #@! TD*
D15*
G04 #@! TO.C,J4*
X50800000Y-55880000D03*
D16*
X50800000Y-58420000D03*
X50800000Y-60960000D03*
X50800000Y-63500000D03*
X50800000Y-66040000D03*
X50800000Y-68580000D03*
X50800000Y-71120000D03*
X50800000Y-73660000D03*
G04 #@! TD*
D17*
G04 #@! TO.C,C1*
X52221606Y-27891503D03*
X47221606Y-27891503D03*
G04 #@! TD*
D18*
G04 #@! TO.C,D3*
X39198295Y-68580000D03*
D19*
X39198295Y-66040000D03*
G04 #@! TD*
D17*
G04 #@! TO.C,C10*
X35720000Y-73660000D03*
X40720000Y-73660000D03*
G04 #@! TD*
D20*
G04 #@! TO.C,U3*
X38185000Y-40005000D03*
X38185000Y-38735000D03*
X38185000Y-37465000D03*
X38185000Y-36195000D03*
X32935000Y-36195000D03*
X32935000Y-37465000D03*
X32935000Y-38735000D03*
X32935000Y-40005000D03*
G04 #@! TD*
D17*
G04 #@! TO.C,C2*
X67284504Y-63849460D03*
X67284504Y-68849460D03*
G04 #@! TD*
D10*
G04 #@! TO.C,R9*
X30480000Y-30480000D03*
D11*
X33020000Y-30480000D03*
G04 #@! TD*
D10*
G04 #@! TO.C,R8*
X38100000Y-30480000D03*
D11*
X35560000Y-30480000D03*
G04 #@! TD*
D15*
G04 #@! TO.C,J14*
X68580000Y-22860000D03*
D16*
X68580000Y-20320000D03*
X71120000Y-22860000D03*
X71120000Y-20320000D03*
X73660000Y-22860000D03*
X73660000Y-20320000D03*
G04 #@! TD*
D12*
G04 #@! TO.C,REF1*
X22860000Y-22860000D03*
G04 #@! TD*
D17*
G04 #@! TO.C,C6*
X59720530Y-27922545D03*
X54720530Y-27922545D03*
G04 #@! TD*
D15*
G04 #@! TO.C,J1*
X48260000Y-20320000D03*
D16*
X48260000Y-22860000D03*
X45720000Y-20320000D03*
X45720000Y-22860000D03*
X43180000Y-20320000D03*
X43180000Y-22860000D03*
G04 #@! TD*
D21*
G04 #@! TO.C,C8*
X20360000Y-38100000D03*
D17*
X22860000Y-38100000D03*
G04 #@! TD*
D18*
G04 #@! TO.C,D1*
X20320000Y-30480000D03*
D19*
X22860000Y-30480000D03*
G04 #@! TD*
D17*
G04 #@! TO.C,C11*
X77270653Y-29851592D03*
X72270653Y-29851592D03*
G04 #@! TD*
G04 #@! TO.C,C3*
X62388252Y-63830700D03*
X62388252Y-68830700D03*
G04 #@! TD*
G04 #@! TO.C,C12*
X47356001Y-53359149D03*
X47356001Y-48359149D03*
G04 #@! TD*
D15*
G04 #@! TO.C,J10*
X48278264Y-79983973D03*
D16*
X45738264Y-79983973D03*
X43198264Y-79983973D03*
X40658264Y-79983973D03*
X38118264Y-79983973D03*
X35578264Y-79983973D03*
X33038264Y-79983973D03*
X30498264Y-79983973D03*
G04 #@! TD*
D18*
G04 #@! TO.C,D2*
X34118295Y-68580000D03*
D19*
X34118295Y-66040000D03*
G04 #@! TD*
D10*
G04 #@! TO.C,R6*
X44278295Y-60960000D03*
D11*
X44278295Y-63500000D03*
G04 #@! TD*
D10*
G04 #@! TO.C,R5*
X39198295Y-60960000D03*
D11*
X39198295Y-63500000D03*
G04 #@! TD*
D15*
G04 #@! TO.C,J7*
X50800000Y-33020000D03*
D16*
X50800000Y-35560000D03*
X50800000Y-38100000D03*
X50800000Y-40640000D03*
X50800000Y-43180000D03*
X50800000Y-45720000D03*
X50800000Y-48260000D03*
X50800000Y-50800000D03*
G04 #@! TD*
D22*
G04 #@! TO.C,Y1*
X62393884Y-59583529D03*
X67293884Y-59583529D03*
G04 #@! TD*
D12*
G04 #@! TO.C,REF2*
X81280000Y-22860000D03*
G04 #@! TD*
D23*
G04 #@! TO.C,J11*
X35782550Y-24416830D03*
X30002550Y-24416830D03*
D24*
X36142550Y-25861830D03*
X35342550Y-25861830D03*
D25*
X34142550Y-25861830D03*
X33142550Y-25861830D03*
X32642550Y-25861830D03*
X31642550Y-25861830D03*
D24*
X30442550Y-25861830D03*
X29642550Y-25861830D03*
X29642550Y-25861830D03*
X30442550Y-25861830D03*
D25*
X31142550Y-25861830D03*
X32142550Y-25861830D03*
X33642550Y-25861830D03*
X34642550Y-25861830D03*
D24*
X35342550Y-25861830D03*
X36142550Y-25861830D03*
D26*
X37212550Y-24946830D03*
D27*
X37212550Y-20766830D03*
D26*
X28572550Y-24946830D03*
D27*
X28572550Y-20766830D03*
G04 #@! TD*
D10*
G04 #@! TO.C,R2*
X25400000Y-30480000D03*
D11*
X27940000Y-30480000D03*
G04 #@! TD*
D18*
G04 #@! TO.C,D4*
X44278295Y-68580000D03*
D19*
X44278295Y-66040000D03*
G04 #@! TD*
D15*
G04 #@! TO.C,J12*
X25400000Y-58420000D03*
D16*
X25400000Y-60960000D03*
X25400000Y-63500000D03*
G04 #@! TD*
D15*
G04 #@! TO.C,J8*
X55880000Y-33020000D03*
D16*
X58420000Y-33020000D03*
X60960000Y-33020000D03*
X63500000Y-33020000D03*
X66040000Y-33020000D03*
X68580000Y-33020000D03*
X71120000Y-33020000D03*
X73660000Y-33020000D03*
G04 #@! TD*
D17*
G04 #@! TO.C,C7*
X33020000Y-73660000D03*
X28020000Y-73660000D03*
G04 #@! TD*
D10*
G04 #@! TO.C,R3*
X44755223Y-53328337D03*
D11*
X44755223Y-50788337D03*
G04 #@! TD*
D17*
G04 #@! TO.C,C9*
X27940000Y-35640000D03*
X27940000Y-40640000D03*
G04 #@! TD*
D15*
G04 #@! TO.C,J9*
X58420000Y-81280000D03*
D16*
X60960000Y-81280000D03*
X63500000Y-81280000D03*
X66040000Y-81280000D03*
X68580000Y-81280000D03*
G04 #@! TD*
D15*
G04 #@! TO.C,J2*
X53340000Y-22860000D03*
D16*
X55880000Y-22860000D03*
X58420000Y-22860000D03*
X60960000Y-22860000D03*
X63500000Y-22860000D03*
G04 #@! TD*
D28*
G04 #@! TO.C,U1*
X58148797Y-41141459D03*
X58148797Y-41941459D03*
X58148797Y-42741459D03*
X58148797Y-43541459D03*
X58148797Y-44341459D03*
X58148797Y-45141459D03*
X58148797Y-45941459D03*
X58148797Y-46741459D03*
X58148797Y-47541459D03*
X58148797Y-48341459D03*
X58148797Y-49141459D03*
X58148797Y-49941459D03*
X58148797Y-50741459D03*
X58148797Y-51541459D03*
X58148797Y-52341459D03*
X58148797Y-53141459D03*
D29*
X59848797Y-54841459D03*
X60648797Y-54841459D03*
X61448797Y-54841459D03*
X62248797Y-54841459D03*
X63048797Y-54841459D03*
X63848797Y-54841459D03*
X64648797Y-54841459D03*
X65448797Y-54841459D03*
X66248797Y-54841459D03*
X67048797Y-54841459D03*
X67848797Y-54841459D03*
X68648797Y-54841459D03*
X69448797Y-54841459D03*
X70248797Y-54841459D03*
X71048797Y-54841459D03*
X71848797Y-54841459D03*
D28*
X73548797Y-53141459D03*
X73548797Y-52341459D03*
X73548797Y-51541459D03*
X73548797Y-50741459D03*
X73548797Y-49941459D03*
X73548797Y-49141459D03*
X73548797Y-48341459D03*
X73548797Y-47541459D03*
X73548797Y-46741459D03*
X73548797Y-45941459D03*
X73548797Y-45141459D03*
X73548797Y-44341459D03*
X73548797Y-43541459D03*
X73548797Y-42741459D03*
X73548797Y-41941459D03*
X73548797Y-41141459D03*
D29*
X71848797Y-39441459D03*
X71048797Y-39441459D03*
X70248797Y-39441459D03*
X69448797Y-39441459D03*
X68648797Y-39441459D03*
X67848797Y-39441459D03*
X67048797Y-39441459D03*
X66248797Y-39441459D03*
X65448797Y-39441459D03*
X64648797Y-39441459D03*
X63848797Y-39441459D03*
X63048797Y-39441459D03*
X62248797Y-39441459D03*
X61448797Y-39441459D03*
X60648797Y-39441459D03*
X59848797Y-39441459D03*
G04 #@! TD*
D15*
G04 #@! TO.C,J6*
X58420000Y-76200000D03*
D16*
X60960000Y-76200000D03*
X63500000Y-76200000D03*
X66040000Y-76200000D03*
X68580000Y-76200000D03*
X71120000Y-76200000D03*
X73660000Y-76200000D03*
X76200000Y-76200000D03*
G04 #@! TD*
D10*
G04 #@! TO.C,R4*
X34118295Y-60960000D03*
D11*
X34118295Y-63500000D03*
G04 #@! TD*
D10*
G04 #@! TO.C,R1*
X44569622Y-26950914D03*
D11*
X42029622Y-26950914D03*
G04 #@! TD*
D15*
G04 #@! TO.C,J5*
X81280000Y-53340000D03*
D16*
X81280000Y-55880000D03*
X81280000Y-58420000D03*
X81280000Y-60960000D03*
X81280000Y-63500000D03*
X81280000Y-66040000D03*
X81280000Y-68580000D03*
X81280000Y-71120000D03*
G04 #@! TD*
D17*
G04 #@! TO.C,C13*
X20400000Y-53340000D03*
X25400000Y-53340000D03*
G04 #@! TD*
D21*
G04 #@! TO.C,C4*
X22860000Y-45760000D03*
D17*
X22860000Y-48260000D03*
G04 #@! TD*
D12*
G04 #@! TO.C,REF3*
X22860000Y-78740000D03*
G04 #@! TD*
D15*
G04 #@! TO.C,J13*
X20320000Y-58420000D03*
D16*
X20320000Y-60960000D03*
X20320000Y-63500000D03*
G04 #@! TD*
D17*
G04 #@! TO.C,C5*
X27940000Y-50720000D03*
X27940000Y-45720000D03*
G04 #@! TD*
M02*
