G04 #@! TF.GenerationSoftware,KiCad,Pcbnew,7.0.7*
G04 #@! TF.CreationDate,2023-10-10T22:42:23+09:00*
G04 #@! TF.ProjectId,Pixy-mega128,41544d65-6761-4313-9238-4475696e6f2e,rev?*
G04 #@! TF.SameCoordinates,Original*
G04 #@! TF.FileFunction,Paste,Top*
G04 #@! TF.FilePolarity,Positive*
%FSLAX46Y46*%
G04 Gerber Fmt 4.6, Leading zero omitted, Abs format (unit mm)*
G04 Created by KiCad (PCBNEW 7.0.7) date 2023-10-10 22:42:23*
%MOMM*%
%LPD*%
G01*
G04 APERTURE LIST*
G04 Aperture macros list*
%AMRoundRect*
0 Rectangle with rounded corners*
0 $1 Rounding radius*
0 $2 $3 $4 $5 $6 $7 $8 $9 X,Y pos of 4 corners*
0 Add a 4 corners polygon primitive as box body*
4,1,4,$2,$3,$4,$5,$6,$7,$8,$9,$2,$3,0*
0 Add four circle primitives for the rounded corners*
1,1,$1+$1,$2,$3*
1,1,$1+$1,$4,$5*
1,1,$1+$1,$6,$7*
1,1,$1+$1,$8,$9*
0 Add four rect primitives between the rounded corners*
20,1,$1+$1,$2,$3,$4,$5,0*
20,1,$1+$1,$4,$5,$6,$7,0*
20,1,$1+$1,$6,$7,$8,$9,0*
20,1,$1+$1,$8,$9,$2,$3,0*%
G04 Aperture macros list end*
%ADD10RoundRect,0.250000X0.350000X-0.850000X0.350000X0.850000X-0.350000X0.850000X-0.350000X-0.850000X0*%
%ADD11RoundRect,0.250000X1.125000X-1.275000X1.125000X1.275000X-1.125000X1.275000X-1.125000X-1.275000X0*%
%ADD12RoundRect,0.150000X0.675000X0.150000X-0.675000X0.150000X-0.675000X-0.150000X0.675000X-0.150000X0*%
%ADD13R,0.600000X1.450000*%
%ADD14R,0.300000X1.450000*%
%ADD15R,1.500000X0.550000*%
%ADD16R,0.550000X1.500000*%
G04 APERTURE END LIST*
D10*
G04 #@! TO.C,U2*
X32230907Y-52892586D03*
X34510907Y-52892586D03*
X36790907Y-52892586D03*
D11*
X32985907Y-48267586D03*
X36035907Y-48267586D03*
X32985907Y-44917586D03*
X36035907Y-44917586D03*
G04 #@! TD*
D12*
G04 #@! TO.C,U3*
X38185000Y-40005000D03*
X38185000Y-38735000D03*
X38185000Y-37465000D03*
X38185000Y-36195000D03*
X32935000Y-36195000D03*
X32935000Y-37465000D03*
X32935000Y-38735000D03*
X32935000Y-40005000D03*
G04 #@! TD*
D13*
G04 #@! TO.C,J11*
X36142550Y-25861830D03*
X35342550Y-25861830D03*
D14*
X34142550Y-25861830D03*
X33142550Y-25861830D03*
X32642550Y-25861830D03*
X31642550Y-25861830D03*
D13*
X30442550Y-25861830D03*
X29642550Y-25861830D03*
X29642550Y-25861830D03*
X30442550Y-25861830D03*
D14*
X31142550Y-25861830D03*
X32142550Y-25861830D03*
X33642550Y-25861830D03*
X34642550Y-25861830D03*
D13*
X35342550Y-25861830D03*
X36142550Y-25861830D03*
G04 #@! TD*
D15*
G04 #@! TO.C,U1*
X58148797Y-41141459D03*
X58148797Y-41941459D03*
X58148797Y-42741459D03*
X58148797Y-43541459D03*
X58148797Y-44341459D03*
X58148797Y-45141459D03*
X58148797Y-45941459D03*
X58148797Y-46741459D03*
X58148797Y-47541459D03*
X58148797Y-48341459D03*
X58148797Y-49141459D03*
X58148797Y-49941459D03*
X58148797Y-50741459D03*
X58148797Y-51541459D03*
X58148797Y-52341459D03*
X58148797Y-53141459D03*
D16*
X59848797Y-54841459D03*
X60648797Y-54841459D03*
X61448797Y-54841459D03*
X62248797Y-54841459D03*
X63048797Y-54841459D03*
X63848797Y-54841459D03*
X64648797Y-54841459D03*
X65448797Y-54841459D03*
X66248797Y-54841459D03*
X67048797Y-54841459D03*
X67848797Y-54841459D03*
X68648797Y-54841459D03*
X69448797Y-54841459D03*
X70248797Y-54841459D03*
X71048797Y-54841459D03*
X71848797Y-54841459D03*
D15*
X73548797Y-53141459D03*
X73548797Y-52341459D03*
X73548797Y-51541459D03*
X73548797Y-50741459D03*
X73548797Y-49941459D03*
X73548797Y-49141459D03*
X73548797Y-48341459D03*
X73548797Y-47541459D03*
X73548797Y-46741459D03*
X73548797Y-45941459D03*
X73548797Y-45141459D03*
X73548797Y-44341459D03*
X73548797Y-43541459D03*
X73548797Y-42741459D03*
X73548797Y-41941459D03*
X73548797Y-41141459D03*
D16*
X71848797Y-39441459D03*
X71048797Y-39441459D03*
X70248797Y-39441459D03*
X69448797Y-39441459D03*
X68648797Y-39441459D03*
X67848797Y-39441459D03*
X67048797Y-39441459D03*
X66248797Y-39441459D03*
X65448797Y-39441459D03*
X64648797Y-39441459D03*
X63848797Y-39441459D03*
X63048797Y-39441459D03*
X62248797Y-39441459D03*
X61448797Y-39441459D03*
X60648797Y-39441459D03*
X59848797Y-39441459D03*
G04 #@! TD*
M02*
