M48
; DRILL file {KiCad 7.0.7} date Tue Oct 10 22:46:11 2023
; FORMAT={-:-/ absolute / metric / decimal}
; #@! TF.CreationDate,2023-10-10T22:46:11+09:00
; #@! TF.GenerationSoftware,Kicad,Pcbnew,7.0.7
; #@! TF.FileFunction,MixedPlating,1,2
FMAT,2
METRIC
; #@! TA.AperFunction,Plated,PTH,ViaDrill
T1C0.400
; #@! TA.AperFunction,Plated,PTH,ComponentDrill
T2C0.600
; #@! TA.AperFunction,Plated,PTH,ComponentDrill
T3C0.700
; #@! TA.AperFunction,Plated,PTH,ComponentDrill
T4C0.800
; #@! TA.AperFunction,Plated,PTH,ComponentDrill
T5C0.900
; #@! TA.AperFunction,Plated,PTH,ComponentDrill
T6C1.000
; #@! TA.AperFunction,Plated,PTH,ComponentDrill
T7C2.700
; #@! TA.AperFunction,NonPlated,NPTH,ComponentDrill
T8C0.650
%
G90
G05
T1
X18.797Y-43.904
X18.828Y-39.64
X18.913Y-65.118
X18.973Y-67.33
X19.1Y-26.669
X19.313Y-33.033
X19.379Y-82.623
X19.7Y-19.602
X20.049Y-51.612
X21.611Y-55.037
X22.522Y-58.411
X22.86Y-71.12
X23.305Y-35.149
X23.414Y-50.155
X24.059Y-18.974
X24.219Y-72.411
X24.489Y-36.151
X24.518Y-27.067
X24.756Y-50.641
X24.764Y-42.072
X24.92Y-37.54
X25.163Y-65.588
X25.603Y-68.955
X25.742Y-55.572
X25.758Y-41.125
X26.332Y-20.773
X26.422Y-78.74
X26.859Y-24.86
X27.853Y-32.508
X28.327Y-69.462
X28.524Y-18.674
X28.623Y-22.679
X29.219Y-29.093
X29.628Y-38.771
X29.75Y-66.219
X29.872Y-59.155
X29.897Y-61.702
X29.902Y-27.528
X30.199Y-44.33
X30.259Y-47.572
X30.275Y-46.135
X30.388Y-20.756
X30.467Y-33.735
X30.794Y-75.474
X30.942Y-37.819
X31.001Y-57.034
X31.273Y-71.659
X31.419Y-42.159
X32.913Y-41.898
X33.02Y-28.727
X33.03Y-32.053
X33.617Y-57.066
X34.625Y-41.906
X35.24Y-29.158
X35.364Y-27.484
X35.365Y-20.716
X35.577Y-32.311
X36.037Y-71.276
X36.142Y-41.898
X36.224Y-57.013
X36.474Y-77.013
X36.642Y-60.72
X37.249Y-22.699
X37.269Y-18.654
X37.566Y-27.061
X38.235Y-57.181
X38.315Y-34.187
X38.78Y-43.05
X38.796Y-46.259
X38.825Y-51.403
X38.825Y-47.542
X38.846Y-44.882
X38.904Y-49.146
X38.912Y-24.97
X39.277Y-20.711
X39.669Y-55.139
X39.758Y-37.477
X40.104Y-75.563
X40.643Y-29.444
X40.648Y-23.993
X40.787Y-71.12
X40.906Y-42.845
X40.956Y-22.248
X41.163Y-57.212
X41.557Y-61.082
X42.055Y-33.721
X42.144Y-24.902
X42.552Y-55.122
X42.615Y-51.407
X43.257Y-46.854
X43.297Y-41.528
X44.123Y-57.181
X44.43Y-31.052
X45.39Y-71.12
X45.616Y-77.587
X45.634Y-28.29
X45.662Y-38.91
X45.861Y-26.19
X45.992Y-25.128
X46.396Y-55.027
X46.757Y-43.324
X47.099Y-30.627
X47.527Y-36.649
X47.667Y-67.232
X47.791Y-82.914
X47.857Y-57.629
X47.989Y-75.774
X48.256Y-63.564
X48.867Y-73.415
X50.302Y-23.717
X50.743Y-78.566
X50.778Y-26.675
X50.8Y-76.068
X51.073Y-18.749
X51.171Y-81.583
X51.906Y-25.21
X52.395Y-31.445
X52.967Y-82.868
X53.485Y-29.542
X54.712Y-75.058
X54.767Y-37.732
X54.986Y-77.642
X55.923Y-18.805
X56.156Y-79.664
X56.723Y-70.637
X57.614Y-28.052
X57.902Y-39.719
X58.29Y-67.812
X59.057Y-24.851
X59.672Y-70.913
X59.734Y-37.623
X59.883Y-64.948
X60.2Y-46.958
X60.246Y-50.596
X60.324Y-52.14
X60.417Y-43.507
X60.626Y-59.409
X60.929Y-62.017
X60.963Y-41.539
X61.508Y-52.702
X61.646Y-28.548
X62.256Y-21.66
X62.9Y-72.515
X63.39Y-56.671
X63.5Y-25.115
X63.5Y-47.512
X63.653Y-41.691
X64.095Y-53.188
X64.398Y-28.537
X64.716Y-69.132
X64.809Y-61.588
X64.809Y-64.056
X64.817Y-59.502
X65.142Y-45.739
X65.516Y-18.712
X66.129Y-50.869
X66.686Y-22.984
X67.041Y-44.008
X67.277Y-53.297
X67.308Y-74.095
X67.886Y-41.497
X68.364Y-48.485
X68.519Y-61.433
X68.58Y-50.8
X68.798Y-52.952
X68.798Y-64.692
X69.449Y-43.962
X69.665Y-29.634
X69.745Y-74.142
X69.823Y-72.186
X69.947Y-67.635
X70.024Y-53.176
X70.288Y-46.623
X70.814Y-31.114
X70.832Y-49.084
X70.897Y-28.496
X70.967Y-41.771
X71.095Y-80.965
X71.266Y-66.921
X71.499Y-51.872
X71.732Y-53.173
X72.199Y-46.878
X72.337Y-35.947
X72.368Y-74.142
X72.399Y-70.696
X72.43Y-18.889
X73.066Y-67.067
X73.773Y-35.998
X74.415Y-30.979
X74.603Y-80.996
X75.025Y-34.839
X75.084Y-56.86
X75.178Y-60.679
X75.178Y-64.202
X75.348Y-54.02
X75.665Y-66.895
X75.665Y-69.004
X75.804Y-20.965
X76.036Y-26.171
X76.481Y-24.207
X76.991Y-32.343
X77.244Y-49.669
X77.322Y-27.461
X77.424Y-52.522
X77.552Y-54.936
X78.096Y-69.091
X78.111Y-72.739
X78.561Y-80.996
X78.623Y-63.597
X78.644Y-45.488
X78.911Y-51.336
X78.934Y-55.852
X79.34Y-29.539
X79.415Y-59.716
X79.539Y-67.322
X83.512Y-72.692
X83.563Y-28.445
X83.575Y-75.526
X84.739Y-19.19
X84.94Y-82.573
X85.16Y-48.034
T3
X25.4Y-30.48
X27.94Y-30.48
X30.48Y-30.48
X33.02Y-30.48
X34.118Y-60.96
X34.118Y-63.5
X35.56Y-30.48
X38.1Y-30.48
X39.198Y-60.96
X39.198Y-63.5
X42.03Y-26.951
X44.278Y-60.96
X44.278Y-63.5
X44.57Y-26.951
X44.688Y-34.598
X44.755Y-50.788
X44.755Y-53.328
X47.228Y-34.598
T4
X20.36Y-38.1
X20.4Y-53.34
X22.86Y-38.1
X22.86Y-45.76
X22.86Y-48.26
X25.4Y-53.34
X27.94Y-35.64
X27.94Y-40.64
X27.94Y-45.72
X27.94Y-50.72
X28.02Y-73.66
X33.02Y-73.66
X35.72Y-73.66
X40.72Y-73.66
X47.222Y-27.892
X47.356Y-48.359
X47.356Y-53.359
X52.222Y-27.892
X54.721Y-27.923
X59.721Y-27.923
X62.388Y-63.831
X62.388Y-68.831
X62.394Y-59.584
X67.285Y-63.849
X67.285Y-68.849
X67.294Y-59.584
X72.271Y-29.852
X77.271Y-29.852
T5
X20.32Y-30.48
X22.86Y-30.48
X34.118Y-66.04
X34.118Y-68.58
X39.198Y-66.04
X39.198Y-68.58
X44.278Y-66.04
X44.278Y-68.58
T6
X20.32Y-58.42
X20.32Y-60.96
X20.32Y-63.5
X25.4Y-58.42
X25.4Y-60.96
X25.4Y-63.5
X30.498Y-79.984
X33.038Y-79.984
X35.578Y-79.984
X38.118Y-79.984
X40.658Y-79.984
X43.18Y-20.32
X43.18Y-22.86
X43.198Y-79.984
X45.72Y-20.32
X45.72Y-22.86
X45.738Y-79.984
X48.26Y-20.32
X48.26Y-22.86
X48.278Y-79.984
X50.8Y-33.02
X50.8Y-35.56
X50.8Y-38.1
X50.8Y-40.64
X50.8Y-43.18
X50.8Y-45.72
X50.8Y-48.26
X50.8Y-50.8
X50.8Y-55.88
X50.8Y-58.42
X50.8Y-60.96
X50.8Y-63.5
X50.8Y-66.04
X50.8Y-68.58
X50.8Y-71.12
X50.8Y-73.66
X53.34Y-22.86
X55.88Y-22.86
X55.88Y-33.02
X58.42Y-22.86
X58.42Y-33.02
X58.42Y-76.2
X58.42Y-81.28
X60.96Y-22.86
X60.96Y-33.02
X60.96Y-76.2
X60.96Y-81.28
X63.5Y-22.86
X63.5Y-33.02
X63.5Y-76.2
X63.5Y-81.28
X66.04Y-33.02
X66.04Y-76.2
X66.04Y-81.28
X68.58Y-20.32
X68.58Y-22.86
X68.58Y-33.02
X68.58Y-76.2
X68.58Y-81.28
X71.12Y-20.32
X71.12Y-22.86
X71.12Y-33.02
X71.12Y-76.2
X73.66Y-20.32
X73.66Y-22.86
X73.66Y-33.02
X73.66Y-76.2
X76.2Y-76.2
X81.28Y-30.48
X81.28Y-33.02
X81.28Y-35.56
X81.28Y-38.1
X81.28Y-40.64
X81.28Y-43.18
X81.28Y-45.72
X81.28Y-48.26
X81.28Y-53.34
X81.28Y-55.88
X81.28Y-58.42
X81.28Y-60.96
X81.28Y-63.5
X81.28Y-66.04
X81.28Y-68.58
X81.28Y-71.12
T7
X22.86Y-22.86
X22.86Y-78.74
X81.28Y-22.86
X81.28Y-78.74
T8
X30.003Y-24.417
X35.783Y-24.417
T2
G00X28.573Y-21.067
M15
G01X28.573Y-20.467
M16
G05
G00X28.573Y-25.497
M15
G01X28.573Y-24.397
M16
G05
G00X37.213Y-21.067
M15
G01X37.213Y-20.467
M16
G05
G00X37.213Y-25.497
M15
G01X37.213Y-24.397
M16
G05
T0
M30
