G04 #@! TF.GenerationSoftware,KiCad,Pcbnew,7.0.7*
G04 #@! TF.CreationDate,2023-12-21T21:40:58+09:00*
G04 #@! TF.ProjectId,Pixy-68000,50697879-2d36-4383-9030-302e6b696361,rev?*
G04 #@! TF.SameCoordinates,Original*
G04 #@! TF.FileFunction,Soldermask,Top*
G04 #@! TF.FilePolarity,Negative*
%FSLAX46Y46*%
G04 Gerber Fmt 4.6, Leading zero omitted, Abs format (unit mm)*
G04 Created by KiCad (PCBNEW 7.0.7) date 2023-12-21 21:40:58*
%MOMM*%
%LPD*%
G01*
G04 APERTURE LIST*
G04 Aperture macros list*
%AMRoundRect*
0 Rectangle with rounded corners*
0 $1 Rounding radius*
0 $2 $3 $4 $5 $6 $7 $8 $9 X,Y pos of 4 corners*
0 Add a 4 corners polygon primitive as box body*
4,1,4,$2,$3,$4,$5,$6,$7,$8,$9,$2,$3,0*
0 Add four circle primitives for the rounded corners*
1,1,$1+$1,$2,$3*
1,1,$1+$1,$4,$5*
1,1,$1+$1,$6,$7*
1,1,$1+$1,$8,$9*
0 Add four rect primitives between the rounded corners*
20,1,$1+$1,$2,$3,$4,$5,0*
20,1,$1+$1,$4,$5,$6,$7,0*
20,1,$1+$1,$6,$7,$8,$9,0*
20,1,$1+$1,$8,$9,$2,$3,0*%
G04 Aperture macros list end*
%ADD10C,6.000000*%
%ADD11RoundRect,0.250000X-0.350000X-0.450000X0.350000X-0.450000X0.350000X0.450000X-0.350000X0.450000X0*%
%ADD12RoundRect,0.250000X0.450000X-0.350000X0.450000X0.350000X-0.450000X0.350000X-0.450000X-0.350000X0*%
%ADD13R,1.800000X1.800000*%
%ADD14C,1.800000*%
%ADD15RoundRect,0.250000X-0.337500X-0.475000X0.337500X-0.475000X0.337500X0.475000X-0.337500X0.475000X0*%
%ADD16R,1.700000X1.700000*%
%ADD17O,1.700000X1.700000*%
%ADD18C,1.700000*%
%ADD19RoundRect,0.250000X-0.450000X0.350000X-0.450000X-0.350000X0.450000X-0.350000X0.450000X0.350000X0*%
%ADD20RoundRect,0.250000X-0.475000X0.337500X-0.475000X-0.337500X0.475000X-0.337500X0.475000X0.337500X0*%
%ADD21RoundRect,0.250000X0.350000X0.450000X-0.350000X0.450000X-0.350000X-0.450000X0.350000X-0.450000X0*%
%ADD22RoundRect,0.250000X0.337500X0.475000X-0.337500X0.475000X-0.337500X-0.475000X0.337500X-0.475000X0*%
%ADD23RoundRect,0.150000X-0.675000X-0.150000X0.675000X-0.150000X0.675000X0.150000X-0.675000X0.150000X0*%
%ADD24C,0.650000*%
%ADD25R,0.600000X1.450000*%
%ADD26R,0.300000X1.450000*%
%ADD27O,1.000000X2.100000*%
%ADD28O,1.000000X1.600000*%
%ADD29R,3.000000X1.980000*%
%ADD30R,1.562100X0.279400*%
%ADD31R,0.279400X1.562100*%
%ADD32RoundRect,0.250000X0.475000X-0.337500X0.475000X0.337500X-0.475000X0.337500X-0.475000X-0.337500X0*%
%ADD33R,1.600000X1.600000*%
%ADD34C,1.600000*%
%ADD35R,1.600000X0.550000*%
%ADD36R,0.550000X1.600000*%
%ADD37R,1.422400X1.422400*%
%ADD38C,1.422400*%
%ADD39RoundRect,0.250000X-0.850000X-0.350000X0.850000X-0.350000X0.850000X0.350000X-0.850000X0.350000X0*%
%ADD40RoundRect,0.249997X-2.950003X-2.650003X2.950003X-2.650003X2.950003X2.650003X-2.950003X2.650003X0*%
%ADD41RoundRect,0.137500X-0.625000X-0.137500X0.625000X-0.137500X0.625000X0.137500X-0.625000X0.137500X0*%
%ADD42RoundRect,0.137500X-0.862500X-0.137500X0.862500X-0.137500X0.862500X0.137500X-0.862500X0.137500X0*%
%ADD43RoundRect,0.137500X-0.137500X-0.862500X0.137500X-0.862500X0.137500X0.862500X-0.137500X0.862500X0*%
G04 APERTURE END LIST*
D10*
X149860000Y-135890000D03*
X30480000Y-135890000D03*
X149860000Y-30480000D03*
X30480000Y-30480000D03*
D11*
X134641456Y-87637124D03*
X136641456Y-87637124D03*
D12*
X112741487Y-127637285D03*
X112741487Y-125637285D03*
D13*
X68018960Y-124830501D03*
D14*
X70558960Y-124830501D03*
D13*
X37596046Y-78870000D03*
D14*
X40136046Y-78870000D03*
D15*
X53525591Y-35782885D03*
X55600591Y-35782885D03*
D16*
X41250019Y-90510818D03*
D17*
X43790019Y-90510818D03*
X41250019Y-93050818D03*
X43790019Y-93050818D03*
X41250019Y-95590818D03*
X43790019Y-95590818D03*
D13*
X62938960Y-124830501D03*
D14*
X65478960Y-124830501D03*
D16*
X126290000Y-120940000D03*
D18*
X132790000Y-120940000D03*
X126290000Y-125440000D03*
X132790000Y-125440000D03*
D19*
X67310000Y-80280000D03*
X67310000Y-82280000D03*
X32290731Y-79849579D03*
X32290731Y-81849579D03*
X29184551Y-42975176D03*
X29184551Y-44975176D03*
D12*
X33020000Y-94980000D03*
X33020000Y-92980000D03*
D20*
X70590000Y-71112500D03*
X70590000Y-73187500D03*
D15*
X91905000Y-90170000D03*
X93980000Y-90170000D03*
D21*
X121650000Y-87630000D03*
X119650000Y-87630000D03*
D16*
X64770000Y-31750000D03*
D17*
X64770000Y-29210000D03*
X67310000Y-31750000D03*
X67310000Y-29210000D03*
X69850000Y-31750000D03*
X69850000Y-29210000D03*
X72390000Y-31750000D03*
X72390000Y-29210000D03*
X74930000Y-31750000D03*
X74930000Y-29210000D03*
X77470000Y-31750000D03*
X77470000Y-29210000D03*
X80010000Y-31750000D03*
X80010000Y-29210000D03*
X82550000Y-31750000D03*
X82550000Y-29210000D03*
X85090000Y-31750000D03*
X85090000Y-29210000D03*
X87630000Y-31750000D03*
X87630000Y-29210000D03*
X90170000Y-31750000D03*
X90170000Y-29210000D03*
X92710000Y-31750000D03*
X92710000Y-29210000D03*
X95250000Y-31750000D03*
X95250000Y-29210000D03*
X97790000Y-31750000D03*
X97790000Y-29210000D03*
X100330000Y-31750000D03*
X100330000Y-29210000D03*
X102870000Y-31750000D03*
X102870000Y-29210000D03*
X105410000Y-31750000D03*
X105410000Y-29210000D03*
X107950000Y-31750000D03*
X107950000Y-29210000D03*
X110490000Y-31750000D03*
X110490000Y-29210000D03*
X113030000Y-31750000D03*
X113030000Y-29210000D03*
X115570000Y-31750000D03*
X115570000Y-29210000D03*
X118110000Y-31750000D03*
X118110000Y-29210000D03*
X120650000Y-31750000D03*
X120650000Y-29210000D03*
X123190000Y-31750000D03*
X123190000Y-29210000D03*
X125730000Y-31750000D03*
X125730000Y-29210000D03*
D15*
X37136145Y-57769320D03*
X39211145Y-57769320D03*
D22*
X142253007Y-114872441D03*
X140178007Y-114872441D03*
X95462968Y-116398828D03*
X93387968Y-116398828D03*
D23*
X32850000Y-43175364D03*
X32850000Y-44445364D03*
X32850000Y-45715364D03*
X32850000Y-46985364D03*
X38100000Y-46985364D03*
X38100000Y-45715364D03*
X38100000Y-44445364D03*
X38100000Y-43175364D03*
D11*
X38640000Y-105410000D03*
X40640000Y-105410000D03*
D20*
X39217195Y-116676503D03*
X39217195Y-118751503D03*
D16*
X30480000Y-118110000D03*
D17*
X33020000Y-118110000D03*
X30480000Y-120650000D03*
X33020000Y-120650000D03*
X30480000Y-123190000D03*
X33020000Y-123190000D03*
D13*
X73098960Y-124830501D03*
D14*
X75638960Y-124830501D03*
D24*
X43016384Y-32194319D03*
X37236384Y-32194319D03*
D25*
X43376384Y-33639319D03*
X42576384Y-33639319D03*
D26*
X41376384Y-33639319D03*
X40376384Y-33639319D03*
X39876384Y-33639319D03*
X38876384Y-33639319D03*
D25*
X37676384Y-33639319D03*
X36876384Y-33639319D03*
X36876384Y-33639319D03*
X37676384Y-33639319D03*
D26*
X38376384Y-33639319D03*
X39376384Y-33639319D03*
X40876384Y-33639319D03*
X41876384Y-33639319D03*
D25*
X42576384Y-33639319D03*
X43376384Y-33639319D03*
D27*
X44446384Y-32724319D03*
D28*
X44446384Y-28544319D03*
D27*
X35806384Y-32724319D03*
D28*
X35806384Y-28544319D03*
D15*
X47020464Y-50628642D03*
X49095464Y-50628642D03*
D13*
X53340000Y-30475364D03*
D14*
X55880000Y-30475364D03*
D11*
X38640000Y-102870000D03*
X40640000Y-102870000D03*
D19*
X136489299Y-123452879D03*
X136489299Y-125452879D03*
D12*
X35160110Y-76775732D03*
X35160110Y-74775732D03*
D20*
X99567500Y-71112500D03*
X99567500Y-73187500D03*
D16*
X40640000Y-135890000D03*
X40640000Y-125730000D03*
D17*
X40640000Y-133350000D03*
X40640000Y-130810000D03*
X40640000Y-128270000D03*
D19*
X34036904Y-85535235D03*
X34036904Y-87535235D03*
D13*
X42676046Y-78870000D03*
D14*
X45216046Y-78870000D03*
D29*
X42272272Y-115045704D03*
X42272272Y-120305704D03*
X47472272Y-120305704D03*
X47472272Y-115045704D03*
D30*
X53181250Y-96869999D03*
X53181250Y-97370001D03*
X53181250Y-97870000D03*
X53181250Y-98369999D03*
X53181250Y-98870000D03*
X53181250Y-99369999D03*
X53181250Y-99870001D03*
X53181250Y-100370000D03*
X53181250Y-100869999D03*
X53181250Y-101370000D03*
X53181250Y-101869999D03*
X53181250Y-102369998D03*
X53181250Y-102870000D03*
X53181250Y-103369999D03*
X53181250Y-103870001D03*
X53181250Y-104370000D03*
X53181250Y-104869999D03*
X53181250Y-105370000D03*
X53181250Y-105869999D03*
X53181250Y-106370001D03*
X53181250Y-106870000D03*
X53181250Y-107369999D03*
X53181250Y-107870000D03*
X53181250Y-108369999D03*
X53181250Y-108870001D03*
D31*
X54959999Y-110648750D03*
X55460001Y-110648750D03*
X55960000Y-110648750D03*
X56459999Y-110648750D03*
X56960000Y-110648750D03*
X57459999Y-110648750D03*
X57960001Y-110648750D03*
X58460000Y-110648750D03*
X58959999Y-110648750D03*
X59460000Y-110648750D03*
X59959999Y-110648750D03*
X60460001Y-110648750D03*
X60960000Y-110648750D03*
X61459999Y-110648750D03*
X61960001Y-110648750D03*
X62460000Y-110648750D03*
X62960001Y-110648750D03*
X63460000Y-110648750D03*
X63959999Y-110648750D03*
X64460001Y-110648750D03*
X64960000Y-110648750D03*
X65460001Y-110648750D03*
X65960000Y-110648750D03*
X66459999Y-110648750D03*
X66960001Y-110648750D03*
D30*
X68738750Y-108870001D03*
X68738750Y-108369999D03*
X68738750Y-107870000D03*
X68738750Y-107370001D03*
X68738750Y-106870000D03*
X68738750Y-106370001D03*
X68738750Y-105869999D03*
X68738750Y-105370000D03*
X68738750Y-104870001D03*
X68738750Y-104370000D03*
X68738750Y-103870001D03*
X68738750Y-103369999D03*
X68738750Y-102870000D03*
X68738750Y-102370001D03*
X68738750Y-101869999D03*
X68738750Y-101370000D03*
X68738750Y-100869999D03*
X68738750Y-100370000D03*
X68738750Y-99870001D03*
X68738750Y-99369999D03*
X68738750Y-98870000D03*
X68738750Y-98369999D03*
X68738750Y-97870000D03*
X68738750Y-97370001D03*
X68738750Y-96869999D03*
D31*
X66960001Y-95091250D03*
X66459999Y-95091250D03*
X65960000Y-95091250D03*
X65460001Y-95091250D03*
X64960000Y-95091250D03*
X64460001Y-95091250D03*
X63959999Y-95091250D03*
X63460000Y-95091250D03*
X62960001Y-95091250D03*
X62460000Y-95091250D03*
X61960001Y-95091250D03*
X61459999Y-95091250D03*
X60960000Y-95091250D03*
X60460001Y-95091250D03*
X59959999Y-95091250D03*
X59460000Y-95091250D03*
X58959999Y-95091250D03*
X58460000Y-95091250D03*
X57960001Y-95091250D03*
X57459999Y-95091250D03*
X56960000Y-95091250D03*
X56459999Y-95091250D03*
X55960000Y-95091250D03*
X55460001Y-95091250D03*
X54959999Y-95091250D03*
D13*
X78178960Y-124830501D03*
D14*
X80718960Y-124830501D03*
D13*
X37596046Y-85090000D03*
D14*
X40136046Y-85090000D03*
D21*
X146067375Y-129013899D03*
X144067375Y-129013899D03*
D32*
X118385000Y-73187500D03*
X118385000Y-71112500D03*
D19*
X136469889Y-133594922D03*
X136469889Y-135594922D03*
D33*
X54222834Y-51527438D03*
D34*
X56722834Y-51527438D03*
D21*
X82829012Y-119140172D03*
X80829012Y-119140172D03*
D35*
X94810000Y-126010000D03*
X94810000Y-126810000D03*
X94810000Y-127610000D03*
X94810000Y-128410000D03*
X94810000Y-129210000D03*
X94810000Y-130010000D03*
X94810000Y-130810000D03*
X94810000Y-131610000D03*
D36*
X96260000Y-133060000D03*
X97060000Y-133060000D03*
X97860000Y-133060000D03*
X98660000Y-133060000D03*
X99460000Y-133060000D03*
X100260000Y-133060000D03*
X101060000Y-133060000D03*
X101860000Y-133060000D03*
D35*
X103310000Y-131610000D03*
X103310000Y-130810000D03*
X103310000Y-130010000D03*
X103310000Y-129210000D03*
X103310000Y-128410000D03*
X103310000Y-127610000D03*
X103310000Y-126810000D03*
X103310000Y-126010000D03*
D36*
X101860000Y-124560000D03*
X101060000Y-124560000D03*
X100260000Y-124560000D03*
X99460000Y-124560000D03*
X98660000Y-124560000D03*
X97860000Y-124560000D03*
X97060000Y-124560000D03*
X96260000Y-124560000D03*
D11*
X111660259Y-135605115D03*
X113660259Y-135605115D03*
D16*
X127000000Y-43180000D03*
D17*
X127000000Y-45720000D03*
X127000000Y-48260000D03*
X127000000Y-50800000D03*
X127000000Y-53340000D03*
D15*
X64583052Y-90707643D03*
X66658052Y-90707643D03*
D11*
X38640000Y-100330000D03*
X40640000Y-100330000D03*
D16*
X116130000Y-120940000D03*
D18*
X122630000Y-120940000D03*
X116130000Y-125440000D03*
X122630000Y-125440000D03*
D16*
X63500000Y-67310000D03*
D17*
X63500000Y-69850000D03*
X63500000Y-72390000D03*
X63500000Y-74930000D03*
X63500000Y-77470000D03*
D21*
X142369201Y-87670178D03*
X140369201Y-87670178D03*
D15*
X121947356Y-114838003D03*
X124022356Y-114838003D03*
D20*
X73660000Y-96752500D03*
X73660000Y-98827500D03*
D37*
X121920000Y-107950000D03*
D38*
X124460000Y-110490000D03*
X124460000Y-107950000D03*
X127000000Y-110490000D03*
X129540000Y-107950000D03*
X127000000Y-107950000D03*
X129540000Y-105410000D03*
X127000000Y-105410000D03*
X129540000Y-102870000D03*
X127000000Y-102870000D03*
X129540000Y-100330000D03*
X127000000Y-100330000D03*
X129540000Y-97790000D03*
X127000000Y-95250000D03*
X127000000Y-97790000D03*
X124460000Y-95250000D03*
X124460000Y-97790000D03*
X121920000Y-95250000D03*
X121920000Y-97790000D03*
X119380000Y-95250000D03*
X116840000Y-97790000D03*
X119380000Y-97790000D03*
X116840000Y-100330000D03*
X119380000Y-100330000D03*
X116840000Y-102870000D03*
X119380000Y-102870000D03*
X116840000Y-105410000D03*
X119380000Y-105410000D03*
X116840000Y-107950000D03*
X119380000Y-110490000D03*
X119380000Y-107950000D03*
X121920000Y-110490000D03*
D15*
X58082538Y-89738182D03*
X60157538Y-89738182D03*
D32*
X73660000Y-107926951D03*
X73660000Y-105851951D03*
D16*
X126290000Y-131100000D03*
D18*
X132790000Y-131100000D03*
X126290000Y-135600000D03*
X132790000Y-135600000D03*
D16*
X144070000Y-120940000D03*
D18*
X150570000Y-120940000D03*
X144070000Y-125440000D03*
X150570000Y-125440000D03*
D16*
X127000000Y-67310000D03*
D17*
X127000000Y-69850000D03*
X127000000Y-72390000D03*
X127000000Y-74930000D03*
X127000000Y-77470000D03*
D39*
X47463261Y-41910364D03*
X47463261Y-44190364D03*
X47463261Y-46470364D03*
D40*
X53763261Y-44190364D03*
D32*
X90610000Y-129307500D03*
X90610000Y-127232500D03*
D20*
X48233713Y-97264003D03*
X48233713Y-99339003D03*
D11*
X48381861Y-29642169D03*
X50381861Y-29642169D03*
D13*
X42637252Y-85090000D03*
D14*
X45177252Y-85090000D03*
D32*
X48260000Y-108985274D03*
X48260000Y-106910274D03*
D16*
X47550000Y-128270000D03*
D18*
X54050000Y-128270000D03*
X47550000Y-132770000D03*
X54050000Y-132770000D03*
D33*
X48116413Y-35745747D03*
D34*
X50616413Y-35745747D03*
D21*
X77664083Y-119140172D03*
X75664083Y-119140172D03*
X36402874Y-37365301D03*
X34402874Y-37365301D03*
D19*
X48260000Y-84471802D03*
X48260000Y-86471802D03*
D21*
X67754136Y-119140172D03*
X65754136Y-119140172D03*
D41*
X103632500Y-63870000D03*
X103632500Y-64670000D03*
X103632500Y-65470000D03*
X103632500Y-66270000D03*
X103632500Y-67070000D03*
X103632500Y-67870000D03*
X103632500Y-68670000D03*
X103632500Y-69470000D03*
X103632500Y-70270000D03*
X103632500Y-71070000D03*
X103632500Y-71870000D03*
X103632500Y-72670000D03*
X103632500Y-73470000D03*
X103632500Y-74270000D03*
X103632500Y-75070000D03*
X103632500Y-75870000D03*
X103632500Y-76670000D03*
X103632500Y-77470000D03*
X103632500Y-78270000D03*
X103632500Y-79070000D03*
X103632500Y-79870000D03*
X103632500Y-80670000D03*
X114807500Y-80670000D03*
X114807500Y-79870000D03*
X114807500Y-79070000D03*
X114807500Y-78270000D03*
X114807500Y-77470000D03*
X114807500Y-76670000D03*
X114807500Y-75870000D03*
X114807500Y-75070000D03*
X114807500Y-74270000D03*
X114807500Y-73470000D03*
X114807500Y-72670000D03*
X114807500Y-71870000D03*
X114807500Y-71070000D03*
X114807500Y-70270000D03*
X114807500Y-69470000D03*
X114807500Y-68670000D03*
X114807500Y-67870000D03*
X114807500Y-67070000D03*
X114807500Y-66270000D03*
X114807500Y-65470000D03*
X114807500Y-64670000D03*
X114807500Y-63870000D03*
D16*
X75421686Y-134566669D03*
D17*
X77961686Y-134566669D03*
X80501686Y-134566669D03*
X83041686Y-134566669D03*
X85581686Y-134566669D03*
D20*
X82782500Y-101832500D03*
X82782500Y-103907500D03*
D16*
X116130000Y-131100000D03*
D18*
X122630000Y-131100000D03*
X116130000Y-135600000D03*
X122630000Y-135600000D03*
D11*
X41853579Y-37365301D03*
X43853579Y-37365301D03*
D41*
X75692500Y-63870000D03*
X75692500Y-64670000D03*
X75692500Y-65470000D03*
X75692500Y-66270000D03*
X75692500Y-67070000D03*
X75692500Y-67870000D03*
X75692500Y-68670000D03*
X75692500Y-69470000D03*
X75692500Y-70270000D03*
X75692500Y-71070000D03*
X75692500Y-71870000D03*
X75692500Y-72670000D03*
X75692500Y-73470000D03*
X75692500Y-74270000D03*
X75692500Y-75070000D03*
X75692500Y-75870000D03*
X75692500Y-76670000D03*
X75692500Y-77470000D03*
X75692500Y-78270000D03*
X75692500Y-79070000D03*
X75692500Y-79870000D03*
X75692500Y-80670000D03*
X86867500Y-80670000D03*
X86867500Y-79870000D03*
X86867500Y-79070000D03*
X86867500Y-78270000D03*
X86867500Y-77470000D03*
X86867500Y-76670000D03*
X86867500Y-75870000D03*
X86867500Y-75070000D03*
X86867500Y-74270000D03*
X86867500Y-73470000D03*
X86867500Y-72670000D03*
X86867500Y-71870000D03*
X86867500Y-71070000D03*
X86867500Y-70270000D03*
X86867500Y-69470000D03*
X86867500Y-68670000D03*
X86867500Y-67870000D03*
X86867500Y-67070000D03*
X86867500Y-66270000D03*
X86867500Y-65470000D03*
X86867500Y-64670000D03*
X86867500Y-63870000D03*
D11*
X48283055Y-78849925D03*
X50283055Y-78849925D03*
D32*
X108390000Y-130345000D03*
X108390000Y-128270000D03*
D16*
X130810000Y-29210000D03*
D17*
X133350000Y-29210000D03*
X135890000Y-29210000D03*
X138430000Y-29210000D03*
X140970000Y-29210000D03*
D19*
X71120000Y-80280000D03*
X71120000Y-82280000D03*
D15*
X40302903Y-43168058D03*
X42377903Y-43168058D03*
D16*
X34290000Y-62230000D03*
D17*
X36830000Y-62230000D03*
X39370000Y-62230000D03*
X41910000Y-62230000D03*
X44450000Y-62230000D03*
X46990000Y-62230000D03*
X49530000Y-62230000D03*
X52070000Y-62230000D03*
D37*
X142240000Y-107950000D03*
D38*
X144780000Y-110490000D03*
X144780000Y-107950000D03*
X147320000Y-110490000D03*
X149860000Y-107950000D03*
X147320000Y-107950000D03*
X149860000Y-105410000D03*
X147320000Y-105410000D03*
X149860000Y-102870000D03*
X147320000Y-102870000D03*
X149860000Y-100330000D03*
X147320000Y-100330000D03*
X149860000Y-97790000D03*
X147320000Y-95250000D03*
X147320000Y-97790000D03*
X144780000Y-95250000D03*
X144780000Y-97790000D03*
X142240000Y-95250000D03*
X142240000Y-97790000D03*
X139700000Y-95250000D03*
X137160000Y-97790000D03*
X139700000Y-97790000D03*
X137160000Y-100330000D03*
X139700000Y-100330000D03*
X137160000Y-102870000D03*
X139700000Y-102870000D03*
X137160000Y-105410000D03*
X139700000Y-105410000D03*
X137160000Y-107950000D03*
X139700000Y-110490000D03*
X139700000Y-107950000D03*
X142240000Y-110490000D03*
D21*
X72709110Y-119098181D03*
X70709110Y-119098181D03*
D22*
X53118951Y-91112332D03*
X51043951Y-91112332D03*
D15*
X55069174Y-115673952D03*
X57144174Y-115673952D03*
D42*
X86055000Y-96870000D03*
X86055000Y-97670000D03*
X86055000Y-98470000D03*
X86055000Y-99270000D03*
X86055000Y-100070000D03*
X86055000Y-100870000D03*
X86055000Y-101670000D03*
X86055000Y-102470000D03*
X86055000Y-103270000D03*
X86055000Y-104070000D03*
X86055000Y-104870000D03*
X86055000Y-105670000D03*
X86055000Y-106470000D03*
X86055000Y-107270000D03*
X86055000Y-108070000D03*
X86055000Y-108870000D03*
D43*
X87980000Y-110795000D03*
X88780000Y-110795000D03*
X89580000Y-110795000D03*
X90380000Y-110795000D03*
X91180000Y-110795000D03*
X91980000Y-110795000D03*
X92780000Y-110795000D03*
X93580000Y-110795000D03*
X94380000Y-110795000D03*
X95180000Y-110795000D03*
X95980000Y-110795000D03*
X96780000Y-110795000D03*
X97580000Y-110795000D03*
X98380000Y-110795000D03*
X99180000Y-110795000D03*
X99980000Y-110795000D03*
D42*
X101905000Y-108870000D03*
X101905000Y-108070000D03*
X101905000Y-107270000D03*
X101905000Y-106470000D03*
X101905000Y-105670000D03*
X101905000Y-104870000D03*
X101905000Y-104070000D03*
X101905000Y-103270000D03*
X101905000Y-102470000D03*
X101905000Y-101670000D03*
X101905000Y-100870000D03*
X101905000Y-100070000D03*
X101905000Y-99270000D03*
X101905000Y-98470000D03*
X101905000Y-97670000D03*
X101905000Y-96870000D03*
D43*
X99980000Y-94945000D03*
X99180000Y-94945000D03*
X98380000Y-94945000D03*
X97580000Y-94945000D03*
X96780000Y-94945000D03*
X95980000Y-94945000D03*
X95180000Y-94945000D03*
X94380000Y-94945000D03*
X93580000Y-94945000D03*
X92780000Y-94945000D03*
X91980000Y-94945000D03*
X91180000Y-94945000D03*
X90380000Y-94945000D03*
X89580000Y-94945000D03*
X88780000Y-94945000D03*
X87980000Y-94945000D03*
D20*
X29166342Y-46994372D03*
X29166342Y-49069372D03*
D16*
X30480000Y-97790000D03*
D17*
X33020000Y-97790000D03*
X30480000Y-100330000D03*
X33020000Y-100330000D03*
X30480000Y-102870000D03*
X33020000Y-102870000D03*
X30480000Y-105410000D03*
X33020000Y-105410000D03*
X30480000Y-107950000D03*
X33020000Y-107950000D03*
X30480000Y-110490000D03*
X33020000Y-110490000D03*
D16*
X63500000Y-43180000D03*
D17*
X63500000Y-45720000D03*
X63500000Y-48260000D03*
X63500000Y-50800000D03*
X63500000Y-53340000D03*
D22*
X65550027Y-115570000D03*
X63475027Y-115570000D03*
D32*
X90910000Y-73187500D03*
X90910000Y-71112500D03*
D20*
X105418038Y-102808161D03*
X105418038Y-104883161D03*
D11*
X38640000Y-107950000D03*
X40640000Y-107950000D03*
M02*
